<svg xmlns="http://www.w3.org/2000/svg" width="32" height="32" viewBox="0 0 24 24"><path fill="currentColor" fill-rule="evenodd" d="m10.404 22.48l.275-.465c.44-.745.66-1.117 1.012-1.325c.351-.207.81-.222 1.725-.252c.859-.027 1.436-.102 1.93-.306a4.241 4.241 0 0 0 2.295-2.296c.323-.779.323-1.767.323-3.743v-.848c0-2.777 0-4.165-.625-5.185c-.35-.57-.83-1.05-1.4-1.4c-1.02-.625-2.408-.625-5.185-.625H8.21c-2.777 0-4.165 0-5.185.625c-.57.35-1.05.83-1.4 1.4C1 9.08 1 10.468 1 13.245v.848c0 1.976 0 2.964.323 3.744a4.241 4.241 0 0 0 2.295 2.295c.494.204 1.07.28 1.93.306c.916.03 1.374.045 1.725.252c.35.208.571.58 1.012 1.325l.275.465c.41.692 1.434.692 1.844 0m2.789-7.963a1.06 1.06 0 1 0 0-2.12a1.06 1.06 0 0 0 0 2.12m-2.65-1.06a1.06 1.06 0 1 1-2.121 0a1.06 1.06 0 0 1 2.12 0m-4.772 1.06a1.06 1.06 0 1 0 0-2.12a1.06 1.06 0 0 0 0 2.12" clip-rule="evenodd"/><path fill="currentColor" d="M15.486 1c1.267 0 2.274 0 3.082.077c.829.079 1.53.244 2.153.626a4.77 4.77 0 0 1 1.575 1.575c.383.624.548 1.325.627 2.153c.076.808.076 1.816.076 3.082v.866c0 .901 0 1.619-.04 2.2c-.04.595-.125 1.106-.323 1.584a4.77 4.77 0 0 1-2.67 2.617c-.141.054-.262.1-.368.135h-1.65c.016-.499.016-1.093.016-1.822v-.848c0-2.777 0-4.165-.625-5.185c-.35-.57-.83-1.05-1.4-1.4c-1.02-.625-2.408-.625-5.185-.625H8.21c-.986 0-1.796 0-2.478.028v-1.65c.033-.114.078-.244.13-.396c.09-.26.203-.505.346-.739a4.771 4.771 0 0 1 1.576-1.575c.624-.382 1.324-.547 2.153-.626C10.745 1 11.752 1 13.019 1z" opacity=".5"/></svg>