<svg xmlns="http://www.w3.org/2000/svg" width="32" height="32" viewBox="0 0 24 24"><path fill="currentColor" d="M2 12c0-4.714 0-7.071 1.464-8.536C4.93 2 7.286 2 12 2c4.714 0 7.071 0 8.535 1.464C22 4.93 22 7.286 22 12c0 4.714 0 7.071-1.465 8.535C19.072 22 16.714 22 12 22s-7.071 0-8.536-1.465C2 19.072 2 16.714 2 12" opacity=".5"/><path fill="currentColor" d="M6.424 9.52a.75.75 0 0 1 1.056-.096l.277.23c.605.504 1.12.933 1.476 1.328c.379.42.674.901.674 1.518s-.295 1.099-.674 1.518c-.356.395-.871.824-1.476 1.328l-.277.23a.75.75 0 1 1-.96-1.152l.234-.195c.659-.55 1.09-.91 1.366-1.216c.262-.29.287-.427.287-.513c0-.086-.025-.222-.287-.513c-.277-.306-.707-.667-1.366-1.216l-.234-.195a.75.75 0 0 1-.096-1.056M17.75 15a.75.75 0 0 1-.75.75h-5a.75.75 0 0 1 0-1.5h5a.75.75 0 0 1 .75.75"/></svg>