<?xml version="1.0" encoding="UTF-8"?>
<svg width="80px" height="80px" viewBox="0 0 80 80" version="1.1" xmlns="http://www.w3.org/2000/svg" xmlns:xlink="http://www.w3.org/1999/xlink">
    <title>Artboard@1x</title>
    <g id="Artboard" stroke="none" stroke-width="1" fill="none" fill-rule="evenodd">
        <g id="942748" transform="translate(12.000000, 6.000000)" fill-rule="nonzero">
            <path d="M52.3290547,66.671875 L3.98530469,66.671875 C2.51825781,66.671875 1.32905469,65.4826719 1.32905469,64.015625 L1.32905469,3.984375 C1.32905469,2.51732812 2.51825781,1.328125 3.98530469,1.328125 L52.3290547,1.328125 C53.7961016,1.328125 54.9853047,2.51732812 54.9853047,3.984375 L54.9853047,64.015625 C54.9853047,65.4826719 53.7961016,66.671875 52.3290547,66.671875 Z" id="Path" fill="#FFFFFF"></path>
            <circle id="Oval" fill="#FE6663" cx="28.1575781" cy="19.390625" r="10.890625"></circle>
            <path d="M31.6103047,17.9960938 L31.6103047,18.859375 C31.6103047,20.7664297 30.0642344,22.3125 28.1571797,22.3125 L28.1571797,22.3125 L28.1571797,22.3125 C26.250125,22.3125 24.7040547,20.7664297 24.7040547,18.859375 L24.7040547,17.9960938 C24.7040547,16.0890391 26.250125,14.5429688 28.1571797,14.5429688 L28.1571797,14.5429688 C30.0642344,14.5429688 31.6103047,16.0890391 31.6103047,17.9960938 Z" id="Path" fill="#FFCDAC"></path>
            <path d="M28.1571797,22.3125 L28.1571797,22.3125 C24.7863984,22.3125 21.9064922,24.4065547 20.7419922,27.3637578 C22.6863672,29.1729297 25.29175,30.28125 28.1571797,30.28125 C31.0226094,30.28125 33.6279922,29.1729297 35.5723672,27.3637578 C34.4078672,24.4065547 31.5279609,22.3125 28.1571797,22.3125 Z" id="Path" fill="#A5DDFF"></path>
            <path d="M57.9824844,21.3283594 L58.741375,20.0139141 C59.9150391,17.9812187 62.5141797,17.28475 64.5470078,18.4582812 L64.5470078,18.4582812 C66.5797031,19.6319453 67.2761719,22.2310859 66.1026406,24.2639141 L49.3893828,53.212125 L42.0281172,48.962125 L49.2374453,36.4750937 L57.9824844,21.3283594 Z" id="Path" fill="#FFBC53"></path>
            <path d="M64.5471406,18.4582812 L64.5471406,18.4582812 C62.5144453,17.2846172 59.9151719,17.9810859 58.7415078,20.0139141 L56.7683125,23.4315781 L64.1295781,27.6815781 L66.1027734,24.2639141 C67.2763047,22.2312187 66.5798359,19.6319453 64.5471406,18.4582812 Z" id="Path" fill="#FE6663"></path>
            <polygon id="Path" fill="#9AD8FF" points="49.3893828 53.212125 40.8516641 59.5 42.0281172 48.962125"></polygon>
            <path d="M54.9853047,52.9029375 C54.2519141,52.9029375 53.6571797,53.4975391 53.6571797,54.2310625 L53.6571797,64.015625 C53.6571797,64.7479531 53.0613828,65.34375 52.3290547,65.34375 L3.98530469,65.34375 C3.25297656,65.34375 2.65717969,64.7479531 2.65717969,64.015625 L2.65717969,3.984375 C2.65717969,3.25204688 3.25297656,2.65625 3.98530469,2.65625 L52.3290547,2.65625 C53.0613828,2.65625 53.6571797,3.25204688 53.6571797,3.984375 L53.6571797,18.4277344 C53.6571797,19.1612578 54.2519141,19.7558594 54.9853047,19.7558594 C55.7186953,19.7558594 56.3134297,19.1612578 56.3134297,18.4277344 L56.3134297,3.984375 C56.3134297,1.78739062 54.5260391,0 52.3290547,0 L3.98530469,0 C1.78832031,0 0.0009296875,1.78739063 0.0009296875,3.984375 L0.0009296875,64.015625 C0.0009296875,66.2126094 1.78832031,68 3.98530469,68 L52.3290547,68 C54.5260391,68 56.3134297,66.2126094 56.3134297,64.015625 L56.3134297,54.2310625 C56.3134297,53.4975391 55.7186953,52.9029375 54.9853047,52.9029375 Z" id="Path" fill="#000000"></path>
            <path d="M40.3759297,19.390625 C40.3759297,12.6531797 34.894625,7.171875 28.1571797,7.171875 C21.4197344,7.171875 15.9384297,12.6531797 15.9384297,19.390625 C15.9384297,22.8858516 17.4139766,26.0425391 19.7743203,28.2716641 C19.8185469,28.3189453 19.8655625,28.3637031 19.9169609,28.4044766 C22.0912344,30.393875 24.9848203,31.6092422 28.1570469,31.6092422 C31.3292734,31.6092422 34.2228594,30.3937422 36.3971328,28.4044766 C36.4485312,28.3637031 36.4955469,28.3188125 36.5397734,28.2716641 C38.9003828,26.0425391 40.3759297,22.8858516 40.3759297,19.390625 Z M28.1571797,9.828125 C33.4299688,9.828125 37.7196797,14.1178359 37.7196797,19.390625 C37.7196797,21.5112422 37.0249375,23.4719531 35.8523359,25.0594609 C34.8728437,23.6067578 33.5153672,22.4769219 31.9392813,21.7793906 C32.5648281,20.9709609 32.9384297,19.9582656 32.9384297,18.859375 L32.9384297,17.9960938 C32.9384297,15.3596328 30.7936406,13.2148438 28.1571797,13.2148438 C25.5207188,13.2148438 23.3759297,15.3596328 23.3759297,17.9960938 L23.3759297,18.859375 C23.3759297,19.9582656 23.7495313,20.9709609 24.3750781,21.7793906 C22.7989922,22.4769219 21.4415156,23.6067578 20.4620234,25.0594609 C19.2894219,23.4719531 18.5946797,21.5112422 18.5946797,19.390625 C18.5946797,14.1178359 22.8843906,9.828125 28.1571797,9.828125 Z M26.0321797,18.859375 L26.0321797,17.9960938 C26.0321797,16.8244219 26.9855078,15.8710938 28.1571797,15.8710938 C29.3288516,15.8710938 30.2821797,16.8244219 30.2821797,17.9960938 L30.2821797,18.859375 C30.2821797,20.0310469 29.3288516,20.984375 28.1571797,20.984375 C26.9855078,20.984375 26.0321797,20.0310469 26.0321797,18.859375 Z M22.3810312,27.0050313 C23.5483203,24.9351484 25.7265781,23.640625 28.1571797,23.640625 C30.5877813,23.640625 32.7660391,24.9351484 33.9333281,27.0050313 C32.3272266,28.226375 30.325875,28.953125 28.1571797,28.953125 C25.9884844,28.953125 23.987,28.226375 22.3810312,27.0050313 Z" id="Shape" fill="#000000"></path>
            <path d="M35.3290547,58.171875 L28.1571797,58.171875 C27.4237891,58.171875 26.8290547,58.7664766 26.8290547,59.5 C26.8290547,60.2335234 27.4237891,60.828125 28.1571797,60.828125 L35.3290547,60.828125 C36.0624453,60.828125 36.6571797,60.2335234 36.6571797,59.5 C36.6571797,58.7664766 36.0624453,58.171875 35.3290547,58.171875 Z" id="Path" fill="#000000"></path>
            <path d="M35.3290547,50.734375 L16.4696797,50.734375 C15.7362891,50.734375 15.1415547,51.3289766 15.1415547,52.0625 C15.1415547,52.7960234 15.7362891,53.390625 16.4696797,53.390625 L35.3290547,53.390625 C36.0624453,53.390625 36.6571797,52.7960234 36.6571797,52.0625 C36.6571797,51.3289766 36.0624453,50.734375 35.3290547,50.734375 Z" id="Path" fill="#000000"></path>
            <path d="M35.3290547,43.296875 L16.4696797,43.296875 C15.7362891,43.296875 15.1415547,43.8914766 15.1415547,44.625 C15.1415547,45.3585234 15.7362891,45.953125 16.4696797,45.953125 L35.3290547,45.953125 C36.0624453,45.953125 36.6571797,45.3585234 36.6571797,44.625 C36.6571797,43.8914766 36.0624453,43.296875 35.3290547,43.296875 Z" id="Path" fill="#000000"></path>
            <path d="M11.7361094,36.2485156 C11.4892109,36.0014844 11.1465547,35.859375 10.7959297,35.859375 C10.4465,35.859375 10.1038438,36.0014844 9.85694531,36.2485156 C9.60991406,36.4955469 9.46780469,36.8382031 9.46780469,37.1875 C9.46780469,37.5367969 9.60978125,37.8794531 9.85694531,38.1264844 C10.1053047,38.3735156 10.4465,38.515625 10.7959297,38.515625 C11.1465547,38.515625 11.4878828,38.3735156 11.7361094,38.1264844 C11.9831406,37.8794531 12.1253828,37.5367969 12.1253828,37.1875 C12.1253828,36.8382031 11.9832734,36.4955469 11.7361094,36.2485156 Z" id="Path" fill="#000000"></path>
            <path d="M11.7361094,43.6860156 C11.4878828,43.4389844 11.1465547,43.296875 10.7959297,43.296875 C10.4465,43.296875 10.1053047,43.4389844 9.85694531,43.6860156 C9.60991406,43.9330469 9.46780469,44.2757031 9.46780469,44.625 C9.46780469,44.9742969 9.60978125,45.3169531 9.85694531,45.5639844 C10.1053047,45.8110156 10.4465,45.953125 10.7959297,45.953125 C11.1465547,45.953125 11.4878828,45.8110156 11.7361094,45.5639844 C11.9831406,45.3169531 12.1253828,44.9742969 12.1253828,44.625 C12.1253828,44.2757031 11.9832734,43.9330469 11.7361094,43.6860156 Z" id="Path" fill="#000000"></path>
            <path d="M10.7959297,50.734375 C10.4465,50.734375 10.1053047,50.8764844 9.85694531,51.1235156 C9.60991406,51.3705469 9.46780469,51.7132031 9.46780469,52.0625 C9.46780469,52.4117969 9.60978125,52.7544531 9.85694531,53.0014844 C10.1038438,53.2485156 10.4465,53.390625 10.7959297,53.390625 C11.1465547,53.390625 11.4892109,53.2485156 11.7361094,53.0014844 C11.9831406,52.7544531 12.1253828,52.4117969 12.1253828,52.0625 C12.1253828,51.7132031 11.9832734,51.3705469 11.7361094,51.1235156 C11.4878828,50.8764844 11.1465547,50.734375 10.7959297,50.734375 Z" id="Path" fill="#000000"></path>
            <path d="M35.3290547,35.859375 L16.4696797,35.859375 C15.7362891,35.859375 15.1415547,36.4539766 15.1415547,37.1875 C15.1415547,37.9210234 15.7362891,38.515625 16.4696797,38.515625 L35.3290547,38.515625 C36.0624453,38.515625 36.6571797,37.9210234 36.6571797,37.1875 C36.6571797,36.4539766 36.0624453,35.859375 35.3290547,35.859375 Z" id="Path" fill="#000000"></path>
            <path d="M65.2112031,17.308125 C63.9209297,16.5631797 62.4177578,16.3652891 60.9783359,16.7508437 C59.5391797,17.1365312 58.3361641,18.0595781 57.5913516,19.3498516 L40.8779609,48.2980625 C40.7864531,48.4567734 40.7285469,48.63275 40.7082266,48.8148359 L39.5317734,59.3527109 C39.4733359,59.8770547 39.7307266,60.3863906 40.1876016,60.6502891 C40.3938594,60.7692891 40.6229609,60.8282578 40.8515313,60.8282578 C41.129375,60.8282578 41.4061563,60.7412656 41.6392422,60.5695391 L50.1769609,54.2816641 C50.3245156,54.1730234 50.4480312,54.0350313 50.5395391,53.8763203 L67.2527969,24.9281094 C68.7907656,22.2644219 67.8748906,18.8460937 65.2112031,17.308125 Z M43.1227578,51.1277656 L46.9666172,53.3470625 L42.5083672,56.6304531 L43.1227578,51.1277656 Z M48.9032891,51.3979063 L43.8424688,48.4760313 L57.2545391,25.2457969 L62.3153594,28.1676719 L48.9032891,51.3979063 Z M64.9524844,23.5998516 L63.6433516,25.8673594 L58.5825313,22.9454844 L59.8916641,20.6779766 C60.2818672,20.0020938 60.9119297,19.5186562 61.6657734,19.3166484 C62.4198828,19.1145078 63.2071953,19.2183672 63.8829453,19.6085703 C64.5588281,19.9987734 65.0422656,20.6288359 65.2442734,21.3826797 C65.4462812,22.1365234 65.3426875,22.9239688 64.9524844,23.5998516 Z" id="Shape" fill="#000000"></path>
        </g>
    </g>
</svg>