<svg id="Layer_10" data-name="Layer 10" xmlns="http://www.w3.org/2000/svg" xmlns:xlink="http://www.w3.org/1999/xlink" viewBox="0 0 708 393"><defs><style>.cls-1,.cls-100,.cls-101,.cls-102,.cls-103,.cls-104,.cls-105,.cls-106,.cls-107,.cls-108,.cls-109,.cls-11,.cls-110,.cls-111,.cls-112,.cls-113,.cls-114,.cls-115,.cls-116,.cls-117,.cls-118,.cls-119,.cls-12,.cls-120,.cls-121,.cls-122,.cls-123,.cls-124,.cls-125,.cls-126,.cls-128,.cls-134,.cls-135,.cls-137,.cls-14,.cls-140,.cls-15,.cls-16,.cls-17,.cls-18,.cls-19,.cls-20,.cls-21,.cls-22,.cls-23,.cls-24,.cls-25,.cls-26,.cls-27,.cls-28,.cls-29,.cls-3,.cls-30,.cls-31,.cls-32,.cls-33,.cls-34,.cls-35,.cls-36,.cls-37,.cls-38,.cls-39,.cls-4,.cls-40,.cls-41,.cls-42,.cls-43,.cls-44,.cls-45,.cls-46,.cls-47,.cls-48,.cls-49,.cls-50,.cls-51,.cls-52,.cls-53,.cls-54,.cls-55,.cls-56,.cls-57,.cls-58,.cls-59,.cls-60,.cls-61,.cls-62,.cls-63,.cls-64,.cls-65,.cls-66,.cls-67,.cls-68,.cls-69,.cls-70,.cls-71,.cls-72,.cls-73,.cls-74,.cls-75,.cls-76,.cls-77,.cls-78,.cls-79,.cls-80,.cls-81,.cls-82,.cls-83,.cls-84,.cls-85,.cls-86,.cls-87,.cls-88,.cls-89,.cls-90,.cls-91,.cls-92,.cls-93,.cls-94,.cls-95,.cls-96,.cls-97,.cls-98,.cls-99{fill:none;}.cls-2{fill:url(#linear-gradient);}.cls-100,.cls-101,.cls-102,.cls-103,.cls-104,.cls-105,.cls-106,.cls-107,.cls-108,.cls-109,.cls-110,.cls-111,.cls-112,.cls-113,.cls-114,.cls-115,.cls-116,.cls-117,.cls-118,.cls-119,.cls-12,.cls-120,.cls-121,.cls-122,.cls-123,.cls-124,.cls-125,.cls-126,.cls-134,.cls-136,.cls-14,.cls-140,.cls-15,.cls-16,.cls-17,.cls-18,.cls-19,.cls-20,.cls-21,.cls-22,.cls-23,.cls-24,.cls-25,.cls-26,.cls-27,.cls-28,.cls-29,.cls-3,.cls-30,.cls-31,.cls-32,.cls-33,.cls-34,.cls-35,.cls-36,.cls-37,.cls-38,.cls-39,.cls-4,.cls-40,.cls-41,.cls-42,.cls-43,.cls-44,.cls-45,.cls-46,.cls-47,.cls-48,.cls-49,.cls-50,.cls-51,.cls-52,.cls-53,.cls-54,.cls-55,.cls-56,.cls-57,.cls-58,.cls-59,.cls-60,.cls-61,.cls-62,.cls-63,.cls-64,.cls-65,.cls-66,.cls-67,.cls-68,.cls-69,.cls-70,.cls-71,.cls-72,.cls-73,.cls-74,.cls-75,.cls-76,.cls-77,.cls-78,.cls-79,.cls-80,.cls-81,.cls-82,.cls-83,.cls-84,.cls-85,.cls-86,.cls-87,.cls-88,.cls-89,.cls-90,.cls-91,.cls-92,.cls-93,.cls-94,.cls-95,.cls-96,.cls-97,.cls-98,.cls-99{stroke:#fff;}.cls-100,.cls-101,.cls-102,.cls-103,.cls-104,.cls-105,.cls-106,.cls-107,.cls-108,.cls-109,.cls-110,.cls-111,.cls-112,.cls-113,.cls-114,.cls-115,.cls-116,.cls-117,.cls-118,.cls-119,.cls-12,.cls-120,.cls-121,.cls-122,.cls-123,.cls-124,.cls-125,.cls-126,.cls-128,.cls-134,.cls-135,.cls-136,.cls-137,.cls-14,.cls-140,.cls-15,.cls-16,.cls-17,.cls-18,.cls-20,.cls-21,.cls-22,.cls-23,.cls-24,.cls-25,.cls-26,.cls-27,.cls-28,.cls-29,.cls-3,.cls-30,.cls-31,.cls-32,.cls-33,.cls-34,.cls-35,.cls-36,.cls-37,.cls-38,.cls-39,.cls-4,.cls-40,.cls-41,.cls-42,.cls-43,.cls-44,.cls-45,.cls-46,.cls-47,.cls-48,.cls-49,.cls-50,.cls-51,.cls-52,.cls-53,.cls-54,.cls-55,.cls-56,.cls-57,.cls-58,.cls-59,.cls-60,.cls-61,.cls-62,.cls-63,.cls-64,.cls-65,.cls-66,.cls-67,.cls-68,.cls-69,.cls-70,.cls-71,.cls-72,.cls-73,.cls-74,.cls-75,.cls-76,.cls-77,.cls-78,.cls-79,.cls-80,.cls-81,.cls-82,.cls-83,.cls-84,.cls-85,.cls-86,.cls-87,.cls-88,.cls-89,.cls-90,.cls-91,.cls-92,.cls-93,.cls-94,.cls-95,.cls-96,.cls-97,.cls-98,.cls-99{stroke-miterlimit:10;}.cls-4{stroke-dasharray:3.98 1.99;}.cls-136,.cls-5{fill:#5aacf7;}.cls-6{fill:#b2d7f3;}.cls-7{fill:#fff;}.cls-8{opacity:0.4;}.cls-9{fill:#0b3051;}.cls-10{fill:#67b0ea;}.cls-11,.cls-135{stroke:#0b3051;}.cls-12{stroke-dasharray:4 2;}.cls-13{clip-path:url(#clip-path);}.cls-14{opacity:0.99;}.cls-15{opacity:0.98;}.cls-16{opacity:0.97;}.cls-17{opacity:0.96;}.cls-18{opacity:0.95;}.cls-19{stroke-miterlimit:10;opacity:0.95;}.cls-20{opacity:0.94;}.cls-21{opacity:0.93;}.cls-22{opacity:0.92;}.cls-23{opacity:0.91;}.cls-24{opacity:0.9;}.cls-25{opacity:0.89;}.cls-26{opacity:0.88;}.cls-27{opacity:0.87;}.cls-28{opacity:0.86;}.cls-29{opacity:0.86;}.cls-30{opacity:0.85;}.cls-31{opacity:0.84;}.cls-32{opacity:0.83;}.cls-33{opacity:0.82;}.cls-34{opacity:0.81;}.cls-35{opacity:0.8;}.cls-36{opacity:0.79;}.cls-37{opacity:0.78;}.cls-38{opacity:0.77;}.cls-39{opacity:0.77;}.cls-40{opacity:0.76;}.cls-41{opacity:0.75;}.cls-42{opacity:0.74;}.cls-43{opacity:0.73;}.cls-44{opacity:0.72;}.cls-45{opacity:0.71;}.cls-46{opacity:0.7;}.cls-47{opacity:0.69;}.cls-48{opacity:0.68;}.cls-49{opacity:0.68;}.cls-50{opacity:0.67;}.cls-51{opacity:0.66;}.cls-52{opacity:0.65;}.cls-53{opacity:0.64;}.cls-54{opacity:0.63;}.cls-55{opacity:0.62;}.cls-56{opacity:0.61;}.cls-57{opacity:0.6;}.cls-58{opacity:0.59;}.cls-59{opacity:0.59;}.cls-60{opacity:0.58;}.cls-61{opacity:0.57;}.cls-62{opacity:0.56;}.cls-63{opacity:0.55;}.cls-64{opacity:0.54;}.cls-65{opacity:0.53;}.cls-66{opacity:0.52;}.cls-67{opacity:0.51;}.cls-68{opacity:0.5;}.cls-69{opacity:0.5;}.cls-70{opacity:0.49;}.cls-71{opacity:0.48;}.cls-72{opacity:0.47;}.cls-73{opacity:0.46;}.cls-74{opacity:0.45;}.cls-75{opacity:0.44;}.cls-76{opacity:0.43;}.cls-77{opacity:0.42;}.cls-78{opacity:0.41;}.cls-79{opacity:0.41;}.cls-80{opacity:0.4;}.cls-81{opacity:0.39;}.cls-82{opacity:0.38;}.cls-83{opacity:0.37;}.cls-84{opacity:0.36;}.cls-85{opacity:0.35;}.cls-86{opacity:0.34;}.cls-87{opacity:0.33;}.cls-88{opacity:0.32;}.cls-89{opacity:0.32;}.cls-90{opacity:0.31;}.cls-91{opacity:0.3;}.cls-92{opacity:0.29;}.cls-93{opacity:0.28;}.cls-94{opacity:0.27;}.cls-95{opacity:0.26;}.cls-96{opacity:0.25;}.cls-97{opacity:0.24;}.cls-98{opacity:0.23;}.cls-99{opacity:0.23;}.cls-100{opacity:0.22;}.cls-101{opacity:0.21;}.cls-102{opacity:0.2;}.cls-103{opacity:0.19;}.cls-104{opacity:0.18;}.cls-105{opacity:0.17;}.cls-106{opacity:0.16;}.cls-107{opacity:0.15;}.cls-108{opacity:0.14;}.cls-109{opacity:0.14;}.cls-110{opacity:0.13;}.cls-111{opacity:0.12;}.cls-112{opacity:0.11;}.cls-113{opacity:0.1;}.cls-114{opacity:0.09;}.cls-115{opacity:0.08;}.cls-116{opacity:0.07;}.cls-117{opacity:0.06;}.cls-118{opacity:0.05;}.cls-119{opacity:0.05;}.cls-120{opacity:0.04;}.cls-121{opacity:0.03;}.cls-122{opacity:0.02;}.cls-123{opacity:0.01;}.cls-124{opacity:0;}.cls-125,.cls-126{stroke-linecap:round;}.cls-125{stroke-width:2px;}.cls-127{fill:#b1b1b1;}.cls-128{stroke:#8a8a8a;}.cls-129{fill:#8a8a8a;}.cls-130{fill:url(#linear-gradient-2);}.cls-131{clip-path:url(#clip-path-2);}.cls-132{clip-path:url(#clip-path-3);}.cls-133{fill:#dfdfdf;}.cls-134{stroke-dasharray:3.94 1.97;}.cls-137{stroke:#67b0ea;}.cls-138{fill:url(#linear-gradient-3);}.cls-139{clip-path:url(#clip-path-4);}.cls-140{stroke-dasharray:4.04 2.02;}.cls-141{clip-path:url(#clip-path-5);}.cls-142{clip-path:url(#clip-path-6);}</style><linearGradient id="linear-gradient" x1="375" y1="379.77" x2="375" y2="-55.35" gradientTransform="translate(571.5 -178.5) rotate(90)" gradientUnits="userSpaceOnUse"><stop offset="0" stop-color="#0980fc"/><stop offset="1" stop-color="#3c9fd0"/></linearGradient><clipPath id="clip-path"><rect class="cls-1" x="146.56" y="362.12" width="299.26" height="9.88"/></clipPath><linearGradient id="linear-gradient-2" x1="78.95" y1="323.89" x2="78.95" y2="108.68" gradientTransform="matrix(1, 0, 0, 1, 0, 0)" xlink:href="#linear-gradient"/><clipPath id="clip-path-2"><rect class="cls-1" x="10.1" y="78.97" width="136.78" height="19.28"/></clipPath><clipPath id="clip-path-3"><rect class="cls-1" x="10.56" y="361.25" width="136.78" height="22.03"/></clipPath><linearGradient id="linear-gradient-3" x1="548.19" y1="367.83" x2="548.19" y2="235.63" gradientTransform="matrix(1, 0, 0, 1, 0, 0)" xlink:href="#linear-gradient"/><clipPath id="clip-path-4"><polygon class="cls-1" points="684.51 245.58 684.51 372.26 413.71 372.26 413.71 245.58 398.1 245.58 398.1 382.71 698.28 382.71 698.28 245.58 684.51 245.58"/></clipPath><clipPath id="clip-path-5"><rect class="cls-1" x="738.1" y="78.97" width="136.78" height="19.28"/></clipPath><clipPath id="clip-path-6"><rect class="cls-1" x="738.56" y="361.25" width="136.78" height="22.03"/></clipPath></defs><title>iOS-Hero</title><rect class="cls-2" x="199.5" y="-54.5" width="351" height="502" transform="translate(178.5 571.5) rotate(-90)"/><line class="cls-3" x1="124" y1="52.5" x2="126" y2="52.5"/><line class="cls-4" x1="127.99" y1="52.5" x2="623" y2="52.5"/><line class="cls-3" x1="624" y1="52.5" x2="626" y2="52.5"/><rect class="cls-5" x="214" y="130" width="22" height="7"/><rect class="cls-5" x="214.5" y="61.5" width="66" height="66" rx="2.5" ry="2.5"/><path class="cls-6" d="M278,62a2,2,0,0,1,2,2v61a2,2,0,0,1-2,2H217a2,2,0,0,1-2-2V64a2,2,0,0,1,2-2h61m0-1H217a3,3,0,0,0-3,3v61a3,3,0,0,0,3,3h61a3,3,0,0,0,3-3V64a3,3,0,0,0-3-3Z"/><rect class="cls-5" x="138.5" y="178.5" width="66" height="66" rx="2.5" ry="2.5"/><path class="cls-6" d="M202,179a2,2,0,0,1,2,2v61a2,2,0,0,1-2,2H141a2,2,0,0,1-2-2V181a2,2,0,0,1,2-2h61m0-1H141a3,3,0,0,0-3,3v61a3,3,0,0,0,3,3h61a3,3,0,0,0,3-3V181a3,3,0,0,0-3-3Z"/><rect class="cls-5" x="290" y="130" width="22" height="7"/><rect class="cls-5" x="290.5" y="61.5" width="66" height="66" rx="2.5" ry="2.5"/><path class="cls-7" d="M354,62a2,2,0,0,1,2,2v61a2,2,0,0,1-2,2H293a2,2,0,0,1-2-2V64a2,2,0,0,1,2-2h61m0-1H293a3,3,0,0,0-3,3v61a3,3,0,0,0,3,3h61a3,3,0,0,0,3-3V64a3,3,0,0,0-3-3Z"/><rect class="cls-5" x="290" y="247" width="32" height="7"/><rect class="cls-5" x="290.5" y="178.5" width="66" height="66" rx="2.5" ry="2.5"/><path class="cls-6" d="M354,179a2,2,0,0,1,2,2v61a2,2,0,0,1-2,2H293a2,2,0,0,1-2-2V181a2,2,0,0,1,2-2h61m0-1H293a3,3,0,0,0-3,3v61a3,3,0,0,0,3,3h61a3,3,0,0,0,3-3V181a3,3,0,0,0-3-3Z"/><rect class="cls-5" x="366" y="247" width="32" height="7"/><rect class="cls-5" x="366.5" y="178.5" width="66" height="66" rx="2.5" ry="2.5"/><path class="cls-6" d="M430,179a2,2,0,0,1,2,2v61a2,2,0,0,1-2,2H369a2,2,0,0,1-2-2V181a2,2,0,0,1,2-2h61m0-1H369a3,3,0,0,0-3,3v61a3,3,0,0,0,3,3h61a3,3,0,0,0,3-3V181a3,3,0,0,0-3-3Z"/><rect class="cls-5" x="366" y="130" width="32" height="7"/><rect class="cls-5" x="366.5" y="61.5" width="66" height="66" rx="2.5" ry="2.5"/><path class="cls-6" d="M430,62a2,2,0,0,1,2,2v61a2,2,0,0,1-2,2H369a2,2,0,0,1-2-2V64a2,2,0,0,1,2-2h61m0-1H369a3,3,0,0,0-3,3v61a3,3,0,0,0,3,3h61a3,3,0,0,0,3-3V64a3,3,0,0,0-3-3Z"/><rect class="cls-5" x="442" y="130" width="32" height="7"/><rect class="cls-5" x="442.5" y="61.5" width="66" height="66" rx="2.5" ry="2.5"/><path class="cls-6" d="M506,62a2,2,0,0,1,2,2v61a2,2,0,0,1-2,2H445a2,2,0,0,1-2-2V64a2,2,0,0,1,2-2h61m0-1H445a3,3,0,0,0-3,3v61a3,3,0,0,0,3,3h61a3,3,0,0,0,3-3V64a3,3,0,0,0-3-3Z"/><rect class="cls-5" x="518" y="130" width="32" height="7"/><rect class="cls-5" x="518.5" y="61.5" width="66" height="66" rx="2.5" ry="2.5"/><path class="cls-6" d="M582,62a2,2,0,0,1,2,2v61a2,2,0,0,1-2,2H521a2,2,0,0,1-2-2V64a2,2,0,0,1,2-2h61m0-1H521a3,3,0,0,0-3,3v61a3,3,0,0,0,3,3h61a3,3,0,0,0,3-3V64a3,3,0,0,0-3-3Z"/><rect class="cls-6" x="124" y="21" width="502" height="31"/><g class="cls-8"><rect class="cls-9" x="621" y="21" width="5" height="351"/></g><g class="cls-8"><rect class="cls-9" x="124" y="21" width="5" height="351"/></g><rect class="cls-5" x="360" y="37" width="30" height="7"/><rect class="cls-10" x="129" y="38" width="15" height="6"/><rect class="cls-10" x="129" y="24" width="15" height="6"/><rect class="cls-10" x="606" y="24" width="15" height="6"/><line class="cls-11" x1="281.5" y1="89" x2="281.5" y2="96"/><line class="cls-11" x1="289.5" y1="89" x2="289.5" y2="96"/><line class="cls-11" x1="282" y1="92.5" x2="290" y2="92.5"/><line class="cls-11" x1="205.5" y1="89" x2="205.5" y2="96"/><line class="cls-11" x1="213.5" y1="89" x2="213.5" y2="96"/><line class="cls-11" x1="206" y1="92.5" x2="214" y2="92.5"/><line class="cls-11" x1="129.5" y1="89" x2="129.5" y2="96"/><line class="cls-11" x1="137.5" y1="89" x2="137.5" y2="96"/><line class="cls-11" x1="130" y1="92.5" x2="138" y2="92.5"/><line class="cls-11" x1="328" y1="53.5" x2="321" y2="53.5"/><line class="cls-11" x1="328" y1="60.5" x2="321" y2="60.5"/><line class="cls-11" x1="324.5" y1="53" x2="324.5" y2="61"/><line class="cls-11" x1="328" y1="128.5" x2="321" y2="128.5"/><line class="cls-11" x1="328" y1="163.5" x2="321" y2="163.5"/><line class="cls-11" x1="324.5" y1="128" x2="324.5" y2="163"/><line class="cls-11" x1="365.5" y1="96" x2="365.5" y2="89"/><line class="cls-11" x1="357.5" y1="96" x2="357.5" y2="89"/><line class="cls-11" x1="365.5" y1="92.5" x2="357" y2="92.5"/><line class="cls-11" x1="441.5" y1="96" x2="441.5" y2="89"/><line class="cls-11" x1="433.5" y1="96" x2="433.5" y2="89"/><line class="cls-11" x1="441.5" y1="92.5" x2="433" y2="92.5"/><line class="cls-11" x1="517.5" y1="96" x2="517.5" y2="89"/><line class="cls-11" x1="509.5" y1="96" x2="509.5" y2="89"/><line class="cls-11" x1="517.5" y1="92.5" x2="509" y2="92.5"/><rect class="cls-5" x="138" y="248" width="32" height="7"/><line class="cls-12" x1="128.5" y1="21" x2="128.5" y2="372"/><line class="cls-12" x1="621.5" y1="21" x2="621.5" y2="372"/><line class="cls-3" x1="124" y1="164.5" x2="126" y2="164.5"/><line class="cls-4" x1="127.99" y1="164.5" x2="623" y2="164.5"/><line class="cls-3" x1="624" y1="164.5" x2="626" y2="164.5"/><rect class="cls-5" x="138" y="130" width="22" height="7"/><rect class="cls-5" x="138" y="165" width="69" height="8"/><rect class="cls-5" x="138" y="283" width="69" height="8"/><rect class="cls-5" x="214" y="248" width="32" height="7"/><rect class="cls-5" x="138.5" y="61.5" width="66" height="66" rx="2.5" ry="2.5"/><path class="cls-6" d="M202,62a2,2,0,0,1,2,2v61a2,2,0,0,1-2,2H141a2,2,0,0,1-2-2V64a2,2,0,0,1,2-2h61m0-1H141a3,3,0,0,0-3,3v61a3,3,0,0,0,3,3h61a3,3,0,0,0,3-3V64a3,3,0,0,0-3-3Z"/><rect class="cls-5" x="214.5" y="178.5" width="32" height="32" rx="2.5" ry="2.5"/><path class="cls-6" d="M244,179a2,2,0,0,1,2,2v27a2,2,0,0,1-2,2H217a2,2,0,0,1-2-2V181a2,2,0,0,1,2-2h27m0-1H217a3,3,0,0,0-3,3v27a3,3,0,0,0,3,3h27a3,3,0,0,0,3-3V181a3,3,0,0,0-3-3Z"/><rect class="cls-5" x="248.5" y="178.5" width="32" height="32" rx="2.5" ry="2.5"/><path class="cls-6" d="M278,179a2,2,0,0,1,2,2v27a2,2,0,0,1-2,2H251a2,2,0,0,1-2-2V181a2,2,0,0,1,2-2h27m0-1H251a3,3,0,0,0-3,3v27a3,3,0,0,0,3,3h27a3,3,0,0,0,3-3V181a3,3,0,0,0-3-3Z"/><rect class="cls-5" x="214.5" y="212.5" width="32" height="32" rx="2.5" ry="2.5"/><path class="cls-6" d="M244,213a2,2,0,0,1,2,2v27a2,2,0,0,1-2,2H217a2,2,0,0,1-2-2V215a2,2,0,0,1,2-2h27m0-1H217a3,3,0,0,0-3,3v27a3,3,0,0,0,3,3h27a3,3,0,0,0,3-3V215a3,3,0,0,0-3-3Z"/><rect class="cls-5" x="248.5" y="212.5" width="32" height="32" rx="2.5" ry="2.5"/><path class="cls-6" d="M278,213a2,2,0,0,1,2,2v27a2,2,0,0,1-2,2H251a2,2,0,0,1-2-2V215a2,2,0,0,1,2-2h27m0-1H251a3,3,0,0,0-3,3v27a3,3,0,0,0,3,3h27a3,3,0,0,0,3-3V215a3,3,0,0,0-3-3Z"/><rect class="cls-5" x="214.5" y="296.5" width="32" height="32" rx="2.5" ry="2.5"/><path class="cls-6" d="M244,297a2,2,0,0,1,2,2v27a2,2,0,0,1-2,2H217a2,2,0,0,1-2-2V299a2,2,0,0,1,2-2h27m0-1H217a3,3,0,0,0-3,3v27a3,3,0,0,0,3,3h27a3,3,0,0,0,3-3V299a3,3,0,0,0-3-3Z"/><rect class="cls-5" x="248.5" y="296.5" width="32" height="32" rx="2.5" ry="2.5"/><path class="cls-6" d="M278,297a2,2,0,0,1,2,2v27a2,2,0,0,1-2,2H251a2,2,0,0,1-2-2V299a2,2,0,0,1,2-2h27m0-1H251a3,3,0,0,0-3,3v27a3,3,0,0,0,3,3h27a3,3,0,0,0,3-3V299a3,3,0,0,0-3-3Z"/><rect class="cls-5" x="214.5" y="330.5" width="32" height="32" rx="2.5" ry="2.5"/><path class="cls-6" d="M244,331a2,2,0,0,1,2,2v27a2,2,0,0,1-2,2H217a2,2,0,0,1-2-2V333a2,2,0,0,1,2-2h27m0-1H217a3,3,0,0,0-3,3v27a3,3,0,0,0,3,3h27a3,3,0,0,0,3-3V333a3,3,0,0,0-3-3Z"/><rect class="cls-5" x="248.5" y="330.5" width="32" height="32" rx="2.5" ry="2.5"/><path class="cls-6" d="M278,331a2,2,0,0,1,2,2v27a2,2,0,0,1-2,2H251a2,2,0,0,1-2-2V333a2,2,0,0,1,2-2h27m0-1H251a3,3,0,0,0-3,3v27a3,3,0,0,0,3,3h27a3,3,0,0,0,3-3V333a3,3,0,0,0-3-3Z"/><rect class="cls-5" x="138.5" y="296.5" width="66" height="66" rx="2.5" ry="2.5"/><path class="cls-6" d="M202,297a2,2,0,0,1,2,2v61a2,2,0,0,1-2,2H141a2,2,0,0,1-2-2V299a2,2,0,0,1,2-2h61m0-1H141a3,3,0,0,0-3,3v61a3,3,0,0,0,3,3h61a3,3,0,0,0,3-3V299a3,3,0,0,0-3-3Z"/><rect class="cls-5" x="290.5" y="296.5" width="66" height="66" rx="2.5" ry="2.5"/><path class="cls-6" d="M354,297a2,2,0,0,1,2,2v61a2,2,0,0,1-2,2H293a2,2,0,0,1-2-2V299a2,2,0,0,1,2-2h61m0-1H293a3,3,0,0,0-3,3v61a3,3,0,0,0,3,3h61a3,3,0,0,0,3-3V299a3,3,0,0,0-3-3Z"/><rect class="cls-6" x="124" y="343" width="502" height="29"/><circle class="cls-10" cx="308.5" cy="352.97" r="6"/><rect class="cls-5" x="320" y="351" width="18" height="4"/><rect class="cls-5" x="214" y="351" width="18" height="4"/><polygon class="cls-10" points="203.38 347.26 204.8 351.62 209.38 351.62 205.68 354.31 207.09 358.67 203.38 355.98 199.68 358.67 201.09 354.31 197.38 351.62 201.97 351.62 203.38 347.26"/><rect class="cls-10" x="427" y="351" width="18" height="4"/><polygon class="cls-10" points="409.76 358.96 415.67 346.96 421.57 358.96 409.76 358.96"/><rect class="cls-10" x="536" y="351" width="18" height="4"/><polygon class="cls-10" points="528.27 346.96 521.34 346.96 517.88 352.96 521.34 358.96 528.27 358.96 531.73 352.96 528.27 346.96"/><line class="cls-3" x1="124" y1="342.5" x2="126" y2="342.5"/><line class="cls-4" x1="127.99" y1="342.5" x2="623" y2="342.5"/><line class="cls-3" x1="624" y1="342.5" x2="626" y2="342.5"/><g class="cls-13"><line class="cls-3" x1="2.18" y1="514.82" x2="312.82" y2="205.91"/><line class="cls-14" x1="5.65" y1="515.3" x2="316.29" y2="206.39"/><line class="cls-15" x1="9.12" y1="515.78" x2="319.76" y2="206.87"/><line class="cls-16" x1="12.59" y1="516.26" x2="323.23" y2="207.35"/><line class="cls-17" x1="16.06" y1="516.73" x2="326.7" y2="207.83"/><line class="cls-18" x1="19.53" y1="517.21" x2="330.17" y2="208.31"/><line class="cls-19" x1="23" y1="517.69" x2="333.64" y2="208.79"/><line class="cls-20" x1="26.47" y1="518.17" x2="337.11" y2="209.27"/><line class="cls-21" x1="29.94" y1="518.65" x2="340.58" y2="209.75"/><line class="cls-22" x1="33.41" y1="519.13" x2="344.05" y2="210.22"/><line class="cls-23" x1="36.88" y1="519.61" x2="347.52" y2="210.7"/><line class="cls-24" x1="40.35" y1="520.09" x2="350.99" y2="211.18"/><line class="cls-25" x1="43.82" y1="520.57" x2="354.46" y2="211.66"/><line class="cls-26" x1="47.29" y1="521.05" x2="357.94" y2="212.14"/><line class="cls-27" x1="50.76" y1="521.52" x2="361.41" y2="212.62"/><line class="cls-28" x1="54.23" y1="522" x2="364.88" y2="213.1"/><line class="cls-29" x1="57.7" y1="522.48" x2="368.35" y2="213.58"/><line class="cls-30" x1="61.17" y1="522.96" x2="371.82" y2="214.06"/><line class="cls-31" x1="64.65" y1="523.44" x2="375.29" y2="214.53"/><line class="cls-32" x1="68.12" y1="523.92" x2="378.76" y2="215.01"/><line class="cls-33" x1="71.59" y1="524.4" x2="382.23" y2="215.49"/><line class="cls-34" x1="75.06" y1="524.88" x2="385.7" y2="215.97"/><line class="cls-35" x1="78.53" y1="525.36" x2="389.17" y2="216.45"/><line class="cls-36" x1="82" y1="525.83" x2="392.64" y2="216.93"/><line class="cls-37" x1="85.47" y1="526.31" x2="396.11" y2="217.41"/><line class="cls-38" x1="88.94" y1="526.79" x2="399.58" y2="217.89"/><line class="cls-39" x1="92.41" y1="527.27" x2="403.05" y2="218.37"/><line class="cls-40" x1="95.88" y1="527.75" x2="406.52" y2="218.84"/><line class="cls-41" x1="99.35" y1="528.23" x2="409.99" y2="219.32"/><line class="cls-42" x1="102.82" y1="528.71" x2="413.46" y2="219.8"/><line class="cls-43" x1="106.29" y1="529.19" x2="416.93" y2="220.28"/><line class="cls-44" x1="109.76" y1="529.67" x2="420.4" y2="220.76"/><line class="cls-45" x1="113.23" y1="530.15" x2="423.87" y2="221.24"/><line class="cls-46" x1="116.7" y1="530.62" x2="427.34" y2="221.72"/><line class="cls-47" x1="120.17" y1="531.1" x2="430.81" y2="222.2"/><line class="cls-48" x1="123.64" y1="531.58" x2="434.28" y2="222.68"/><line class="cls-49" x1="127.11" y1="532.06" x2="437.75" y2="223.16"/><line class="cls-50" x1="130.58" y1="532.54" x2="441.22" y2="223.63"/><line class="cls-51" x1="134.05" y1="533.02" x2="444.69" y2="224.11"/><line class="cls-52" x1="137.52" y1="533.5" x2="448.16" y2="224.59"/><line class="cls-53" x1="140.99" y1="533.98" x2="451.63" y2="225.07"/><line class="cls-54" x1="144.46" y1="534.46" x2="455.1" y2="225.55"/><line class="cls-55" x1="147.93" y1="534.93" x2="458.58" y2="226.03"/><line class="cls-56" x1="151.4" y1="535.41" x2="462.05" y2="226.51"/><line class="cls-57" x1="154.87" y1="535.89" x2="465.52" y2="226.99"/><line class="cls-58" x1="158.34" y1="536.37" x2="468.99" y2="227.47"/><line class="cls-59" x1="161.81" y1="536.85" x2="472.46" y2="227.94"/><line class="cls-60" x1="165.29" y1="537.33" x2="475.93" y2="228.42"/><line class="cls-61" x1="168.76" y1="537.81" x2="479.4" y2="228.9"/><line class="cls-62" x1="172.23" y1="538.29" x2="482.87" y2="229.38"/><line class="cls-63" x1="175.7" y1="538.77" x2="486.34" y2="229.86"/><line class="cls-64" x1="179.17" y1="539.24" x2="489.81" y2="230.34"/><line class="cls-65" x1="182.64" y1="539.72" x2="493.28" y2="230.82"/><line class="cls-66" x1="186.11" y1="540.2" x2="496.75" y2="231.3"/><line class="cls-67" x1="189.58" y1="540.68" x2="500.22" y2="231.78"/><line class="cls-68" x1="193.05" y1="541.16" x2="503.69" y2="232.26"/><line class="cls-69" x1="196.52" y1="541.64" x2="507.16" y2="232.73"/><line class="cls-70" x1="199.99" y1="542.12" x2="510.63" y2="233.21"/><line class="cls-71" x1="203.46" y1="542.6" x2="514.1" y2="233.69"/><line class="cls-72" x1="206.93" y1="543.08" x2="517.57" y2="234.17"/><line class="cls-73" x1="210.4" y1="543.56" x2="521.04" y2="234.65"/><line class="cls-74" x1="213.87" y1="544.03" x2="524.51" y2="235.13"/><line class="cls-75" x1="217.34" y1="544.51" x2="527.98" y2="235.61"/><line class="cls-76" x1="220.81" y1="544.99" x2="531.45" y2="236.09"/><line class="cls-77" x1="224.28" y1="545.47" x2="534.92" y2="236.57"/><line class="cls-78" x1="227.75" y1="545.95" x2="538.39" y2="237.04"/><line class="cls-79" x1="231.22" y1="546.43" x2="541.86" y2="237.52"/><line class="cls-80" x1="234.69" y1="546.91" x2="545.33" y2="238"/><line class="cls-81" x1="238.16" y1="547.39" x2="548.8" y2="238.48"/><line class="cls-82" x1="241.63" y1="547.87" x2="552.27" y2="238.96"/><line class="cls-83" x1="245.1" y1="548.34" x2="555.74" y2="239.44"/><line class="cls-84" x1="248.57" y1="548.82" x2="559.22" y2="239.92"/><line class="cls-85" x1="252.04" y1="549.3" x2="562.69" y2="240.4"/><line class="cls-86" x1="255.51" y1="549.78" x2="566.16" y2="240.88"/><line class="cls-87" x1="258.98" y1="550.26" x2="569.63" y2="241.35"/><line class="cls-88" x1="262.45" y1="550.74" x2="573.1" y2="241.83"/><line class="cls-89" x1="265.93" y1="551.22" x2="576.57" y2="242.31"/><line class="cls-90" x1="269.4" y1="551.7" x2="580.04" y2="242.79"/><line class="cls-91" x1="272.87" y1="552.18" x2="583.51" y2="243.27"/><line class="cls-92" x1="276.34" y1="552.65" x2="586.98" y2="243.75"/><line class="cls-93" x1="279.81" y1="553.13" x2="590.45" y2="244.23"/><line class="cls-94" x1="283.28" y1="553.61" x2="593.92" y2="244.71"/><line class="cls-95" x1="286.75" y1="554.09" x2="597.39" y2="245.19"/><line class="cls-96" x1="290.22" y1="554.57" x2="600.86" y2="245.67"/><line class="cls-97" x1="293.69" y1="555.05" x2="604.33" y2="246.14"/><line class="cls-98" x1="297.16" y1="555.53" x2="607.8" y2="246.62"/><line class="cls-99" x1="300.63" y1="556.01" x2="611.27" y2="247.1"/><line class="cls-100" x1="304.1" y1="556.49" x2="614.74" y2="247.58"/><line class="cls-101" x1="307.57" y1="556.97" x2="618.21" y2="248.06"/><line class="cls-102" x1="311.04" y1="557.44" x2="621.68" y2="248.54"/><line class="cls-103" x1="314.51" y1="557.92" x2="625.15" y2="249.02"/><line class="cls-104" x1="317.98" y1="558.4" x2="628.62" y2="249.5"/><line class="cls-105" x1="321.45" y1="558.88" x2="632.09" y2="249.98"/><line class="cls-106" x1="324.92" y1="559.36" x2="635.56" y2="250.45"/><line class="cls-107" x1="328.39" y1="559.84" x2="639.03" y2="250.93"/><line class="cls-108" x1="331.86" y1="560.32" x2="642.5" y2="251.41"/><line class="cls-109" x1="335.33" y1="560.8" x2="645.97" y2="251.89"/><line class="cls-110" x1="338.8" y1="561.28" x2="649.44" y2="252.37"/><line class="cls-111" x1="342.27" y1="561.75" x2="652.91" y2="252.85"/><line class="cls-112" x1="345.74" y1="562.23" x2="656.38" y2="253.33"/><line class="cls-113" x1="349.21" y1="562.71" x2="659.86" y2="253.81"/><line class="cls-114" x1="352.68" y1="563.19" x2="663.33" y2="254.29"/><line class="cls-115" x1="356.15" y1="563.67" x2="666.8" y2="254.76"/><line class="cls-116" x1="359.62" y1="564.15" x2="670.27" y2="255.24"/><line class="cls-117" x1="363.09" y1="564.63" x2="673.74" y2="255.72"/><line class="cls-118" x1="366.57" y1="565.11" x2="677.21" y2="256.2"/><line class="cls-119" x1="370.04" y1="565.59" x2="680.68" y2="256.68"/><line class="cls-120" x1="373.51" y1="566.07" x2="684.15" y2="257.16"/><line class="cls-121" x1="376.98" y1="566.54" x2="687.62" y2="257.64"/><line class="cls-122" x1="380.45" y1="567.02" x2="691.09" y2="258.12"/><line class="cls-123" x1="383.92" y1="567.5" x2="694.56" y2="258.6"/><line class="cls-124" x1="387.39" y1="567.98" x2="698.03" y2="259.08"/></g><g class="cls-8"><rect class="cls-9" x="146.56" y="362.12" width="299.26" height="9.88"/></g><line class="cls-125" x1="309" y1="367" x2="439" y2="367"/><line class="cls-126" x1="146" y1="361.5" x2="445" y2="361.5"/><path class="cls-127" d="M645.89,30.41c-.19-5.62-.74-10.66-3-15.39-3.65-7.5-10.31-11.79-18.19-13.18A80,80,0,0,0,612.22,1c-6-.05-407.49,0-437.69,0s-30.78,0-36.76,0a79.82,79.82,0,0,0-12.44.81C117.45,3.23,110.78,7.52,107.14,15c-2.3,4.73-2.85,9.77-3,15.39-.1,3-.11,5.34-.11,10.42V352.54c0,4.58,0,7.06.1,10,.19,5.62.73,10.66,3,15.39,3.65,7.5,10.31,11.79,18.19,13.18a73.49,73.49,0,0,0,12.4.84l474.49,0a80,80,0,0,0,12.45-.81c7.88-1.39,14.54-5.68,18.19-13.18,2.29-4.73,2.84-9.77,3-15.39ZM618,372H132a8,8,0,0,1-8-8V28.67A7.68,7.68,0,0,1,131.66,21H618a8,8,0,0,1,8,8V364A8,8,0,0,1,618,372Z"/><path class="cls-127" d="M168,0H148a1,1,0,0,0-1,1V1a1,1,0,0,0,1,1H168a1,1,0,0,0,1-1V1a1,1,0,0,0-1-1Z"/><path class="cls-127" d="M194,0H174a1,1,0,0,0-1,1V1a1,1,0,0,0,1,1H194a1,1,0,0,0,1-1V1a1,1,0,0,0-1-1Z"/><path class="cls-127" d="M104,29.68H104a1,1,0,0,0-1,1V54.72a1,1,0,0,0,1,1H104a1,1,0,0,0,1-1V30.64a1,1,0,0,0-1-1Z"/><path class="cls-9" d="M640.86,17c-3.65-7.5-10.32-11.79-18.21-13.18A80.08,80.08,0,0,0,610.19,3H139.81a80.08,80.08,0,0,0-12.46.81C119.46,5.23,112.79,9.52,109.14,17c-2.3,4.73-2.85,9.76-3,15.38-.1,3-.11,5.34-.11,10.42V350.21c0,5.08,0,7.43.11,10.42.18,5.62.73,10.66,3,15.38,3.65,7.5,10.32,11.8,18.21,13.18a77.7,77.7,0,0,0,12.46.81H610.19a77.7,77.7,0,0,0,12.46-.81c7.89-1.38,14.56-5.68,18.21-13.18,2.3-4.72,2.85-9.76,3-15.38V32.4C643.71,26.78,643.16,21.75,640.86,17ZM626,364a8,8,0,0,1-8,8H132a8,8,0,0,1-8-8V28.65A7.68,7.68,0,0,1,131.67,21H618a8,8,0,0,1,8,8Z"/><line class="cls-128" y1="392.5" x2="708" y2="392.5"/><path class="cls-129" d="M125.77,198.84a3.42,3.42,0,1,1-3.42,3.42A3.41,3.41,0,0,1,125.77,198.84Z"/><rect class="cls-127" y="116.61" width="1.31" height="11.93"/><rect class="cls-127" y="168.93" width="0.92" height="22.95"/><rect class="cls-127" y="139.56" width="0.92" height="22.95"/><rect class="cls-130" x="10.1" y="83.56" width="137.69" height="299.26"/><rect class="cls-6" x="11" y="99" width="136" height="40"/><path class="cls-6" d="M147.79,99.06H10.1V84.51c.92-2.55,3-4.62,5.54-4.62H147.79Z"/><g class="cls-131"><line class="cls-3" x1="-228.08" y1="115.59" x2="82.56" y2="-193.31"/><line class="cls-14" x1="-224.61" y1="116.07" x2="86.03" y2="-192.84"/><line class="cls-15" x1="-221.14" y1="116.55" x2="89.5" y2="-192.36"/><line class="cls-16" x1="-217.67" y1="117.03" x2="92.97" y2="-191.88"/><line class="cls-17" x1="-214.2" y1="117.51" x2="96.44" y2="-191.4"/><line class="cls-18" x1="-210.73" y1="117.99" x2="99.91" y2="-190.92"/><line class="cls-19" x1="-207.26" y1="118.46" x2="103.38" y2="-190.44"/><line class="cls-20" x1="-203.79" y1="118.94" x2="106.85" y2="-189.96"/><line class="cls-21" x1="-200.32" y1="119.42" x2="110.32" y2="-189.48"/><line class="cls-22" x1="-196.85" y1="119.9" x2="113.79" y2="-189"/><line class="cls-23" x1="-193.38" y1="120.38" x2="117.26" y2="-188.53"/><line class="cls-24" x1="-189.91" y1="120.86" x2="120.73" y2="-188.05"/><line class="cls-25" x1="-186.44" y1="121.34" x2="124.21" y2="-187.57"/><line class="cls-26" x1="-182.97" y1="121.82" x2="127.68" y2="-187.09"/><line class="cls-27" x1="-179.5" y1="122.3" x2="131.15" y2="-186.61"/><line class="cls-28" x1="-176.03" y1="122.77" x2="134.62" y2="-186.13"/><line class="cls-29" x1="-172.56" y1="123.25" x2="138.09" y2="-185.65"/><line class="cls-30" x1="-169.08" y1="123.73" x2="141.56" y2="-185.17"/><line class="cls-31" x1="-165.61" y1="124.21" x2="145.03" y2="-184.69"/><line class="cls-32" x1="-162.14" y1="124.69" x2="148.5" y2="-184.22"/><line class="cls-33" x1="-158.67" y1="125.17" x2="151.97" y2="-183.74"/><line class="cls-34" x1="-155.2" y1="125.65" x2="155.44" y2="-183.26"/><line class="cls-35" x1="-151.73" y1="126.13" x2="158.91" y2="-182.78"/><line class="cls-36" x1="-148.26" y1="126.61" x2="162.38" y2="-182.3"/><line class="cls-37" x1="-144.79" y1="127.09" x2="165.85" y2="-181.82"/><line class="cls-38" x1="-141.32" y1="127.56" x2="169.32" y2="-181.34"/><line class="cls-39" x1="-137.85" y1="128.04" x2="172.79" y2="-180.86"/><line class="cls-40" x1="-134.38" y1="128.52" x2="176.26" y2="-180.38"/><line class="cls-41" x1="-130.91" y1="129" x2="179.73" y2="-179.9"/><line class="cls-42" x1="-127.44" y1="129.48" x2="183.2" y2="-179.43"/><line class="cls-43" x1="-123.97" y1="129.96" x2="186.67" y2="-178.95"/><line class="cls-44" x1="-120.5" y1="130.44" x2="190.14" y2="-178.47"/><line class="cls-45" x1="-117.03" y1="130.92" x2="193.61" y2="-177.99"/><line class="cls-46" x1="-113.56" y1="131.4" x2="197.08" y2="-177.51"/><line class="cls-47" x1="-110.09" y1="131.87" x2="200.55" y2="-177.03"/><line class="cls-48" x1="-106.62" y1="132.35" x2="204.02" y2="-176.55"/><line class="cls-49" x1="-103.15" y1="132.83" x2="207.49" y2="-176.07"/><line class="cls-50" x1="-99.68" y1="133.31" x2="210.96" y2="-175.59"/><line class="cls-51" x1="-96.21" y1="133.79" x2="214.43" y2="-175.12"/><line class="cls-52" x1="-92.74" y1="134.27" x2="217.9" y2="-174.64"/><line class="cls-53" x1="-89.27" y1="134.75" x2="221.37" y2="-174.16"/><line class="cls-54" x1="-85.8" y1="135.23" x2="224.85" y2="-173.68"/><line class="cls-55" x1="-82.33" y1="135.71" x2="228.32" y2="-173.2"/><line class="cls-56" x1="-78.86" y1="136.18" x2="231.79" y2="-172.72"/><line class="cls-57" x1="-75.39" y1="136.66" x2="235.26" y2="-172.24"/><line class="cls-58" x1="-71.92" y1="137.14" x2="238.73" y2="-171.76"/><line class="cls-59" x1="-68.44" y1="137.62" x2="242.2" y2="-171.28"/><line class="cls-60" x1="-64.97" y1="138.1" x2="245.67" y2="-170.8"/><line class="cls-61" x1="-61.5" y1="138.58" x2="249.14" y2="-170.33"/><line class="cls-62" x1="-58.03" y1="139.06" x2="252.61" y2="-169.85"/><line class="cls-63" x1="-54.56" y1="139.54" x2="256.08" y2="-169.37"/><line class="cls-64" x1="-51.09" y1="140.02" x2="259.55" y2="-168.89"/><line class="cls-65" x1="-47.62" y1="140.5" x2="263.02" y2="-168.41"/><line class="cls-66" x1="-44.15" y1="140.97" x2="266.49" y2="-167.93"/><line class="cls-67" x1="-40.68" y1="141.45" x2="269.96" y2="-167.45"/><line class="cls-68" x1="-37.21" y1="141.93" x2="273.43" y2="-166.97"/><line class="cls-69" x1="-33.74" y1="142.41" x2="276.9" y2="-166.49"/><line class="cls-70" x1="-30.27" y1="142.89" x2="280.37" y2="-166.02"/><line class="cls-71" x1="-26.8" y1="143.37" x2="283.84" y2="-165.54"/><line class="cls-72" x1="-23.33" y1="143.85" x2="287.31" y2="-165.06"/><line class="cls-73" x1="-19.86" y1="144.33" x2="290.78" y2="-164.58"/><line class="cls-74" x1="-16.39" y1="144.81" x2="294.25" y2="-164.1"/><line class="cls-75" x1="-12.92" y1="145.28" x2="297.72" y2="-163.62"/><line class="cls-76" x1="-9.45" y1="145.76" x2="301.19" y2="-163.14"/><line class="cls-77" x1="-5.98" y1="146.24" x2="304.66" y2="-162.66"/><line class="cls-78" x1="-2.51" y1="146.72" x2="308.13" y2="-162.18"/><line class="cls-79" x1="0.96" y1="147.2" x2="311.6" y2="-161.71"/><line class="cls-80" x1="4.43" y1="147.68" x2="315.07" y2="-161.23"/><line class="cls-81" x1="7.9" y1="148.16" x2="318.54" y2="-160.75"/><line class="cls-82" x1="11.37" y1="148.64" x2="322.01" y2="-160.27"/><line class="cls-83" x1="14.84" y1="149.12" x2="325.49" y2="-159.79"/><line class="cls-84" x1="18.31" y1="149.59" x2="328.96" y2="-159.31"/><line class="cls-85" x1="21.78" y1="150.07" x2="332.43" y2="-158.83"/><line class="cls-86" x1="25.25" y1="150.55" x2="335.9" y2="-158.35"/><line class="cls-87" x1="28.72" y1="151.03" x2="339.37" y2="-157.87"/><line class="cls-88" x1="32.2" y1="151.51" x2="342.84" y2="-157.39"/><line class="cls-89" x1="35.67" y1="151.99" x2="346.31" y2="-156.92"/><line class="cls-90" x1="39.14" y1="152.47" x2="349.78" y2="-156.44"/><line class="cls-91" x1="42.61" y1="152.95" x2="353.25" y2="-155.96"/><line class="cls-92" x1="46.08" y1="153.43" x2="356.72" y2="-155.48"/><line class="cls-93" x1="49.55" y1="153.91" x2="360.19" y2="-155"/><line class="cls-94" x1="53.02" y1="154.38" x2="363.66" y2="-154.52"/><line class="cls-95" x1="56.49" y1="154.86" x2="367.13" y2="-154.04"/><line class="cls-96" x1="59.96" y1="155.34" x2="370.6" y2="-153.56"/><line class="cls-97" x1="63.43" y1="155.82" x2="374.07" y2="-153.08"/><line class="cls-98" x1="66.9" y1="156.3" x2="377.54" y2="-152.61"/><line class="cls-99" x1="70.37" y1="156.78" x2="381.01" y2="-152.13"/><line class="cls-100" x1="73.84" y1="157.26" x2="384.48" y2="-151.65"/><line class="cls-101" x1="77.31" y1="157.74" x2="387.95" y2="-151.17"/><line class="cls-102" x1="80.78" y1="158.22" x2="391.42" y2="-150.69"/><line class="cls-103" x1="84.25" y1="158.69" x2="394.89" y2="-150.21"/><line class="cls-104" x1="87.72" y1="159.17" x2="398.36" y2="-149.73"/><line class="cls-105" x1="91.19" y1="159.65" x2="401.83" y2="-149.25"/><line class="cls-106" x1="94.66" y1="160.13" x2="405.3" y2="-148.77"/><line class="cls-107" x1="98.13" y1="160.61" x2="408.77" y2="-148.3"/><line class="cls-108" x1="101.6" y1="161.09" x2="412.24" y2="-147.82"/><line class="cls-109" x1="105.07" y1="161.57" x2="415.71" y2="-147.34"/><line class="cls-110" x1="108.54" y1="162.05" x2="419.18" y2="-146.86"/><line class="cls-111" x1="112.01" y1="162.53" x2="422.65" y2="-146.38"/><line class="cls-112" x1="115.48" y1="163.01" x2="426.13" y2="-145.9"/><line class="cls-113" x1="118.95" y1="163.48" x2="429.6" y2="-145.42"/><line class="cls-114" x1="122.42" y1="163.96" x2="433.07" y2="-144.94"/><line class="cls-115" x1="125.89" y1="164.44" x2="436.54" y2="-144.46"/><line class="cls-116" x1="129.36" y1="164.92" x2="440.01" y2="-143.98"/><line class="cls-117" x1="132.84" y1="165.4" x2="443.48" y2="-143.51"/><line class="cls-118" x1="136.31" y1="165.88" x2="446.95" y2="-143.03"/><line class="cls-119" x1="139.78" y1="166.36" x2="450.42" y2="-142.55"/><line class="cls-120" x1="143.25" y1="166.84" x2="453.89" y2="-142.07"/><line class="cls-121" x1="146.72" y1="167.32" x2="457.36" y2="-141.59"/><line class="cls-122" x1="150.19" y1="167.79" x2="460.83" y2="-141.11"/><line class="cls-123" x1="153.66" y1="168.27" x2="464.3" y2="-140.63"/><line class="cls-124" x1="157.13" y1="168.75" x2="467.77" y2="-140.15"/></g><g class="cls-8"><rect class="cls-9" x="9.18" y="360.79" width="139.53" height="22.03"/></g><path class="cls-6" d="M147.79,382.72H10.1V359c.92-2.55,3-4.62,5.54-4.62H147.79Z"/><g class="cls-132"><line class="cls-3" x1="-118.38" y1="426.32" x2="192.26" y2="117.42"/><line class="cls-14" x1="-114.91" y1="426.8" x2="195.73" y2="117.9"/><line class="cls-15" x1="-111.44" y1="427.28" x2="199.2" y2="118.38"/><line class="cls-16" x1="-107.97" y1="427.76" x2="202.67" y2="118.85"/><line class="cls-17" x1="-104.5" y1="428.24" x2="206.14" y2="119.33"/><line class="cls-18" x1="-101.03" y1="428.72" x2="209.61" y2="119.81"/><line class="cls-19" x1="-97.56" y1="429.2" x2="213.08" y2="120.29"/><line class="cls-20" x1="-94.09" y1="429.68" x2="216.55" y2="120.77"/><line class="cls-21" x1="-90.62" y1="430.15" x2="220.02" y2="121.25"/><line class="cls-22" x1="-87.15" y1="430.63" x2="223.49" y2="121.73"/><line class="cls-23" x1="-83.68" y1="431.11" x2="226.96" y2="122.21"/><line class="cls-24" x1="-80.21" y1="431.59" x2="230.43" y2="122.69"/><line class="cls-25" x1="-76.74" y1="432.07" x2="233.9" y2="123.16"/><line class="cls-26" x1="-73.27" y1="432.55" x2="237.37" y2="123.64"/><line class="cls-27" x1="-69.8" y1="433.03" x2="240.84" y2="124.12"/><line class="cls-28" x1="-66.33" y1="433.51" x2="244.31" y2="124.6"/><line class="cls-29" x1="-62.86" y1="433.99" x2="247.78" y2="125.08"/><line class="cls-30" x1="-59.39" y1="434.46" x2="251.25" y2="125.56"/><line class="cls-31" x1="-55.92" y1="434.94" x2="254.72" y2="126.04"/><line class="cls-32" x1="-52.45" y1="435.42" x2="258.19" y2="126.52"/><line class="cls-33" x1="-48.98" y1="435.9" x2="261.67" y2="127"/><line class="cls-34" x1="-45.51" y1="436.38" x2="265.14" y2="127.48"/><line class="cls-35" x1="-42.04" y1="436.86" x2="268.61" y2="127.95"/><line class="cls-36" x1="-38.57" y1="437.34" x2="272.08" y2="128.43"/><line class="cls-37" x1="-35.1" y1="437.82" x2="275.55" y2="128.91"/><line class="cls-38" x1="-31.62" y1="438.3" x2="279.02" y2="129.39"/><line class="cls-39" x1="-28.15" y1="438.78" x2="282.49" y2="129.87"/><line class="cls-40" x1="-24.68" y1="439.25" x2="285.96" y2="130.35"/><line class="cls-41" x1="-21.21" y1="439.73" x2="289.43" y2="130.83"/><line class="cls-42" x1="-17.74" y1="440.21" x2="292.9" y2="131.31"/><line class="cls-43" x1="-14.27" y1="440.69" x2="296.37" y2="131.79"/><line class="cls-44" x1="-10.8" y1="441.17" x2="299.84" y2="132.26"/><line class="cls-45" x1="-7.33" y1="441.65" x2="303.31" y2="132.74"/><line class="cls-46" x1="-3.86" y1="442.13" x2="306.78" y2="133.22"/><line class="cls-47" x1="-0.39" y1="442.61" x2="310.25" y2="133.7"/><line class="cls-48" x1="3.08" y1="443.09" x2="313.72" y2="134.18"/><line class="cls-49" x1="6.55" y1="443.56" x2="317.19" y2="134.66"/><line class="cls-50" x1="10.02" y1="444.04" x2="320.66" y2="135.14"/><line class="cls-51" x1="13.49" y1="444.52" x2="324.13" y2="135.62"/><line class="cls-52" x1="16.96" y1="445" x2="327.6" y2="136.1"/><line class="cls-53" x1="20.43" y1="445.48" x2="331.07" y2="136.57"/><line class="cls-54" x1="23.9" y1="445.96" x2="334.54" y2="137.05"/><line class="cls-55" x1="27.37" y1="446.44" x2="338.01" y2="137.53"/><line class="cls-56" x1="30.84" y1="446.92" x2="341.48" y2="138.01"/><line class="cls-57" x1="34.31" y1="447.4" x2="344.95" y2="138.49"/><line class="cls-58" x1="37.78" y1="447.88" x2="348.42" y2="138.97"/><line class="cls-59" x1="41.25" y1="448.35" x2="351.89" y2="139.45"/><line class="cls-60" x1="44.72" y1="448.83" x2="355.36" y2="139.93"/><line class="cls-61" x1="48.19" y1="449.31" x2="358.83" y2="140.41"/><line class="cls-62" x1="51.66" y1="449.79" x2="362.31" y2="140.89"/><line class="cls-63" x1="55.13" y1="450.27" x2="365.78" y2="141.36"/><line class="cls-64" x1="58.6" y1="450.75" x2="369.25" y2="141.84"/><line class="cls-65" x1="62.07" y1="451.23" x2="372.72" y2="142.32"/><line class="cls-66" x1="65.54" y1="451.71" x2="376.19" y2="142.8"/><line class="cls-67" x1="69.02" y1="452.19" x2="379.66" y2="143.28"/><line class="cls-68" x1="72.49" y1="452.66" x2="383.13" y2="143.76"/><line class="cls-69" x1="75.96" y1="453.14" x2="386.6" y2="144.24"/><line class="cls-70" x1="79.43" y1="453.62" x2="390.07" y2="144.72"/><line class="cls-71" x1="82.9" y1="454.1" x2="393.54" y2="145.2"/><line class="cls-72" x1="86.37" y1="454.58" x2="397.01" y2="145.67"/><line class="cls-73" x1="89.84" y1="455.06" x2="400.48" y2="146.15"/><line class="cls-74" x1="93.31" y1="455.54" x2="403.95" y2="146.63"/><line class="cls-75" x1="96.78" y1="456.02" x2="407.42" y2="147.11"/><line class="cls-76" x1="100.25" y1="456.5" x2="410.89" y2="147.59"/><line class="cls-77" x1="103.72" y1="456.97" x2="414.36" y2="148.07"/><line class="cls-78" x1="107.19" y1="457.45" x2="417.83" y2="148.55"/><line class="cls-79" x1="110.66" y1="457.93" x2="421.3" y2="149.03"/><line class="cls-80" x1="114.13" y1="458.41" x2="424.77" y2="149.51"/><line class="cls-81" x1="117.6" y1="458.89" x2="428.24" y2="149.99"/><line class="cls-82" x1="121.07" y1="459.37" x2="431.71" y2="150.46"/><line class="cls-83" x1="124.54" y1="459.85" x2="435.18" y2="150.94"/><line class="cls-84" x1="128.01" y1="460.33" x2="438.65" y2="151.42"/><line class="cls-85" x1="131.48" y1="460.81" x2="442.12" y2="151.9"/><line class="cls-86" x1="134.95" y1="461.29" x2="445.59" y2="152.38"/><line class="cls-87" x1="138.42" y1="461.76" x2="449.06" y2="152.86"/><line class="cls-88" x1="141.89" y1="462.24" x2="452.53" y2="153.34"/><line class="cls-89" x1="145.36" y1="462.72" x2="456" y2="153.82"/><line class="cls-90" x1="148.83" y1="463.2" x2="459.47" y2="154.3"/><line class="cls-91" x1="152.3" y1="463.68" x2="462.95" y2="154.77"/><line class="cls-92" x1="155.77" y1="464.16" x2="466.42" y2="155.25"/><line class="cls-93" x1="159.24" y1="464.64" x2="469.89" y2="155.73"/><line class="cls-94" x1="162.71" y1="465.12" x2="473.36" y2="156.21"/><line class="cls-95" x1="166.18" y1="465.6" x2="476.83" y2="156.69"/><line class="cls-96" x1="169.66" y1="466.07" x2="480.3" y2="157.17"/><line class="cls-97" x1="173.13" y1="466.55" x2="483.77" y2="157.65"/><line class="cls-98" x1="176.6" y1="467.03" x2="487.24" y2="158.13"/><line class="cls-99" x1="180.07" y1="467.51" x2="490.71" y2="158.61"/><line class="cls-100" x1="183.54" y1="467.99" x2="494.18" y2="159.08"/><line class="cls-101" x1="187.01" y1="468.47" x2="497.65" y2="159.56"/><line class="cls-102" x1="190.48" y1="468.95" x2="501.12" y2="160.04"/><line class="cls-103" x1="193.95" y1="469.43" x2="504.59" y2="160.52"/><line class="cls-104" x1="197.42" y1="469.91" x2="508.06" y2="161"/><line class="cls-105" x1="200.89" y1="470.38" x2="511.53" y2="161.48"/><line class="cls-106" x1="204.36" y1="470.86" x2="515" y2="161.96"/><line class="cls-107" x1="207.83" y1="471.34" x2="518.47" y2="162.44"/><line class="cls-108" x1="211.3" y1="471.82" x2="521.94" y2="162.92"/><line class="cls-109" x1="214.77" y1="472.3" x2="525.41" y2="163.4"/><line class="cls-110" x1="218.24" y1="472.78" x2="528.88" y2="163.87"/><line class="cls-111" x1="221.71" y1="473.26" x2="532.35" y2="164.35"/><line class="cls-112" x1="225.18" y1="473.74" x2="535.82" y2="164.83"/><line class="cls-113" x1="228.65" y1="474.22" x2="539.29" y2="165.31"/><line class="cls-114" x1="232.12" y1="474.7" x2="542.76" y2="165.79"/><line class="cls-115" x1="235.59" y1="475.17" x2="546.23" y2="166.27"/><line class="cls-116" x1="239.06" y1="475.65" x2="549.7" y2="166.75"/><line class="cls-117" x1="242.53" y1="476.13" x2="553.17" y2="167.23"/><line class="cls-118" x1="246" y1="476.61" x2="556.64" y2="167.71"/><line class="cls-119" x1="249.47" y1="477.09" x2="560.11" y2="168.18"/><line class="cls-120" x1="252.94" y1="477.57" x2="563.59" y2="168.66"/><line class="cls-121" x1="256.41" y1="478.05" x2="567.06" y2="169.14"/><line class="cls-122" x1="259.88" y1="478.53" x2="570.53" y2="169.62"/><line class="cls-123" x1="263.35" y1="479.01" x2="574" y2="170.1"/><line class="cls-124" x1="266.82" y1="479.48" x2="577.47" y2="170.58"/></g><path class="cls-5" d="M17.5,353.5V298a2.5,2.5,0,0,1,2.5-2.5H73a2.5,2.5,0,0,1,2.5,2.5v55.5Z"/><path class="cls-6" d="M73,296a2,2,0,0,1,2,2v55H18V298a2,2,0,0,1,2-2H73m0-1H20a3,3,0,0,0-3,3v56H76V298a3,3,0,0,0-3-3Z"/><path class="cls-5" d="M82.5,353.5V298a2.5,2.5,0,0,1,2.5-2.5h53a2.5,2.5,0,0,1,2.5,2.5v55.5Z"/><path class="cls-6" d="M138,296a2,2,0,0,1,2,2v55H83V298a2,2,0,0,1,2-2h53m0-1H85a3,3,0,0,0-3,3v56h59V298a3,3,0,0,0-3-3Z"/><polygon class="cls-6" points="11.04 353 147 353 147 370 11 370 11.04 353"/><path class="cls-133" d="M134.58,82A14.43,14.43,0,0,1,149,96.43V369.57A14.43,14.43,0,0,1,134.58,384H23.42A14.43,14.43,0,0,1,9,369.57V96.43A14.43,14.43,0,0,1,23.42,82H134.58m0-10H23.42A24.45,24.45,0,0,0-1,96.43V369.57A24.45,24.45,0,0,0,23.42,394H134.58A24.45,24.45,0,0,0,159,369.57V96.43A24.45,24.45,0,0,0,134.58,72Z"/><path class="cls-127" d="M134.58,82A14.43,14.43,0,0,1,149,96.43V369.57A14.43,14.43,0,0,1,134.58,384H23.42A14.43,14.43,0,0,1,9,369.57V96.43A14.43,14.43,0,0,1,23.42,82H134.58m0-9H23.42A23.45,23.45,0,0,0,0,96.43V369.57A23.45,23.45,0,0,0,23.42,393H134.58A23.45,23.45,0,0,0,158,369.57V96.43A23.45,23.45,0,0,0,134.58,73Z"/><g class="cls-8"><rect class="cls-9" x="11" y="84" width="4" height="295"/></g><g class="cls-8"><rect class="cls-9" x="143" y="84" width="4" height="296"/></g><g class="cls-8"><rect class="cls-9" x="10" y="83" width="138" height="16"/></g><g class="cls-8"><rect class="cls-9" x="10.1" y="369.97" width="137.7" height="12.85"/></g><path class="cls-9" d="M132.88,84A14.13,14.13,0,0,1,147,98.12V367.88A14.13,14.13,0,0,1,132.88,382H25.12A14.13,14.13,0,0,1,11,367.88V98.12A14.13,14.13,0,0,1,25.12,84H132.88m0-8H25.12A22.12,22.12,0,0,0,3,98.12V367.88A22.12,22.12,0,0,0,25.12,390H132.88A22.12,22.12,0,0,0,155,367.88V98.12A22.12,22.12,0,0,0,132.88,76Z"/><path class="cls-9" d="M120.08,77.14H37.64v6.42c1.09,0,1.56-.18,2.43.59A3.38,3.38,0,0,1,41.13,87a6.45,6.45,0,0,0,.22,1.92,8.44,8.44,0,0,0,2.23,3.61,6.7,6.7,0,0,0,3.32,1.83,18.89,18.89,0,0,0,3.93.22h56a18.89,18.89,0,0,0,3.93-.22,6.7,6.7,0,0,0,3.32-1.83,8.44,8.44,0,0,0,2.23-3.61,6.45,6.45,0,0,0,.22-1.92,3.41,3.41,0,0,1,1.06-2.85c.87-.77,1.41-.59,2.5-.59Z"/><line class="cls-3" x1="11" y1="352.5" x2="13" y2="352.5"/><line class="cls-134" x1="14.97" y1="352.5" x2="144.02" y2="352.5"/><line class="cls-3" x1="145" y1="352.5" x2="147" y2="352.5"/><line class="cls-125" x1="55" y1="378" x2="103" y2="378"/><rect class="cls-5" x="16" y="120" width="28" height="11"/><rect class="cls-10" x="16" y="99" width="14" height="6"/><rect class="cls-10" x="128" y="99" width="14" height="6"/><rect class="cls-3" x="11.5" y="98.5" width="135" height="271"/><circle class="cls-10" cx="62" cy="359" r="4"/><rect class="cls-5" x="54" y="365" width="17" height="2"/><rect class="cls-5" x="20" y="365" width="17" height="2"/><polygon class="cls-10" points="28.46 354.92 29.46 358 32.7 358 30.08 359.9 31.08 362.98 28.46 361.08 25.84 362.98 26.84 359.9 24.22 358 27.46 358 28.46 354.92"/><rect class="cls-5" x="87" y="365" width="17" height="2"/><polygon class="cls-10" points="91.77 363 95.78 354.86 99.78 363 91.77 363"/><rect class="cls-5" x="121" y="365" width="17" height="2"/><polygon class="cls-10" points="131.59 355 126.97 355 124.66 359 126.97 363 131.59 363 133.9 359 131.59 355"/><rect class="cls-5" x="17" y="205" width="24" height="6"/><rect class="cls-5" x="17.5" y="144.5" width="58" height="58" rx="2.5" ry="2.5"/><path class="cls-6" d="M73,145a2,2,0,0,1,2,2v53a2,2,0,0,1-2,2H20a2,2,0,0,1-2-2V147a2,2,0,0,1,2-2H73m0-1H20a3,3,0,0,0-3,3v53a3,3,0,0,0,3,3H73a3,3,0,0,0,3-3V147a3,3,0,0,0-3-3Z"/><rect class="cls-5" x="82" y="205" width="24" height="6"/><rect class="cls-5" x="82.5" y="144.5" width="58" height="58" rx="2.5" ry="2.5"/><path class="cls-6" d="M138,145a2,2,0,0,1,2,2v53a2,2,0,0,1-2,2H85a2,2,0,0,1-2-2V147a2,2,0,0,1,2-2h53m0-1H85a3,3,0,0,0-3,3v53a3,3,0,0,0,3,3h53a3,3,0,0,0,3-3V147a3,3,0,0,0-3-3Z"/><rect class="cls-5" x="17" y="280" width="24" height="6"/><rect class="cls-5" x="17.5" y="219.5" width="58" height="58" rx="2.5" ry="2.5"/><path class="cls-6" d="M73,220a2,2,0,0,1,2,2v53a2,2,0,0,1-2,2H20a2,2,0,0,1-2-2V222a2,2,0,0,1,2-2H73m0-1H20a3,3,0,0,0-3,3v53a3,3,0,0,0,3,3H73a3,3,0,0,0,3-3V222a3,3,0,0,0-3-3Z"/><rect class="cls-5" x="82" y="280" width="24" height="6"/><rect class="cls-5" x="82.5" y="219.5" width="58" height="58" rx="2.5" ry="2.5"/><path class="cls-7" d="M138,220a2,2,0,0,1,2,2v53a2,2,0,0,1-2,2H85a2,2,0,0,1-2-2V222a2,2,0,0,1,2-2h53m0-1H85a3,3,0,0,0-3,3v53a3,3,0,0,0,3,3h53a3,3,0,0,0,3-3V222a3,3,0,0,0-3-3Z"/><line class="cls-135" x1="114" y1="203.5" x2="107" y2="203.5"/><line class="cls-135" x1="114" y1="218.5" x2="107" y2="218.5"/><line class="cls-135" x1="110.5" y1="203" x2="110.5" y2="219"/><line class="cls-135" x1="76.5" y1="246" x2="76.5" y2="253"/><line class="cls-135" x1="81.5" y1="246" x2="81.5" y2="253"/><line class="cls-135" x1="76" y1="249.5" x2="82" y2="249.5"/><line class="cls-135" x1="114" y1="139.5" x2="107" y2="139.5"/><line class="cls-135" x1="114" y1="143.5" x2="107" y2="143.5"/><line class="cls-135" x1="110.5" y1="139" x2="110.5" y2="144"/><line class="cls-12" x1="142.74" y1="88.15" x2="142.74" y2="378.15"/><line class="cls-12" x1="15.15" y1="88.15" x2="15.15" y2="378.15"/><rect class="cls-136" x="657.89" y="304.33" width="18.36" height="11.02" rx="5.51" ry="5.51"/><circle class="cls-7" cx="670.74" cy="309.84" r="4.13"/><rect class="cls-137" x="611.99" y="258.44" width="15.61" height="15.61" rx="2" ry="2"/><rect class="cls-138" x="398.56" y="245.13" width="299.26" height="137.69"/><g class="cls-139"><rect class="cls-6" x="392.14" y="237.78" width="306.6" height="148.71"/><line class="cls-3" x1="280.18" y1="364.82" x2="590.82" y2="55.91"/><line class="cls-14" x1="283.65" y1="365.3" x2="594.29" y2="56.39"/><line class="cls-15" x1="287.12" y1="365.78" x2="597.76" y2="56.87"/><line class="cls-16" x1="290.59" y1="366.26" x2="601.23" y2="57.35"/><line class="cls-17" x1="294.06" y1="366.73" x2="604.7" y2="57.83"/><line class="cls-18" x1="297.53" y1="367.21" x2="608.17" y2="58.31"/><line class="cls-19" x1="301" y1="367.69" x2="611.64" y2="58.79"/><line class="cls-20" x1="304.47" y1="368.17" x2="615.11" y2="59.27"/><line class="cls-21" x1="307.94" y1="368.65" x2="618.58" y2="59.75"/><line class="cls-22" x1="311.41" y1="369.13" x2="622.05" y2="60.22"/><line class="cls-23" x1="314.88" y1="369.61" x2="625.52" y2="60.7"/><line class="cls-24" x1="318.35" y1="370.09" x2="628.99" y2="61.18"/><line class="cls-25" x1="321.82" y1="370.57" x2="632.46" y2="61.66"/><line class="cls-26" x1="325.29" y1="371.05" x2="635.94" y2="62.14"/><line class="cls-27" x1="328.76" y1="371.52" x2="639.41" y2="62.62"/><line class="cls-28" x1="332.23" y1="372" x2="642.88" y2="63.1"/><line class="cls-29" x1="335.7" y1="372.48" x2="646.35" y2="63.58"/><line class="cls-30" x1="339.17" y1="372.96" x2="649.82" y2="64.06"/><line class="cls-31" x1="342.65" y1="373.44" x2="653.29" y2="64.53"/><line class="cls-32" x1="346.12" y1="373.92" x2="656.76" y2="65.01"/><line class="cls-33" x1="349.59" y1="374.4" x2="660.23" y2="65.49"/><line class="cls-34" x1="353.06" y1="374.88" x2="663.7" y2="65.97"/><line class="cls-35" x1="356.53" y1="375.36" x2="667.17" y2="66.45"/><line class="cls-36" x1="360" y1="375.83" x2="670.64" y2="66.93"/><line class="cls-37" x1="363.47" y1="376.31" x2="674.11" y2="67.41"/><line class="cls-38" x1="366.94" y1="376.79" x2="677.58" y2="67.89"/><line class="cls-39" x1="370.41" y1="377.27" x2="681.05" y2="68.37"/><line class="cls-40" x1="373.88" y1="377.75" x2="684.52" y2="68.84"/><line class="cls-41" x1="377.35" y1="378.23" x2="687.99" y2="69.32"/><line class="cls-42" x1="380.82" y1="378.71" x2="691.46" y2="69.8"/><line class="cls-43" x1="384.29" y1="379.19" x2="694.93" y2="70.28"/><line class="cls-44" x1="387.76" y1="379.67" x2="698.4" y2="70.76"/><line class="cls-45" x1="391.23" y1="380.15" x2="701.87" y2="71.24"/><line class="cls-46" x1="394.7" y1="380.62" x2="705.34" y2="71.72"/><line class="cls-47" x1="398.17" y1="381.1" x2="708.81" y2="72.2"/><line class="cls-48" x1="401.64" y1="381.58" x2="712.28" y2="72.68"/><line class="cls-49" x1="405.11" y1="382.06" x2="715.75" y2="73.16"/><line class="cls-50" x1="408.58" y1="382.54" x2="719.22" y2="73.63"/><line class="cls-51" x1="412.05" y1="383.02" x2="722.69" y2="74.11"/><line class="cls-52" x1="415.52" y1="383.5" x2="726.16" y2="74.59"/><line class="cls-53" x1="418.99" y1="383.98" x2="729.63" y2="75.07"/><line class="cls-54" x1="422.46" y1="384.46" x2="733.1" y2="75.55"/><line class="cls-55" x1="425.93" y1="384.93" x2="736.58" y2="76.03"/><line class="cls-56" x1="429.4" y1="385.41" x2="740.05" y2="76.51"/><line class="cls-57" x1="432.87" y1="385.89" x2="743.52" y2="76.99"/><line class="cls-58" x1="436.34" y1="386.37" x2="746.99" y2="77.47"/><line class="cls-59" x1="439.81" y1="386.85" x2="750.46" y2="77.94"/><line class="cls-60" x1="443.29" y1="387.33" x2="753.93" y2="78.42"/><line class="cls-61" x1="446.76" y1="387.81" x2="757.4" y2="78.9"/><line class="cls-62" x1="450.23" y1="388.29" x2="760.87" y2="79.38"/><line class="cls-63" x1="453.7" y1="388.77" x2="764.34" y2="79.86"/><line class="cls-64" x1="457.17" y1="389.24" x2="767.81" y2="80.34"/><line class="cls-65" x1="460.64" y1="389.72" x2="771.28" y2="80.82"/><line class="cls-66" x1="464.11" y1="390.2" x2="774.75" y2="81.3"/><line class="cls-67" x1="467.58" y1="390.68" x2="778.22" y2="81.78"/><line class="cls-68" x1="471.05" y1="391.16" x2="781.69" y2="82.26"/><line class="cls-69" x1="474.52" y1="391.64" x2="785.16" y2="82.73"/><line class="cls-70" x1="477.99" y1="392.12" x2="788.63" y2="83.21"/><line class="cls-71" x1="481.46" y1="392.6" x2="792.1" y2="83.69"/><line class="cls-72" x1="484.93" y1="393.08" x2="795.57" y2="84.17"/><line class="cls-73" x1="488.4" y1="393.56" x2="799.04" y2="84.65"/><line class="cls-74" x1="491.87" y1="394.03" x2="802.51" y2="85.13"/><line class="cls-75" x1="495.34" y1="394.51" x2="805.98" y2="85.61"/><line class="cls-76" x1="498.81" y1="394.99" x2="809.45" y2="86.09"/><line class="cls-77" x1="502.28" y1="395.47" x2="812.92" y2="86.57"/><line class="cls-78" x1="505.75" y1="395.95" x2="816.39" y2="87.04"/><line class="cls-79" x1="509.22" y1="396.43" x2="819.86" y2="87.52"/><line class="cls-80" x1="512.69" y1="396.91" x2="823.33" y2="88"/><line class="cls-81" x1="516.16" y1="397.39" x2="826.8" y2="88.48"/><line class="cls-82" x1="519.63" y1="397.87" x2="830.27" y2="88.96"/><line class="cls-83" x1="523.1" y1="398.34" x2="833.74" y2="89.44"/><line class="cls-84" x1="526.57" y1="398.82" x2="837.22" y2="89.92"/><line class="cls-85" x1="530.04" y1="399.3" x2="840.69" y2="90.4"/><line class="cls-86" x1="533.51" y1="399.78" x2="844.16" y2="90.88"/><line class="cls-87" x1="536.98" y1="400.26" x2="847.63" y2="91.35"/><line class="cls-88" x1="540.45" y1="400.74" x2="851.1" y2="91.83"/><line class="cls-89" x1="543.93" y1="401.22" x2="854.57" y2="92.31"/><line class="cls-90" x1="547.4" y1="401.7" x2="858.04" y2="92.79"/><line class="cls-91" x1="550.87" y1="402.18" x2="861.51" y2="93.27"/><line class="cls-92" x1="554.34" y1="402.65" x2="864.98" y2="93.75"/><line class="cls-93" x1="557.81" y1="403.13" x2="868.45" y2="94.23"/><line class="cls-94" x1="561.28" y1="403.61" x2="871.92" y2="94.71"/><line class="cls-95" x1="564.75" y1="404.09" x2="875.39" y2="95.19"/><line class="cls-96" x1="568.22" y1="404.57" x2="878.86" y2="95.67"/><line class="cls-97" x1="571.69" y1="405.05" x2="882.33" y2="96.14"/><line class="cls-98" x1="575.16" y1="405.53" x2="885.8" y2="96.62"/><line class="cls-99" x1="578.63" y1="406.01" x2="889.27" y2="97.1"/><line class="cls-100" x1="582.1" y1="406.49" x2="892.74" y2="97.58"/><line class="cls-101" x1="585.57" y1="406.97" x2="896.21" y2="98.06"/><line class="cls-102" x1="589.04" y1="407.44" x2="899.68" y2="98.54"/><line class="cls-103" x1="592.51" y1="407.92" x2="903.15" y2="99.02"/><line class="cls-104" x1="595.98" y1="408.4" x2="906.62" y2="99.5"/><line class="cls-105" x1="599.45" y1="408.88" x2="910.09" y2="99.98"/><line class="cls-106" x1="602.92" y1="409.36" x2="913.56" y2="100.45"/><line class="cls-107" x1="606.39" y1="409.84" x2="917.03" y2="100.93"/><line class="cls-108" x1="609.86" y1="410.32" x2="920.5" y2="101.41"/><line class="cls-109" x1="613.33" y1="410.8" x2="923.97" y2="101.89"/><line class="cls-110" x1="616.8" y1="411.28" x2="927.44" y2="102.37"/><line class="cls-111" x1="620.27" y1="411.75" x2="930.91" y2="102.85"/><line class="cls-112" x1="623.74" y1="412.23" x2="934.38" y2="103.33"/><line class="cls-113" x1="627.21" y1="412.71" x2="937.86" y2="103.81"/><line class="cls-114" x1="630.68" y1="413.19" x2="941.33" y2="104.29"/><line class="cls-115" x1="634.15" y1="413.67" x2="944.8" y2="104.76"/><line class="cls-116" x1="637.62" y1="414.15" x2="948.27" y2="105.24"/><line class="cls-117" x1="641.09" y1="414.63" x2="951.74" y2="105.72"/><line class="cls-118" x1="644.57" y1="415.11" x2="955.21" y2="106.2"/><line class="cls-119" x1="648.04" y1="415.59" x2="958.68" y2="106.68"/><line class="cls-120" x1="651.51" y1="416.07" x2="962.15" y2="107.16"/><line class="cls-121" x1="654.98" y1="416.54" x2="965.62" y2="107.64"/><line class="cls-122" x1="658.45" y1="417.02" x2="969.09" y2="108.12"/><line class="cls-123" x1="661.92" y1="417.5" x2="972.56" y2="108.6"/><line class="cls-124" x1="665.39" y1="417.98" x2="976.03" y2="109.08"/><g class="cls-8"><rect class="cls-9" x="398.56" y="245.12" width="299.26" height="137.7"/></g></g><path class="cls-133" d="M684.56,244A14.43,14.43,0,0,1,699,258.42V369.58A14.43,14.43,0,0,1,684.56,384H411.44A14.43,14.43,0,0,1,397,369.58V258.42A14.43,14.43,0,0,1,411.44,244H684.56m0-10H411.44A24.45,24.45,0,0,0,387,258.42V369.58A24.45,24.45,0,0,0,411.44,394H684.56A24.45,24.45,0,0,0,709,369.58V258.42A24.45,24.45,0,0,0,684.56,234Z"/><path class="cls-127" d="M684.56,244A14.43,14.43,0,0,1,699,258.42V369.58A14.43,14.43,0,0,1,684.56,384H411.44A14.43,14.43,0,0,1,397,369.58V258.42A14.43,14.43,0,0,1,411.44,244H684.56m0-9H411.44A23.46,23.46,0,0,0,388,258.42V369.58A23.46,23.46,0,0,0,411.44,393H684.56A23.46,23.46,0,0,0,708,369.58V258.42A23.46,23.46,0,0,0,684.56,235Z"/><path class="cls-9" d="M682.88,246A14.13,14.13,0,0,1,697,260.12V367.88A14.13,14.13,0,0,1,682.88,382H413.12A14.13,14.13,0,0,1,399,367.88V260.12A14.13,14.13,0,0,1,413.12,246H682.88m0-8H413.12A22.12,22.12,0,0,0,391,260.12V367.88A22.12,22.12,0,0,0,413.12,390H682.88A22.12,22.12,0,0,0,705,367.88V260.12A22.12,22.12,0,0,0,682.88,238Z"/><path class="cls-9" d="M392.14,272.83v82.45h6.42c0-1.1-.18-1.56.59-2.43a3.42,3.42,0,0,1,2.85-1.07,6.15,6.15,0,0,0,1.92-.21,8.44,8.44,0,0,0,3.61-2.23,6.75,6.75,0,0,0,1.83-3.32,18.89,18.89,0,0,0,.22-3.93v-56a18.85,18.85,0,0,0-.22-3.93,6.7,6.7,0,0,0-1.83-3.32,8.47,8.47,0,0,0-3.61-2.24,6.47,6.47,0,0,0-1.92-.21,3.44,3.44,0,0,1-2.85-1.06c-.77-.87-.59-1.41-.59-2.51Z"/><rect class="cls-127" x="462.82" y="235.03" width="36.72" height="0.92"/><rect class="cls-133" x="462.82" y="234.11" width="36.72" height="0.92"/><rect class="cls-6" x="413" y="245" width="272" height="13"/><path class="cls-5" d="M433.5,359.5V343a2.5,2.5,0,0,1,2.5-2.5h53a2.5,2.5,0,0,1,2.5,2.5v16.5Z"/><path class="cls-6" d="M489,341a2,2,0,0,1,2,2v16H434V343a2,2,0,0,1,2-2h53m0-1H436a3,3,0,0,0-3,3v17h59V343a3,3,0,0,0-3-3Z"/><path class="cls-5" d="M520.5,359.5V343a2.5,2.5,0,0,1,2.5-2.5h53a2.5,2.5,0,0,1,2.5,2.5v16.5Z"/><path class="cls-6" d="M576,341a2,2,0,0,1,2,2v16H521V343a2,2,0,0,1,2-2h53m0-1H523a3,3,0,0,0-3,3v17h59V343a3,3,0,0,0-3-3Z"/><path class="cls-5" d="M606.5,359.5V343a2.5,2.5,0,0,1,2.5-2.5h53a2.5,2.5,0,0,1,2.5,2.5v16.5Z"/><path class="cls-6" d="M662,341a2,2,0,0,1,2,2v16H607V343a2,2,0,0,1,2-2h53m0-1H609a3,3,0,0,0-3,3v17h59V343a3,3,0,0,0-3-3Z"/><rect class="cls-6" x="413.25" y="358.95" width="271.72" height="13.77"/><g class="cls-8"><rect class="cls-9" x="414" y="245" width="4" height="138"/></g><g class="cls-8"><rect class="cls-9" x="680" y="245" width="4" height="138"/></g><path class="cls-7" d="M684,246V372H414V246H684m1-1H413V373H685V245Z"/><line class="cls-125" x1="516" y1="378" x2="586" y2="378"/><circle class="cls-10" cx="511" cy="365" r="4"/><rect class="cls-5" x="517" y="365" width="17" height="2"/><rect class="cls-5" x="457" y="365" width="17" height="2"/><polygon class="cls-10" points="448.13 360.92 449.13 364 452.37 364 449.75 365.9 450.75 368.98 448.13 367.08 445.51 368.98 446.51 365.9 443.89 364 447.13 364 448.13 360.92"/><rect class="cls-5" x="578" y="365" width="17" height="2"/><polygon class="cls-10" points="567.76 370 571.76 361.86 575.77 370 567.76 370"/><rect class="cls-5" x="641" y="365" width="17" height="2"/><polygon class="cls-10" points="634.8 362 630.18 362 627.88 366 630.18 370 634.8 370 637.11 366 634.8 362"/><rect class="cls-10" x="419" y="249" width="14" height="6"/><rect class="cls-10" x="665" y="249" width="14" height="6"/><rect class="cls-5" x="533" y="249" width="28" height="6"/><rect class="cls-5" x="433" y="325" width="24" height="6"/><rect class="cls-5" x="433.5" y="264.5" width="58" height="58" rx="2.5" ry="2.5"/><path class="cls-6" d="M489,265a2,2,0,0,1,2,2v53a2,2,0,0,1-2,2H436a2,2,0,0,1-2-2V267a2,2,0,0,1,2-2h53m0-1H436a3,3,0,0,0-3,3v53a3,3,0,0,0,3,3h53a3,3,0,0,0,3-3V267a3,3,0,0,0-3-3Z"/><rect class="cls-5" x="520" y="325" width="24" height="6"/><rect class="cls-5" x="520.5" y="264.5" width="58" height="58" rx="2.5" ry="2.5"/><path class="cls-6" d="M576,265a2,2,0,0,1,2,2v53a2,2,0,0,1-2,2H523a2,2,0,0,1-2-2V267a2,2,0,0,1,2-2h53m0-1H523a3,3,0,0,0-3,3v53a3,3,0,0,0,3,3h53a3,3,0,0,0,3-3V267a3,3,0,0,0-3-3Z"/><rect class="cls-5" x="606" y="325" width="24" height="6"/><rect class="cls-5" x="606.5" y="264.5" width="58" height="58" rx="2.5" ry="2.5"/><path class="cls-7" d="M662,265a2,2,0,0,1,2,2v53a2,2,0,0,1-2,2H609a2,2,0,0,1-2-2V267a2,2,0,0,1,2-2h53m0-1H609a3,3,0,0,0-3,3v53a3,3,0,0,0,3,3h53a3,3,0,0,0,3-3V267a3,3,0,0,0-3-3Z"/><line class="cls-12" x1="679.5" y1="246" x2="679.5" y2="383"/><line class="cls-12" x1="418.3" y1="245.58" x2="418.3" y2="382.82"/><line class="cls-135" x1="639" y1="323.5" x2="632" y2="323.5"/><line class="cls-135" x1="639" y1="339.5" x2="632" y2="339.5"/><line class="cls-135" x1="635.5" y1="323" x2="635.5" y2="340"/><line class="cls-135" x1="579.5" y1="289" x2="579.5" y2="296"/><line class="cls-135" x1="605.5" y1="289" x2="605.5" y2="296"/><line class="cls-135" x1="580" y1="292.5" x2="606" y2="292.5"/><line class="cls-135" x1="492.5" y1="289" x2="492.5" y2="296"/><line class="cls-135" x1="519.5" y1="289" x2="519.5" y2="296"/><line class="cls-135" x1="493" y1="292.5" x2="520" y2="292.5"/><line class="cls-135" x1="414.5" y1="289" x2="414.5" y2="296"/><line class="cls-135" x1="432.5" y1="289" x2="432.5" y2="296"/><line class="cls-135" x1="415" y1="292.5" x2="433" y2="292.5"/><line class="cls-135" x1="639" y1="259.5" x2="632" y2="259.5"/><line class="cls-135" x1="639" y1="263.5" x2="632" y2="263.5"/><line class="cls-135" x1="635.5" y1="259" x2="635.5" y2="264"/><line class="cls-3" x1="399.56" y1="358.49" x2="401.56" y2="358.49"/><line class="cls-140" x1="403.58" y1="358.49" x2="693.35" y2="358.49"/><line class="cls-3" x1="694.36" y1="358.49" x2="696.36" y2="358.49"/><line class="cls-3" x1="399.56" y1="258.44" x2="401.56" y2="258.44"/><line class="cls-140" x1="403.58" y1="258.44" x2="693.35" y2="258.44"/><line class="cls-3" x1="694.36" y1="258.44" x2="696.36" y2="258.44"/><g class="cls-141"><line class="cls-3" x1="499.92" y1="115.59" x2="810.56" y2="-193.31"/><line class="cls-14" x1="503.39" y1="116.07" x2="814.03" y2="-192.84"/><line class="cls-15" x1="506.86" y1="116.55" x2="817.5" y2="-192.36"/><line class="cls-16" x1="510.33" y1="117.03" x2="820.97" y2="-191.88"/><line class="cls-17" x1="513.8" y1="117.51" x2="824.44" y2="-191.4"/><line class="cls-18" x1="517.27" y1="117.99" x2="827.91" y2="-190.92"/><line class="cls-19" x1="520.74" y1="118.46" x2="831.38" y2="-190.44"/><line class="cls-20" x1="524.21" y1="118.94" x2="834.85" y2="-189.96"/><line class="cls-21" x1="527.68" y1="119.42" x2="838.32" y2="-189.48"/><line class="cls-22" x1="531.15" y1="119.9" x2="841.79" y2="-189"/><line class="cls-23" x1="534.62" y1="120.38" x2="845.26" y2="-188.53"/><line class="cls-24" x1="538.09" y1="120.86" x2="848.73" y2="-188.05"/><line class="cls-25" x1="541.56" y1="121.34" x2="852.21" y2="-187.57"/><line class="cls-26" x1="545.03" y1="121.82" x2="855.68" y2="-187.09"/><line class="cls-27" x1="548.5" y1="122.3" x2="859.15" y2="-186.61"/><line class="cls-28" x1="551.97" y1="122.77" x2="862.62" y2="-186.13"/><line class="cls-29" x1="555.44" y1="123.25" x2="866.09" y2="-185.65"/><line class="cls-30" x1="558.92" y1="123.73" x2="869.56" y2="-185.17"/><line class="cls-31" x1="562.39" y1="124.21" x2="873.03" y2="-184.69"/><line class="cls-32" x1="565.86" y1="124.69" x2="876.5" y2="-184.22"/><line class="cls-33" x1="569.33" y1="125.17" x2="879.97" y2="-183.74"/><line class="cls-34" x1="572.8" y1="125.65" x2="883.44" y2="-183.26"/><line class="cls-35" x1="576.27" y1="126.13" x2="886.91" y2="-182.78"/><line class="cls-36" x1="579.74" y1="126.61" x2="890.38" y2="-182.3"/><line class="cls-37" x1="583.21" y1="127.09" x2="893.85" y2="-181.82"/><line class="cls-38" x1="586.68" y1="127.56" x2="897.32" y2="-181.34"/><line class="cls-39" x1="590.15" y1="128.04" x2="900.79" y2="-180.86"/><line class="cls-40" x1="593.62" y1="128.52" x2="904.26" y2="-180.38"/><line class="cls-41" x1="597.09" y1="129" x2="907.73" y2="-179.9"/><line class="cls-42" x1="600.56" y1="129.48" x2="911.2" y2="-179.43"/><line class="cls-43" x1="604.03" y1="129.96" x2="914.67" y2="-178.95"/><line class="cls-44" x1="607.5" y1="130.44" x2="918.14" y2="-178.47"/><line class="cls-45" x1="610.97" y1="130.92" x2="921.61" y2="-177.99"/><line class="cls-46" x1="614.44" y1="131.4" x2="925.08" y2="-177.51"/><line class="cls-47" x1="617.91" y1="131.87" x2="928.55" y2="-177.03"/><line class="cls-48" x1="621.38" y1="132.35" x2="932.02" y2="-176.55"/><line class="cls-49" x1="624.85" y1="132.83" x2="935.49" y2="-176.07"/><line class="cls-50" x1="628.32" y1="133.31" x2="938.96" y2="-175.59"/><line class="cls-51" x1="631.79" y1="133.79" x2="942.43" y2="-175.12"/><line class="cls-52" x1="635.26" y1="134.27" x2="945.9" y2="-174.64"/><line class="cls-53" x1="638.73" y1="134.75" x2="949.37" y2="-174.16"/><line class="cls-54" x1="642.2" y1="135.23" x2="952.85" y2="-173.68"/><line class="cls-55" x1="645.67" y1="135.71" x2="956.32" y2="-173.2"/><line class="cls-56" x1="649.14" y1="136.18" x2="959.79" y2="-172.72"/><line class="cls-57" x1="652.61" y1="136.66" x2="963.26" y2="-172.24"/><line class="cls-58" x1="656.08" y1="137.14" x2="966.73" y2="-171.76"/><line class="cls-59" x1="659.56" y1="137.62" x2="970.2" y2="-171.28"/><line class="cls-60" x1="663.03" y1="138.1" x2="973.67" y2="-170.8"/><line class="cls-61" x1="666.5" y1="138.58" x2="977.14" y2="-170.33"/><line class="cls-62" x1="669.97" y1="139.06" x2="980.61" y2="-169.85"/><line class="cls-63" x1="673.44" y1="139.54" x2="984.08" y2="-169.37"/><line class="cls-64" x1="676.91" y1="140.02" x2="987.55" y2="-168.89"/><line class="cls-65" x1="680.38" y1="140.5" x2="991.02" y2="-168.41"/><line class="cls-66" x1="683.85" y1="140.97" x2="994.49" y2="-167.93"/><line class="cls-67" x1="687.32" y1="141.45" x2="997.96" y2="-167.45"/><line class="cls-68" x1="690.79" y1="141.93" x2="1001.43" y2="-166.97"/><line class="cls-69" x1="694.26" y1="142.41" x2="1004.9" y2="-166.49"/><line class="cls-70" x1="697.73" y1="142.89" x2="1008.37" y2="-166.02"/><line class="cls-71" x1="701.2" y1="143.37" x2="1011.84" y2="-165.54"/><line class="cls-72" x1="704.67" y1="143.85" x2="1015.31" y2="-165.06"/><line class="cls-73" x1="708.14" y1="144.33" x2="1018.78" y2="-164.58"/></g><g class="cls-142"><line class="cls-3" x1="609.62" y1="426.32" x2="920.26" y2="117.42"/><line class="cls-14" x1="613.09" y1="426.8" x2="923.73" y2="117.9"/><line class="cls-15" x1="616.56" y1="427.28" x2="927.2" y2="118.38"/><line class="cls-16" x1="620.03" y1="427.76" x2="930.67" y2="118.85"/><line class="cls-17" x1="623.5" y1="428.24" x2="934.14" y2="119.33"/><line class="cls-18" x1="626.97" y1="428.72" x2="937.61" y2="119.81"/><line class="cls-19" x1="630.44" y1="429.2" x2="941.08" y2="120.29"/><line class="cls-20" x1="633.91" y1="429.68" x2="944.55" y2="120.77"/><line class="cls-21" x1="637.38" y1="430.15" x2="948.02" y2="121.25"/><line class="cls-22" x1="640.85" y1="430.63" x2="951.49" y2="121.73"/><line class="cls-23" x1="644.32" y1="431.11" x2="954.96" y2="122.21"/><line class="cls-24" x1="647.79" y1="431.59" x2="958.43" y2="122.69"/><line class="cls-25" x1="651.26" y1="432.07" x2="961.9" y2="123.16"/><line class="cls-26" x1="654.73" y1="432.55" x2="965.37" y2="123.64"/><line class="cls-27" x1="658.2" y1="433.03" x2="968.84" y2="124.12"/><line class="cls-28" x1="661.67" y1="433.51" x2="972.31" y2="124.6"/><line class="cls-29" x1="665.14" y1="433.99" x2="975.78" y2="125.08"/><line class="cls-30" x1="668.61" y1="434.46" x2="979.25" y2="125.56"/><line class="cls-31" x1="672.08" y1="434.94" x2="982.72" y2="126.04"/><line class="cls-32" x1="675.55" y1="435.42" x2="986.19" y2="126.52"/><line class="cls-33" x1="679.02" y1="435.9" x2="989.67" y2="127"/><line class="cls-34" x1="682.49" y1="436.38" x2="993.14" y2="127.48"/><line class="cls-35" x1="685.96" y1="436.86" x2="996.61" y2="127.95"/><line class="cls-36" x1="689.43" y1="437.34" x2="1000.08" y2="128.43"/><line class="cls-37" x1="692.9" y1="437.82" x2="1003.55" y2="128.91"/><line class="cls-38" x1="696.38" y1="438.3" x2="1007.02" y2="129.39"/><line class="cls-39" x1="699.85" y1="438.78" x2="1010.49" y2="129.87"/><line class="cls-40" x1="703.32" y1="439.25" x2="1013.96" y2="130.35"/><line class="cls-41" x1="706.79" y1="439.73" x2="1017.43" y2="130.83"/></g></svg>