<svg width="364" height="160" viewBox="0 0 364 160" fill="none" xmlns="http://www.w3.org/2000/svg">
<g clip-path="url(#clip0)">
<path d="M363.754 134.158H228.676V135.078H363.754V134.158Z" fill="#E1E4E8"/>
<path d="M0 135.999L12.1543 105.061L13.2592 114.499L22.1908 98.5694L24.2625 104.647L28.4521 93.9655L33.1481 108.836L40.5143 86.4152L46.039 104.969L53.7275 93.9655C53.7275 93.9655 45.4405 97.0041 45.4405 96.1754C45.4405 95.3467 56.6279 80.6142 56.6279 80.6142C56.6279 80.6142 46.3152 84.4815 46.3152 83.6528C46.3152 82.8702 55.0626 74.7673 58.0551 69.657C61.0477 64.5466 66.3882 46.9137 66.3882 46.9137C66.3882 46.9137 74.9515 68.6441 79.5093 70.9921C80.9826 67.4931 85.6785 57.5948 85.6785 57.5948L76.3787 61.6922C76.3787 61.6922 90.3745 32.1812 92.124 25.5516C93.8274 18.876 93.4131 21.1779 96.4977 26.9788C98.6155 31.905 101.148 48.0647 108.928 57.2725C116.294 64.1783 103.634 59.2522 103.634 59.2522L115.051 81.1207L125.088 61.6922L131.027 76.793L139.912 57.2725L129.876 64.3164C129.876 64.3164 138.808 51.1493 140.741 40.7905C142.629 30.3857 145.023 13.8577 145.023 13.8577L157.637 37.9361C157.637 37.9361 169.7 4.51182 170.16 0C171.587 15.9755 190.693 54.0498 190.693 54.0498C190.693 54.0498 198.106 38.2584 198.796 32.4114C201.098 38.2123 231.162 134.756 231.162 134.756C231.162 134.756 146.358 140.281 113.302 140.373C80.2459 140.465 19.0601 138.255 11.0033 137.564C6.03111 137.15 0 135.999 0 135.999Z" fill="#E3E9EC"/>
<path d="M229.182 159.847C254.609 159.847 275.221 156.529 275.221 152.435C275.221 148.341 254.609 145.023 229.182 145.023C203.755 145.023 183.143 148.341 183.143 152.435C183.143 156.529 203.755 159.847 229.182 159.847Z" fill="#CACFD6"/>
<path d="M265.967 117.399C265.783 116.617 302.292 74.6291 305.423 71.7747C308.553 68.9203 336.591 35.8643 338.617 34.7134C339.86 31.951 335.762 29.603 333.921 30.8921C332.217 34.253 302.66 69.1505 299.99 72.0049C297.32 74.8593 275.912 98.0169 266.566 105.429C264.54 111.046 262.652 112.013 261.225 113.624C260.995 114.499 261.271 115.696 262.975 116.801C264.678 117.906 265.967 117.399 265.967 117.399Z" fill="#F9C513"/>
<path d="M328.856 42.6321C326.186 45.2563 316.15 57.0883 313.525 60.1729C307.909 66.8486 284.659 93.1829 278.72 99.8125C275.958 102.943 265.415 113.716 262.652 116.571C262.744 116.663 262.883 116.755 263.021 116.801C264.724 117.952 266.013 117.399 266.013 117.399C265.829 116.617 302.338 74.6292 305.469 71.7747C308.599 68.9203 336.637 35.8643 338.663 34.7134C338.985 33.9767 338.939 33.148 338.525 32.4575C335.578 36.0945 332.171 39.3633 328.856 42.6321Z" fill="#FFDF5D"/>
<path d="M261.962 112.841C261.685 113.072 261.455 113.348 261.225 113.624C260.995 114.499 261.271 115.696 262.975 116.801C264.678 117.906 265.967 117.399 265.967 117.399C266.059 117.123 266.243 116.893 266.427 116.663C265.415 114.913 263.849 113.578 261.962 112.841Z" fill="#DBAB09"/>
<path fill-rule="evenodd" clip-rule="evenodd" d="M269.903 37.559C269.43 36.814 268.614 35.6822 267.348 34.3911C265.277 32.2733 261.547 29.2347 255.516 26.9328C248.61 24.3086 240.784 24.5848 234.062 27.6694L233.832 27.7615L233.602 27.6694C226.756 25.2197 222.846 26.7814 221.211 27.8082C223.453 28.5857 227.608 31.0674 229.182 36.5549L228.077 36.8772C226.512 31.3525 221.954 29.1427 220.296 28.7283L222.506 36.8312L222.368 37.0614C222.341 37.0889 220.765 39.2906 219.503 42.4153C219.552 42.3787 219.601 42.3435 219.652 42.3098C220.481 41.7573 221.493 41.6192 222.552 41.9875C224.899 42.7699 226.602 45.3462 228.397 48.0613L228.399 48.0647C230.149 50.7349 231.944 53.4512 234.2 54.0497C235.772 54.4539 238.921 54.0696 242.578 53.6232L242.856 53.5894L242.936 53.5795C250.058 52.7064 258.893 51.6234 263.067 55.2468C266.151 57.871 269.098 62.5209 265.507 69.6109C264.705 71.2148 262.681 74.5298 261.654 76.2104C261.502 76.4595 261.372 76.6726 261.271 76.839C261.732 77.3915 262.422 78.5425 262.1 79.9697C262.006 80.406 261.829 80.8235 261.567 81.2223C262.73 80.6407 263.85 80.0017 264.916 79.3099C265 79.1554 265.158 79.0618 265.329 79.0377C265.421 78.9757 265.513 78.9134 265.605 78.8506L265.553 78.7727C265.591 78.7499 265.692 78.7196 265.846 78.6839C266.01 78.5691 266.172 78.453 266.334 78.3356C265.613 78.107 264.984 77.9548 264.494 77.8979L264.632 76.747C265.353 76.8335 266.327 77.0966 267.44 77.4907C269.254 76.0382 270.845 74.4143 272.136 72.6495C276.008 67.3764 276.032 59.4905 275.736 55.4982C275.414 56.2611 275.103 56.8299 274.853 57.1344L273.932 56.3977C274.761 55.3388 276.878 49.63 276.28 44.5197C275.958 41.9415 275.037 40.0079 273.425 38.7188C267.775 37.5973 261.154 42.861 260.266 43.5675L260.265 43.5677C260.206 43.6152 260.172 43.642 260.166 43.6449L259.43 42.7702C259.689 42.5478 264.573 38.4167 269.903 37.559ZM266.582 79.6766C267.125 79.5771 268.003 79.4611 269.018 79.3544C270.113 79.8256 271.274 80.384 272.41 80.9914C271.544 81.3602 270.574 81.7564 269.537 82.1667C268.508 81.1776 267.475 80.3106 266.582 79.6766ZM268.367 82.6241C267.324 81.6531 266.299 80.8343 265.467 80.3067C261.369 82.9482 256.514 84.8399 251.502 85.737C254.204 85.7906 257.621 85.6746 261.554 85.1457L261.547 85.126C263.852 84.3243 266.218 83.4558 268.367 82.6241ZM268.522 83.7884C268.769 83.6912 269.017 83.5927 269.266 83.4934C269.291 83.5181 269.315 83.5428 269.34 83.5676C269.066 83.6433 268.793 83.717 268.522 83.7884ZM270.409 83.0369C271.716 82.5098 272.777 82.0599 273.639 81.6742C273.845 81.7929 274.048 81.9128 274.249 82.0337C273.029 82.4538 271.799 82.8511 270.578 83.2126C270.522 83.1538 270.466 83.0952 270.409 83.0369ZM274.922 81.0782C275.172 81.2293 275.419 81.3821 275.661 81.5362C278.483 80.5198 281.217 79.406 283.637 78.3576C282.88 78.4568 282.245 78.4964 281.712 78.4964C279.779 78.4964 279.134 77.944 278.95 77.5757C278.812 77.2994 278.858 76.9311 279.088 76.5628C280.074 74.8608 285.765 70.8058 290.143 70.587C291.77 68.1135 295.931 63.2178 307.725 61.8303L307.863 62.9813C296.399 64.3164 292.532 68.7822 290.598 72.0049C290.184 72.6955 290.184 73.1099 290.276 73.202C290.506 73.4782 291.519 73.4322 292.44 73.0178L293.176 72.6495L293.268 73.4782C293.775 79.6474 300.266 79.3251 300.542 79.2791C306.758 79.2791 311.039 75.1816 313.019 72.7416C315.321 69.9332 317.715 62.7511 314.676 59.4823C311.878 56.4091 306.658 58.0429 300.655 59.9218L300.588 59.9427C300.036 60.1268 299.438 60.3108 298.84 60.4949L298.839 60.4952C292.586 62.4359 275.909 71.2444 273.673 72.4267C273.479 72.7374 273.274 73.0422 273.057 73.3401C271.831 75.0082 270.349 76.5551 268.671 77.9565C268.845 78.0263 269.02 78.0984 269.198 78.1728C272.269 77.8153 276.294 77.5759 277.201 78.3123C277.523 78.5425 277.615 78.9568 277.477 79.2791C277.386 79.5516 277.216 79.9636 274.922 81.0782ZM273.758 80.4016C274.913 79.88 275.768 79.443 276.188 79.141C275.361 78.9502 273.363 79.0034 271.353 79.1479C272.157 79.5373 272.967 79.959 273.758 80.4016ZM275.492 82.8166C274.149 83.2905 272.789 83.7402 271.436 84.1489C272.847 85.751 274.057 87.4648 274.622 88.9473C274.715 89.2235 274.576 89.5918 274.3 89.6839C274.254 89.7299 274.162 89.7299 274.116 89.7299C273.886 89.7299 273.656 89.5918 273.564 89.3616C272.994 87.8859 271.701 86.1205 270.228 84.5032C268.476 85.0007 266.747 85.4202 265.092 85.7246C260.212 86.6453 255.977 86.9216 252.616 86.9216C248.885 86.9216 246.284 86.5718 245.184 86.3864L248.099 90.7787C250.138 90.2687 252.055 89.8298 253.721 89.5918C257.174 89.0854 260.581 90.0522 263.067 92.2621C265.737 94.6561 267.164 98.2011 267.072 102.299C266.842 110.401 262.008 113.486 259.66 114.867C259.625 115.702 259.511 116.616 259.08 117.351C259.167 117.533 259.302 117.818 259.479 118.191C260.873 121.138 264.842 129.522 267.811 135.032C270.802 131.224 278.358 131.742 280.101 132.178C280.124 132.178 280.147 132.166 280.17 132.155C280.193 132.143 280.216 132.132 280.239 132.132C281.068 131.81 282.863 131.119 284.106 133.099C285.488 135.309 281.989 140.879 280.654 142.629C276.556 148.061 267.026 151.514 261.732 151.929C261.593 151.975 261.455 151.975 261.271 151.975C256.391 151.975 253.537 146.036 253.445 145.759L253.399 145.667L249.07 130.991C249.054 130.959 249.039 130.926 249.025 130.889L249.039 130.885L243.646 112.601C243.234 112.639 242.821 112.671 242.409 112.697C240.348 118.643 237.537 124.319 234.062 129.554C229.137 136.845 222.513 141.163 220.354 142.453C222.697 145.035 223.111 148.681 222.902 150.466C223.809 150.214 224.302 150.226 224.624 150.501C224.946 150.778 225.085 151.1 225.085 151.514C225.038 152.159 224.532 153.218 220.987 155.243C219.192 156.348 216.153 156.809 212.93 156.809C208.833 156.809 204.505 156.026 201.927 154.737C198.106 152.803 195.62 149.949 194.469 146.312C193.18 142.076 194.146 137.887 195.113 136.045C195.896 134.618 201.374 131.441 209.017 127.114C211.227 125.871 213.345 124.674 214.68 123.845C218.814 121.31 225.558 113.423 227.579 111.014C225.38 110.327 223.575 109.492 222.368 108.606C218.662 105.858 217.35 103.31 218.326 99.807C213.153 102.526 196.521 111.195 190.187 113.992C186.964 115.374 170.713 121.865 163.761 121.865C162.84 121.865 162.057 121.727 161.551 121.497C160.86 121.175 160.63 120.714 160.538 120.346C160.308 119.517 159.755 117.307 173.843 108.468C181.301 103.772 190.463 98.7996 196.218 95.9452C205.993 91.0978 226.121 85.1 231.335 83.5939C225.974 81.337 221.395 77.4318 218.317 72.4653C216.489 69.6507 215.735 66.3136 216.17 63.0303C214.586 60.6611 210.614 59.1592 208.326 59.022C208.004 59.022 207.774 58.7457 207.774 58.4235C207.774 58.1012 208.05 57.871 208.372 57.871C210.537 58.0344 214.332 59.2847 216.447 61.5578C216.51 61.3013 216.58 61.0457 216.658 60.7912L216.654 60.7862C216.195 60.0773 212.714 54.7045 208.142 52.8067C207.866 52.6686 207.728 52.3463 207.82 52.0701C207.958 51.7938 208.28 51.6557 208.557 51.7478C212.57 53.4025 215.668 57.3725 216.986 59.2521C217.048 58.4751 217.009 57.5419 216.957 56.3191C216.95 56.1513 216.943 55.9782 216.936 55.7992C216.844 54.1879 216.751 52.2082 216.751 49.5379L216.752 49.4459L216.751 49.4459L216.752 49.4293C216.795 43.3934 220.394 37.7909 221.217 36.601L219.146 28.9125C219.099 28.7744 219.099 28.5902 219.146 28.4521C219.187 28.2039 219.34 27.9928 219.537 27.8189L219.422 27.7154L219.434 27.7026C219.748 27.3822 223.962 23.0774 233.74 26.4724C240.692 23.3417 248.749 23.1116 255.885 25.8279C266.149 29.7065 270.113 35.5854 271.151 37.4218C272.035 37.3715 272.922 37.4248 273.794 37.6138L273.932 37.6599L274.024 37.7519C275.912 39.2252 277.063 41.4351 277.385 44.3816C277.76 47.3367 277.292 50.4689 276.615 52.9186L276.63 53.0264V53.0264C276.74 53.8138 277.129 56.5938 276.97 60.1269C276.862 63.1323 276.326 67.0775 274.669 70.5962C279.54 68.0379 292.877 61.1432 298.517 59.3903C298.816 59.2983 299.103 59.2063 299.39 59.1144L299.391 59.114L299.393 59.1137C299.68 59.0217 299.967 58.9297 300.266 58.8378L300.359 58.8088C306.493 56.8859 312.253 55.0805 315.551 58.6536C319.142 62.567 316.38 70.4857 313.94 73.4321C311.822 76.0103 307.264 80.384 300.588 80.384C300.588 80.4761 300.496 80.4761 300.312 80.4761C299.071 80.4761 293.969 80.1975 292.482 75.4964C290.411 76.5493 283.988 79.7045 276.847 82.3286C277.324 82.6647 277.773 83.0035 278.183 83.3411C278.241 83.3599 278.298 83.3869 278.352 83.4226C278.95 83.929 279.457 84.4355 279.917 85.034C280.101 85.2642 280.055 85.6325 279.825 85.8627C279.733 86.0008 279.595 86.0468 279.457 86.0468C279.272 86.0468 279.134 85.9548 278.996 85.8166C278.948 85.7525 278.899 85.6896 278.85 85.6277C278.131 84.7377 276.924 83.7641 275.492 82.8166ZM250.509 131.772L254.503 145.299C254.559 145.421 254.763 145.824 255.098 146.359C255.537 145.816 255.834 143.051 254.227 137.518C253.103 133.689 251.55 132.326 250.509 131.772ZM255.756 147.321C255.786 147.294 255.814 147.264 255.839 147.233C257.036 146.128 256.805 142.26 255.332 137.196C253.7 131.664 251.04 130.687 250.124 130.351L250.085 130.337L248.618 125.371C248.809 125.453 249.008 125.502 249.209 125.502C249.347 125.502 249.439 125.502 249.485 125.548C249.761 125.456 249.946 125.272 250.084 124.996C250.774 123.661 250.82 118.919 249.9 116.11C249.35 114.463 248.593 113.068 247.898 112.187L253.951 111.598C254.227 111.737 254.411 111.967 254.503 112.289C254.503 112.381 254.457 112.657 254.411 112.842C254.135 114.177 253.721 116.387 254.596 117.676C254.964 118.182 255.424 118.458 256.069 118.55C256.345 118.596 256.575 118.596 256.805 118.596C257.377 118.596 257.85 118.474 258.207 118.264C259.65 121.343 265.799 134.369 268.822 139.13L269.788 138.485C269.388 137.851 268.928 137.061 268.428 136.161C270.821 132.238 279.005 132.964 279.963 133.329L280.147 133.421L280.331 133.329C280.377 133.306 280.435 133.283 280.492 133.26L280.493 133.26C280.55 133.237 280.608 133.214 280.654 133.191C281.712 132.776 282.449 132.592 283.14 133.697C283.876 134.894 281.943 138.992 279.733 141.938C275.912 147.048 266.612 150.409 261.639 150.778C259.04 150.98 256.984 148.971 255.756 147.321ZM292.149 74.371C291.551 74.6771 290.416 75.246 288.896 75.9687L288.895 75.9643C284.797 77.1613 280.792 77.6677 280.055 77.1153C280.645 76.0623 285.396 72.4279 289.408 71.8164C288.861 72.9457 289.117 73.6132 289.447 73.9846C289.989 74.6169 291.107 74.6732 292.149 74.371ZM255.562 83.5607L255.573 83.5939C252.167 84.6162 248.591 85.1721 245.065 85.1721C243.916 85.1721 242.767 85.1262 241.664 84.9886C240.933 83.695 239.631 82.38 237.561 82.2256C236.469 82.1443 235.104 82.5233 233.615 83.2272C227.703 81.2273 222.659 77.2024 219.376 71.9129C217.212 68.6441 216.705 64.6387 217.902 60.9096C218.358 59.6333 218.273 58.1765 218.137 55.869L218.133 55.7992C218.041 54.1879 217.948 52.2542 217.948 49.584C217.948 49.3508 217.954 49.118 217.966 48.8858C218.17 47.2159 218.815 44.2313 220.296 43.2306C220.849 42.8623 221.447 42.8162 222.184 43.0464C224.11 43.6288 225.732 46.0856 227.302 48.4656L227.433 48.6632L227.577 48.8822C229.417 51.6668 231.277 54.4817 233.924 55.1547C235.671 55.6027 238.901 55.2223 242.68 54.7773L242.994 54.7403L243.135 54.7234C250.017 53.8974 258.535 52.875 262.33 56.1215C266.381 59.5744 267.118 63.9481 264.494 69.1045C263.435 71.2223 260.12 76.5628 260.074 76.6088L259.844 77.0232L260.166 77.3455C260.166 77.3455 261.271 78.4504 260.995 79.7395C260.765 80.7524 259.66 82.2256 255.562 83.5607ZM243.747 86.3032C243.228 86.2859 242.716 86.2563 242.204 86.2105C242.266 86.3987 242.314 86.5761 242.349 86.7374L241.244 86.9676C241.243 86.9639 241.241 86.9579 241.239 86.9497L241.232 86.9229C241.117 86.5045 240.311 83.5513 237.515 83.3766C235.953 83.2564 232.986 84.6165 229.871 86.9132L229.873 86.9216L229.856 86.9242C229.049 87.5201 228.232 88.1788 227.427 88.8909L227.433 88.9013L227.392 88.9224C225.37 90.7161 223.426 92.8462 221.908 95.1625C220.996 96.5725 220.307 97.8068 219.845 98.9152L219.882 98.9838C219.875 98.9881 219.846 99.0036 219.798 99.0298C218.322 102.668 219.341 104.95 223.059 107.685C226.42 110.171 235.351 112.289 243.868 111.414L254.089 110.401L254.227 110.447C254.964 110.724 255.47 111.368 255.608 112.105V112.197C255.608 112.381 255.562 112.611 255.47 113.026C255.454 113.114 255.436 113.209 255.417 113.311L255.417 113.312C255.214 114.383 254.882 116.14 255.47 116.939C255.608 117.169 255.839 117.307 256.161 117.353C256.897 117.445 257.45 117.353 257.772 117.077C258.371 116.525 258.463 115.374 258.463 114.499V114.177L258.785 113.992C260.995 112.703 265.645 109.987 265.829 102.253C265.921 98.5234 264.632 95.3007 262.238 93.1368C259.982 91.1111 256.99 90.2824 253.813 90.7428C251.864 91.0269 249.558 91.5974 247.115 92.2017L247.113 92.2021C246.786 92.2831 246.456 92.3647 246.124 92.4462C240.323 93.9195 233.786 95.5769 229.458 94.6101L229.734 93.5051C231.181 93.8339 232.927 93.8399 234.834 93.6445C235.182 90.7865 237.96 87.3394 238.421 86.7673C238.453 86.7282 238.474 86.7025 238.482 86.6914L239.357 87.428C239.314 87.4703 236.513 90.8151 236.022 93.5006C238.204 93.1983 240.55 92.6788 242.87 92.1083L242.112 88.3183L243.24 88.0926L243.988 91.8293C244.629 91.6673 245.266 91.5035 245.894 91.3413C246.237 91.2528 246.578 91.1649 246.917 91.0783L243.747 86.3032ZM226.727 87.9902C226.956 87.7874 227.186 87.5873 227.418 87.3905C225.686 87.7758 223.983 88.2745 222.322 88.9013C219.284 90.0062 217.074 91.0651 215.969 91.7096C217.212 91.5255 219.606 90.8809 222.644 89.776C223.507 89.474 225.664 88.5252 226.727 87.9902ZM229.4 85.8173C226.872 86.2359 224.349 86.9093 221.954 87.7963C219.836 88.5329 217.902 89.3616 216.475 90.0983C214.542 91.1111 213.943 91.7096 214.173 92.3542C214.265 92.7225 214.634 92.9066 215.278 92.9066C215.785 92.9066 216.429 92.8146 217.35 92.5844C218.869 92.2161 220.895 91.6175 223.013 90.8349C223.331 90.7137 223.803 90.5229 224.332 90.3016C223.001 91.698 221.828 93.1427 220.941 94.518C220.07 95.8568 219.392 97.0699 218.909 98.1864C218.575 98.3596 218.053 98.6314 217.38 98.9825L217.354 98.9961C211.763 101.911 195.851 110.208 189.681 112.934C182.038 116.294 165.372 122.049 162.057 120.438C161.774 120.317 161.704 120.16 161.66 120.061C161.654 120.047 161.648 120.035 161.643 120.024C161.551 119.655 161.735 117.399 174.442 109.435C181.9 104.739 191.016 99.8125 196.725 96.9581C205.788 92.464 223.899 86.995 230.464 85.0615C230.11 85.3024 229.755 85.5548 229.4 85.8173ZM246.506 112.322L246.629 112.31L246.631 112.335C246.583 112.335 246.54 112.33 246.506 112.322ZM244.813 112.487L246.457 112.327C246.769 112.568 247.94 113.827 248.795 116.433C249.761 119.287 249.531 123.523 249.117 124.351C248.898 124.264 248.43 123.885 248.028 123.374L244.813 112.487ZM241.15 112.756C236.674 112.899 232.313 112.321 228.777 111.363L228.772 111.369C227.24 113.204 219.859 122.042 215.278 124.858C213.897 125.686 211.779 126.883 209.569 128.126C204.459 131.027 196.771 135.401 196.08 136.598C195.205 138.255 194.284 142.076 195.528 145.944C196.54 149.258 198.842 151.837 202.387 153.678C203.63 154.323 205.334 154.829 207.221 155.151C209.938 155.52 215.002 153.494 218.685 152.021L218.685 152.021L218.685 152.021C219.913 151.535 220.888 151.152 221.669 150.87C221.956 149.977 221.923 145.373 218.961 142.721C214.956 139.13 205.288 140.327 204.505 140.649C204.505 140.649 204.551 140.603 204.643 140.557L203.815 139.728C204.492 139.05 214.797 137.796 219.487 141.626C221.188 140.626 228.127 136.253 233.049 128.909C236.394 123.848 239.108 118.45 241.15 112.756ZM222.23 151.929L222.223 151.907C221.298 152.237 220.179 152.685 219.192 153.079L219.192 153.079L219.192 153.08C217.028 154 214.542 155.013 212.194 155.658C215.462 155.75 218.639 155.335 220.481 154.231C223.703 152.389 223.98 151.56 223.98 151.422C223.704 151.422 223.127 151.59 222.412 151.84C222.358 151.876 222.298 151.906 222.23 151.929ZM272.321 52.9908L271.17 52.8067C271.768 48.9855 271.952 42.2638 270.985 41.2049C270.571 40.7445 267.855 41.7113 265.277 43.2306L264.678 42.2638C269.788 39.2252 271.354 39.9618 271.814 40.4222C273.564 42.2177 272.551 51.3795 272.321 52.9908ZM230.241 76.2405C231.116 76.747 232.128 77.0692 232.911 77.0692C233.51 77.0692 234.016 76.8851 234.292 76.5168C234.891 75.4579 233.648 73.9846 232.082 73.1099C231.3 72.6495 230.517 72.3733 229.827 72.2812C228.676 72.097 228.215 72.6035 228.031 72.8797C227.847 73.1559 227.709 73.8005 228.399 74.7212C228.814 75.2737 229.458 75.7801 230.241 76.2405ZM230.793 75.2737C229.458 74.491 228.952 73.6163 228.998 73.4322C229.182 73.294 230.149 73.294 231.484 74.1227C232.865 74.9054 233.326 75.7341 233.279 75.9183C233.141 76.0564 232.175 76.0564 230.793 75.2737ZM168.226 115.788C168.411 116.11 168.779 116.294 169.377 116.294C170.022 116.294 170.943 116.064 172.14 115.65C174.027 114.959 176.329 113.854 178.723 112.473C181.117 111.092 183.235 109.665 184.754 108.376C186.596 106.81 187.24 105.798 186.826 105.061C186.412 104.324 185.215 104.37 182.913 105.199C181.025 105.89 178.723 106.995 176.329 108.376C173.935 109.757 171.817 111.184 170.298 112.473C168.457 114.039 167.812 115.051 168.226 115.788ZM178.125 111.46C173.245 114.269 170.114 115.19 169.285 115.143C169.608 114.407 172.002 112.105 176.882 109.297C181.762 106.488 184.893 105.567 185.721 105.613C185.399 106.396 183.005 108.652 178.125 111.46ZM193.133 102.068C192.535 102.068 192.213 101.884 192.075 101.562C191.752 100.871 192.397 100.135 194.331 98.8457C195.804 97.8788 197.876 96.7739 200.085 95.715C202.341 94.6561 204.505 93.8274 206.163 93.321C208.372 92.6764 209.339 92.6764 209.661 93.367C209.984 94.0576 209.339 94.7942 207.406 96.0833C205.932 97.0501 203.861 98.1551 201.651 99.214C199.395 100.273 197.231 101.102 195.574 101.608C194.469 101.93 193.686 102.068 193.133 102.068ZM208.28 94.0576C207.175 94.1957 204.505 94.9784 200.592 96.8199C196.632 98.6615 194.331 100.181 193.502 100.917C194.607 100.779 197.277 99.9966 201.19 98.1551C205.104 96.3135 207.452 94.7942 208.28 94.0576Z" fill="#0366D6"/>
<path d="M319.188 146.864C319.188 146.864 321.352 124.766 320.523 121.635C320.017 123.431 311.131 137.795 311.131 137.795V123.799C311.131 123.799 309.152 130.244 308.507 132.224C307.863 129.231 303.213 120.346 303.903 121.359C304.594 122.372 304.732 131.718 303.903 131.718C303.259 131.533 300.773 122.97 298.287 120.162C299.253 121.129 299.944 128.403 300.773 132.04C300.45 130.705 293.775 126.101 290.552 125.456C290.874 127.574 295.662 131.533 296.629 134.342C297.596 137.15 295.985 140.281 295.985 140.281L302.062 144.839L319.188 146.864Z" fill="#88929C"/>
<path d="M307.771 146.634C307.632 146.174 311.177 134.664 311.177 134.664C311.177 134.664 321.72 128.173 323.608 127.068C325.496 125.963 328.12 126.147 328.12 126.147L333.875 123.983C333.875 123.983 349.712 128.173 350.172 128.311C350.633 128.449 353.441 133.605 354.684 135.309C355.927 137.012 356.526 138.117 356.71 140.879L356.848 143.688L348.469 152.665H338.847C338.847 152.665 332.033 155.289 330.468 154.829C328.902 154.369 323.332 152.988 321.306 151.238C319.28 149.489 307.771 146.634 307.771 146.634Z" fill="#B1B7BB"/>
<path d="M328.212 128.173C328.166 127.85 327.429 119.885 334.98 111.23L335.67 111.829C331.849 116.156 330.284 120.346 329.639 123.108C328.948 126.101 329.133 128.034 329.133 128.08L328.212 128.173Z" fill="#959DA5"/>
<path d="M335.808 112.473C334.98 112.473 334.289 111.783 334.289 110.954C334.289 110.125 334.98 109.435 335.808 109.435C336.637 109.435 337.328 110.125 337.328 110.954C337.328 111.783 336.637 112.473 335.808 112.473ZM335.808 110.355C335.486 110.355 335.21 110.632 335.21 110.954C335.21 111.276 335.486 111.552 335.808 111.552C336.131 111.552 336.407 111.276 336.407 110.954C336.407 110.632 336.131 110.355 335.808 110.355Z" fill="#959DA5"/>
<path d="M340.044 115.097C339.261 115.097 338.617 114.453 338.617 113.67C338.617 112.888 339.261 112.243 340.044 112.243C340.827 112.243 341.471 112.888 341.471 113.67C341.471 114.453 340.827 115.097 340.044 115.097ZM340.044 113.164C339.768 113.164 339.537 113.394 339.537 113.67C339.537 113.946 339.768 114.177 340.044 114.177C340.32 114.177 340.55 113.946 340.55 113.67C340.55 113.394 340.32 113.164 340.044 113.164Z" fill="#959DA5"/>
<path d="M333.829 117.584C332.539 117.584 331.527 117.031 331.481 116.985L331.941 116.202C332.033 116.248 333.829 117.261 335.44 116.202C336.683 115.42 337.88 114.499 338.985 113.578L339.583 114.269C338.432 115.236 337.189 116.156 335.946 116.985C335.256 117.445 334.519 117.584 333.829 117.584Z" fill="#959DA5"/>
<g opacity="0.5">
<path opacity="0.5" d="M321.168 120.162C320.8 119.011 320.661 117.768 320.846 116.525C320.984 115.972 321.352 115.328 321.905 115.328C322.181 115.374 322.411 115.466 322.641 115.65C323.102 116.064 323.562 116.479 323.93 116.985C326.923 120.53 329.133 124.674 330.56 129.093C330.376 126.883 331.573 124.766 333.23 123.292C334.887 121.819 337.005 121.036 339.169 120.484C339.952 120.254 340.919 120.162 341.517 120.714C341.885 121.129 342.024 121.727 341.839 122.28C341.655 122.786 341.333 123.246 340.919 123.615C339.952 124.443 338.847 125.134 337.742 125.686C335.348 127.022 333.092 128.587 330.974 130.336C330.79 130.521 330.56 130.659 330.33 130.705C330.192 130.705 330.007 130.705 329.869 130.659C325.265 129.6 322.319 124.305 321.168 120.162Z" fill="#959DA5"/>
</g>
<path d="M325.403 142.629C327.797 140.373 330.468 138.347 333.276 136.598C335.256 137.012 337.097 136.69 338.617 136.92C341.839 134.065 345.615 130.751 348.929 128.034C345.154 127.022 333.829 124.029 333.829 124.029L328.074 126.193C328.074 126.193 325.449 126.055 323.562 127.114C322.089 127.988 315.045 132.316 312.282 134.019C314.078 136.644 322.641 140.557 325.403 142.629Z" fill="#CACFD3"/>
<path d="M312.42 134.111L312.282 133.927C314.907 132.316 322.043 127.896 323.562 127.021C325.357 126.009 327.797 126.055 328.12 126.101L333.875 123.937H333.921C334.013 123.983 345.246 126.929 349.021 127.942L348.975 128.172C345.338 127.206 334.657 124.351 333.921 124.167L328.212 126.331H328.166C328.12 126.331 325.542 126.193 323.746 127.252C322.181 128.08 315.045 132.5 312.42 134.111Z" fill="#E1E4E8"/>
<path d="M56.4898 157.776C78.6618 157.776 96.6358 156.003 96.6358 153.816C96.6358 151.63 78.6618 149.857 56.4898 149.857C34.3178 149.857 16.3438 151.63 16.3438 153.816C16.3438 156.003 34.3178 157.776 56.4898 157.776Z" fill="#CACFD6"/>
<path d="M78.3123 141.156C78.3123 141.156 79.095 147.141 80.6603 148.752C82.2256 150.363 88.625 154.829 88.9473 154C85.8167 150.087 82.5019 140.419 82.5019 140.419L78.3123 141.156Z" fill="#FF7000"/>
<path d="M57.7789 141.57C57.6868 141.616 57.6408 141.662 57.5948 141.708C57.5027 141.8 57.5948 141.984 57.6408 142.076C58.3774 143.319 58.9299 144.7 59.3442 146.082C59.6205 147.094 60.1729 148.476 61.0937 148.015C62.7051 147.141 61.37 145.023 61.0937 143.227C61.2779 144.332 64.8689 143.043 66.0199 141.386C67.4931 139.268 63.9481 138.946 62.659 139.268C61.0016 139.682 59.3442 140.833 57.7789 141.57Z" fill="#FF7000"/>
<path d="M71.4525 128.633C69.2887 128.403 67.0788 128.449 65.0991 129.323C63.2115 130.152 61.6922 131.671 60.3111 133.191C59.8967 133.697 59.4363 134.112 58.8839 134.48C58.3314 134.756 57.7329 134.894 57.1344 134.894C54.2339 134.986 51.5176 133.375 49.584 131.257C47.6503 129.139 46.2692 126.561 44.7959 124.075C42.4479 120.116 39.5935 116.156 35.5421 113.992C29.9253 110.954 22.5591 111.875 17.4027 115.742C12.2464 119.563 9.25384 125.917 8.79345 132.27C8.70137 133.697 8.9776 135.493 10.3588 135.815L12.4766 131.717C13.5355 129.692 14.6404 127.62 16.4359 126.193C18.2314 124.766 20.9017 124.259 22.7893 125.548C24.2625 126.561 24.861 128.449 25.0452 130.244C25.2294 132.04 25.0912 133.835 25.5056 135.585C26.5185 139.82 30.662 142.767 34.8975 143.596C37.9822 144.194 41.2049 143.918 44.1514 142.767C49.0315 140.833 53.2671 136.598 58.4695 136.92C59.1601 138.761 60.9556 140.005 62.8432 140.557C64.7308 141.109 66.7565 140.971 68.6901 140.879L66.112 143.964C67.4471 146.68 69.2887 149.12 71.4525 151.192C72.5114 148.522 71.6366 145.805 69.9792 143.457C70.3936 142.629 71.0842 141.938 71.9129 141.57C73.8465 142.583 78.9108 142.306 81.0746 142.03C80.9826 143.596 81.3048 147.187 82.3177 148.706C83.3305 150.225 86.5533 153.494 88.3948 154.461C89.5458 155.105 93.0908 155.934 93.6433 154.875C89.2696 153.034 84.9419 148.568 84.988 143.826C84.988 141.524 87.0137 140.005 86.8755 138.071C86.7835 136.367 84.0211 134.388 82.8241 133.421C79.6014 130.797 75.642 129.139 71.4525 128.633Z" fill="#FF9C57"/>
<path d="M47.236 136.46C45.5326 136.46 43.737 136.828 42.494 135.447C42.0796 134.894 41.7113 134.296 41.3891 133.697C40.3762 132.132 39.1331 131.948 37.3376 132.086C35.1738 132.224 34.3911 131.395 33.5164 129.416C31.0303 123.891 24.769 119.563 18.7379 122.786C14.134 125.272 11.3256 130.705 10.0365 135.585C10.0365 135.631 9.99048 135.677 9.99048 135.723C10.0826 135.769 10.1746 135.815 10.3128 135.861L12.4766 131.764C13.5355 129.738 14.6404 127.666 16.4359 126.239C18.2315 124.812 20.9017 124.305 22.7893 125.594C24.2626 126.607 24.8611 128.495 25.0452 130.29C25.2294 132.086 25.0913 133.881 25.5056 135.631C26.5185 139.866 30.662 142.813 34.8976 143.642C37.9822 144.24 41.2049 143.964 44.1514 142.813C47.6043 141.432 50.781 138.9 54.1879 137.657C52.0701 136.736 49.7681 136.46 47.236 136.46Z" fill="#FF7000"/>
<g opacity="0.6">
<path opacity="0.6" d="M70.4857 134.618C70.5777 134.618 74.6292 137.334 74.5831 138.623C74.5371 139.912 70.9 141.846 70.9 141.846C70.9 141.846 72.6955 139.59 72.2812 138.209C71.8668 136.828 70.4857 134.618 70.4857 134.618Z" fill="#FFD1AC"/>
</g>
<path d="M85.6785 135.815C85.2642 137.196 84.4815 138.485 84.1592 139.959C83.6989 141.754 84.0672 143.688 85.1721 145.161C85.08 144.747 85.08 144.286 85.08 143.872C85.08 141.57 87.1057 140.051 86.9676 138.117C86.8755 137.334 86.3691 136.552 85.6785 135.815Z" fill="#FB8532"/>
<path d="M88.4409 133.007C89.4998 132.592 90.3745 133.697 89.6379 136.229L90.973 136.275C90.7428 135.585 90.6507 134.848 90.7428 134.112C90.7889 133.467 91.3413 133.007 91.9859 133.053H92.0319C92.7685 133.099 92.9987 133.697 93.0448 134.434C93.0448 135.124 92.9067 135.815 92.5844 136.46C94.1957 137.611 95.0705 139.59 94.8403 141.57C94.7022 142.26 94.5641 142.951 94.518 143.642C94.472 144.378 94.8403 145.023 95.4388 145.391C95.8071 145.529 96.2215 145.575 96.5898 145.667C96.9581 145.759 97.3724 146.082 97.3264 146.496C97.2803 146.818 96.9581 147.002 96.6818 147.187C94.4259 148.292 91.8017 148.292 89.5918 147.187C87.6582 146.22 86.0929 144.378 85.8166 142.26C85.6325 140.833 86.0468 139.452 86.9676 138.347C87.2899 137.979 88.3028 137.472 88.4409 137.012C87.8424 136.275 87.0137 133.559 88.4409 133.007Z" fill="#FF9C57"/>
<path d="M96.6358 146.818C96.9663 146.818 97.2343 146.55 97.2343 146.22C97.2343 145.889 96.9663 145.621 96.6358 145.621C96.3052 145.621 96.0373 145.889 96.0373 146.22C96.0373 146.55 96.3052 146.818 96.6358 146.818Z" fill="#2F363D"/>
<g opacity="0.6">
<path opacity="0.6" d="M38.8569 121.451C41.297 124.213 43.1846 127.39 45.4865 130.244C47.7885 133.099 50.9652 135.17 54.5562 136.045C54.8324 135.999 55.0626 135.953 55.3389 135.907C52.8067 135.677 50.4587 134.204 48.7093 132.316C46.7296 130.198 45.3945 127.62 43.9212 125.134C41.5732 121.175 38.7188 117.215 34.6674 115.051C31.859 113.578 28.6823 112.98 25.5056 113.348C30.662 114.315 35.4961 117.63 38.8569 121.451Z" fill="#FFD1AC"/>
</g>
<g opacity="0.6">
<path opacity="0.6" d="M78.9108 132.915C81.1667 134.204 82.9162 136.045 84.4815 138.071C84.5736 137.518 84.7578 136.966 84.9419 136.46C83.7909 135.124 82.4098 133.927 80.9365 132.961C77.5296 130.751 73.6163 130.106 69.703 129.416L71.0381 130.06C73.6624 131.027 76.4707 131.487 78.9108 132.915Z" fill="#FFD1AC"/>
</g>
<g opacity="0.6">
<path opacity="0.6" d="M88.0265 134.71C89.3616 134.618 88.625 136.966 89.3617 137.242C89.9602 137.472 90.6968 137.012 91.3874 137.288C92.124 137.657 92.6765 138.209 93.0448 138.946C93.5512 139.959 93.5512 140.879 93.4591 141.984C93.4131 143.411 93.5052 144.885 95.1626 145.299C94.6561 144.885 94.3799 144.286 94.4259 143.642C94.472 142.951 94.6101 142.26 94.7482 141.57C94.9784 139.59 94.1037 137.611 92.4923 136.46C92.8146 135.815 92.9527 135.124 92.9527 134.434C92.9066 133.697 92.6765 133.099 91.9398 133.053C91.2953 132.961 90.7428 133.421 90.6507 134.066V134.112C90.5587 134.848 90.6507 135.585 90.8809 136.275L89.5458 136.229C90.2824 133.651 89.4077 132.546 88.3488 133.007C87.6582 133.283 87.5201 134.019 87.5661 134.848C87.7503 134.802 87.8884 134.756 88.0265 134.71Z" fill="#FFD1AC"/>
</g>
</g>
<defs>
<clipPath id="clip0">
<rect width="363.8" height="159.847" fill="white"/>
</clipPath>
</defs>
</svg>
