<?xml version="1.0" encoding="UTF-8"?>
<svg width="600px" height="360px" viewBox="0 0 600 360" version="1.1" xmlns="http://www.w3.org/2000/svg" xmlns:xlink="http://www.w3.org/1999/xlink">
    <title>2013-0206a@1x</title>
    <g id="2013-0206a" stroke="none" stroke-width="1" fill="none" fill-rule="evenodd">
        <rect fill="#F2F2F2" x="0" y="0" width="600" height="360"></rect>
        <g id="1534938" transform="translate(239.000000, 120.000000)" fill-rule="nonzero">
            <path d="M73.0613772,97.3830465 L46.0142216,70.3358908 C44.3188623,68.6405315 44.3169911,65.8982036 46.0086079,64.2065868 C46.6775823,63.5376122 47.5130989,63.132485 48.382298,62.9958831 C49.7062127,62.7816242 51.1143339,63.1867516 52.1388474,64.2112649 L45.1740268,57.2473801 C44.3272829,56.3997006 43.9015717,55.2909806 43.902506,54.1831962 C43.902506,53.9530314 43.9212201,53.7209954 43.9577097,53.4898951 C44.0971183,52.6197605 44.5003741,51.7861152 45.1693487,51.1171406 C45.8317739,50.4547157 46.6523205,50.0533308 47.5093562,49.9111152 C48.6770208,49.7165044 49.9064371,50.0009356 50.886976,50.7653442 L48.2363399,48.114708 C47.3895957,47.2679641 46.9638848,46.1545657 46.9638848,45.0467813 C46.962949,44.8119387 46.9825974,44.5742889 47.0218937,44.3422529 C47.1603667,43.4786678 47.5636228,42.648765 48.2297904,41.9825974 C48.898765,41.3136228 49.7333459,40.9094311 50.6062874,40.7718937 C51.9302022,40.5585703 53.3383234,40.9636977 54.3628369,41.988211 L57.3980165,45.0233907 C56.3744386,43.9998129 55.9683758,42.5907559 56.1816992,41.2668412 C56.3192364,40.3976422 56.7215569,39.5639971 57.3924026,38.8931511 C59.0830838,37.2034057 61.8282184,37.2043413 63.5226422,38.898765 L81.0993638,56.476422 L81.1489521,56.4062501 C82.0396707,55.5155315 83.0894462,54.8821107 84.2093938,54.5041169 C86.9741768,53.5731662 90.1543787,54.2093938 92.3596556,56.4146707 L100.555763,64.6107784 C102.131362,66.1863772 103.014596,68.3205463 103.018338,70.5454716 L103.023017,75.6727171 C103.024888,78.0688623 103.978293,80.367702 105.675524,82.0649327 L107.503743,83.8922156 L86.5989895,104.796033 L84.2636601,102.460704 C82.7105164,100.90756 80.6446481,99.971931 78.4543413,99.8287799 C76.4193487,99.6949849 74.5041169,98.8267214 73.0613772,97.3830465 L73.0613772,97.3830465 Z" id="Path" fill="#FECBAA"></path>
            <path d="M85.2404565,106.15363 L108.967066,82.4270208 C109.749251,81.6448354 111.017029,81.6448354 111.798278,82.4270208 L120.248877,90.8766841 C121.030127,91.6588697 121.030127,92.9257111 120.248877,93.7078968 L96.5213322,117.435442 C95.7391468,118.216692 94.4723054,118.216692 93.6901198,117.435442 L85.2404565,108.984843 C84.4582709,108.203593 84.4582709,106.935816 85.2404565,106.15363 L85.2404565,106.15363 Z" id="Path" fill="#FDD559"></path>
            <path d="M49.5696108,97.3858534 L76.6167665,70.3386975 C78.3121257,68.6433384 78.3130613,65.9010105 76.6214446,64.2093938 C75.9524699,63.5394836 75.1169535,63.135292 74.2486901,62.9977545 C72.9238398,62.7844311 71.5166541,63.1895583 70.491205,64.2140719 L77.4560254,57.2492515 C78.3027693,56.4025075 78.7284805,55.2928517 78.7275464,54.1850673 C78.7275464,53.9549028 78.7097679,53.7228668 78.6723428,53.492702 C78.5329341,52.6225674 78.1296781,51.7889222 77.4607037,51.1199475 C76.7992141,50.4575224 75.977732,50.0561377 75.120696,49.9139222 C73.9530314,49.7193114 72.7236153,50.0037425 71.7430764,50.7672156 L74.3937126,48.1165794 C75.2404565,47.2698352 75.6661677,46.1573727 75.6661677,45.0495883 C75.6671032,44.8138098 75.6474551,44.5770958 75.6081586,44.3450599 C75.4696857,43.4814745 75.0664297,42.6506362 74.400262,41.9854041 C73.7312874,41.3164297 72.8967066,40.9113025 72.0247006,40.7747006 C70.6998503,40.5613772 69.2926647,40.9655689 68.2672156,41.9900824 L65.2320359,45.025262 C66.2556139,44.0026199 66.6616766,42.5935629 66.4483533,41.2687126 C66.3117514,40.4004491 65.9084956,39.5668038 65.2376498,38.8959581 C63.5469686,37.2052769 60.8018338,37.2071483 59.1083459,38.9006362 L41.5306886,56.4782934 L41.4811004,56.4090568 C40.5903818,55.5183382 39.5406062,54.8849176 38.4206587,54.5069236 C35.6568115,53.5750374 32.4756738,54.2122007 30.2703966,56.4174776 L22.0752244,64.6135854 C20.4996259,66.1891842 19.6154565,68.3233533 19.6126496,70.5482783 L19.6070359,75.6755238 C19.6061004,78.0726048 18.6526946,80.370509 16.955464,82.0677394 L15.1272455,83.8950225 L36.031063,104.79884 L38.3673279,102.46351 C39.9204716,100.910367 41.9863399,99.974738 44.1766467,99.8315868 C46.2107037,99.6977919 48.1259356,98.8285928 49.5696108,97.3858534 Z" id="Path" fill="#FECBAA"></path>
            <path d="M37.3905315,106.156437 L13.6629866,82.4288922 C12.880801,81.6467066 11.613024,81.6467066 10.8317739,82.4288922 L2.38117509,90.879491 C1.59992527,91.6607411 1.59992527,92.9285178 2.38117509,93.7107037 L26.10872,117.437313 C26.8909056,118.219498 28.1577471,118.219498 28.9399327,117.437313 L37.3905315,108.98765 C38.1717816,108.205464 38.1717816,106.937687 37.3905315,106.156437 L37.3905315,106.156437 Z" id="Path" fill="#FF84A7"></path>
            <path d="M78.6143339,32.5645583 L78.6143339,70.8149327 C78.6143339,73.212949 76.6766467,75.1525075 74.2833083,75.1525075 C73.3373878,75.1525075 72.4607037,74.8484283 71.7486901,74.3310254 C70.6614896,73.5450972 69.9522829,72.2642216 69.9522829,70.8149327 L69.9522829,80.6642965 C69.9522829,81.8619013 69.4685629,82.9472307 68.6854417,83.7303519 C68.5226422,83.8931511 68.3458084,84.0437873 68.1558757,84.1803892 C67.4419909,84.6977919 66.5681138,85.0018711 65.6221931,85.0018711 C64.6856287,85.0018711 63.8211078,84.7052769 63.1137725,84.2000374 C62.1510105,83.5123502 61.4829715,82.4419909 61.3295284,81.2078968 L61.3295284,84.956961 C61.3295284,86.1545657 60.8430014,87.2417665 60.0598802,88.0248877 C59.8952096,88.1923653 59.7127619,88.3458084 59.5209581,88.4824101 C58.8117514,88.9951349 57.9406812,89.2973428 56.998503,89.2973428 C56.0525823,89.2973428 55.1758982,88.9923279 54.4620134,88.4730539 C53.3748129,87.6871257 52.6656062,86.4062501 52.6656062,84.956961 L52.6656062,80.6642965 C52.6656062,82.1107784 51.9563998,83.3953966 50.869199,84.1803892 C50.1581212,84.6977919 49.2833083,85.0018711 48.3355164,85.0018711 C45.9449849,85.0018711 44.004491,83.0595061 44.004491,80.6642965 L44.004491,55.8055763 L43.9202846,55.8205463 C42.6609281,55.8205463 41.4698728,55.5258232 40.4116766,55.0009356 C37.7984656,53.7050898 35.9992515,51.005801 35.9992515,47.8873504 L35.9992515,36.2967813 C35.9992515,34.0690493 36.8834206,31.9348802 38.4543413,30.3583459 L42.0761602,26.7299775 C43.7696481,25.0336826 44.7202469,22.7339071 44.7202469,20.3340194 L44.7202469,17.7498129 L74.2833083,17.7498129 L74.2833083,21.0525823 C74.2833083,23.2494386 75.0832709,25.3714446 76.5297531,27.0218937 C77.8742515,28.5544537 78.6143339,30.5239521 78.6143339,32.5645583 L78.6143339,32.5645583 Z" id="Path" fill="#FEDFC5"></path>
            <path d="M76.6214446,64.2093938 C75.9524699,63.5394836 75.1169535,63.135292 74.2486901,62.9977545 C72.9238398,62.7844311 71.5166541,63.1895583 70.4921408,64.2140719 L77.456961,57.2492515 C78.3037051,56.4025075 78.7284805,55.2928517 78.7284805,54.1850673 C78.7284805,53.9549028 78.7097679,53.7228668 78.6723428,53.492702 C78.5338697,52.6216316 78.1306137,51.7889222 77.4616393,51.1199475 C76.7992141,50.4575224 75.977732,50.0561377 75.120696,49.9139222 C73.9539669,49.7193114 72.7245509,50.0037425 71.744012,50.7672156 L74.3946481,48.1165794 C75.2413921,47.2698352 75.6661677,46.1573727 75.6661677,45.0495883 C75.6680388,44.8138098 75.6474551,44.5770958 75.6081586,44.3450599 C75.4696857,43.4814745 75.0664297,42.6506362 74.4011976,41.9854041 C73.732223,41.3164297 72.8967066,40.9113025 72.0247006,40.7747006 C70.6998503,40.5613772 69.2926647,40.9655689 68.2681511,41.9900824 L65.2329715,45.025262 C66.2556139,44.0026199 66.6626122,42.5935629 66.4483533,41.2687126 C66.3117514,40.4004491 65.9084956,39.5668038 65.2376498,38.8959581 C63.5469686,37.2052769 60.8018338,37.2071483 59.1083459,38.9006362 L41.5306886,56.4782934 L41.4811004,56.4090568 C40.5903818,55.5183382 39.5406062,54.8849176 38.4206587,54.5069236 C37.0948728,54.0596932 35.6727171,53.9782934 34.3085703,54.2533681 C35.4079341,55.9141092 36.9433008,57.2913547 38.8164297,58.220434 C39.3357035,58.477732 39.8680764,58.6938623 40.4107411,58.8688249 L40.4107411,80.6642965 C40.4107411,85.0374251 43.9651947,88.5946855 48.3345808,88.5946855 C48.8594685,88.5946855 49.3778069,88.5441617 49.8821107,88.4440493 C50.4462949,89.596744 51.2864896,90.6109655 52.3465569,91.3772455 C53.004304,91.8562874 53.721931,92.2230539 54.4769835,92.4775449 L76.6158309,70.3377619 C78.3121257,68.6433384 78.3139971,65.9010105 76.6214446,64.2093938 L76.6214446,64.2093938 Z" id="Path" fill="#FFAE85"></path>
            <path d="M82.2043413,70.8149327 L82.2043413,55.5183382 C81.8328968,55.7784431 81.4782934,56.0750374 81.1461451,56.4071856 L81.0974925,56.476422 L63.5198352,38.898765 C61.8263473,37.2052769 59.0802769,37.2034057 57.3905315,38.8940867 C56.7196857,39.5649327 56.3164297,40.3976422 56.1788922,41.2668412 C55.9655689,42.5916915 56.3725674,44.0007485 57.3952096,45.0233907 L54.3600299,41.988211 C53.3355164,40.9636977 51.9283308,40.5595061 50.6034805,40.7728292 C49.7314745,40.9094311 48.8959581,41.3145583 48.2269835,41.9835329 C47.5617514,42.648765 47.1584956,43.4796034 47.0190869,44.3431885 C46.980726,44.5752244 46.9601423,44.8119387 46.9620134,45.0477171 C46.9620134,46.1555016 47.386789,47.2679641 48.2344685,48.114708 L50.8851047,50.7653442 C49.9036302,50.0018711 48.6742141,49.71744 47.507485,49.9120508 C46.6504491,50.0542663 45.8289672,50.4556513 45.1665418,51.1180764 C44.4975674,51.787051 44.0943114,52.6197605 43.9558383,53.4908309 C43.9184132,53.7209954 43.8997006,53.9530314 43.8997006,54.1831962 C43.8997006,55.2909806 44.3244762,56.4006362 45.1712201,57.2473801 L52.1360405,64.2122007 C51.1115269,63.1876872 49.7043413,62.78256 48.379491,62.9958831 C47.5112275,63.1334206 46.6757111,63.5376122 46.0067365,64.2065868 C44.3151198,65.8991392 44.3169911,68.6414671 46.0123502,70.3368263 L64.1317365,88.4562127 C64.6182635,88.5488398 65.116018,88.5956213 65.6203219,88.5956213 C67.2988398,88.5956213 68.9043787,88.0754117 70.2554266,87.0958084 C70.6006735,86.8469313 70.9262726,86.5690493 71.2238024,86.2715195 C72.7198728,84.7763847 73.5432261,82.7853667 73.5432261,80.6652321 L73.5432261,78.7125749 C73.7874251,78.7350299 74.0334956,78.7462575 74.2814371,78.7462575 C78.6498877,78.7453219 82.2043413,75.1880613 82.2043413,70.8149327 L82.2043413,70.8149327 Z" id="Path" fill="#FFAE85"></path>
            <path d="M78.6143339,32.5645583 L78.6143339,70.8149327 C78.6143339,73.212949 76.6766467,75.1525075 74.2833083,75.1525075 C74.2187499,75.1525075 74.1495135,75.1525075 74.0793413,75.1478295 C73.2148204,75.1075974 72.4129866,74.8128743 71.754304,74.3338323 C71.751497,74.3338323 71.751497,74.3310254 71.7486901,74.3310254 C70.6614896,73.5450972 69.9522829,72.2642216 69.9522829,70.8149327 L69.9522829,80.6642965 C69.9522829,81.8619013 69.4685629,82.9472307 68.6854417,83.7303519 C68.5226422,83.8931511 68.3458084,84.0437873 68.1558757,84.1803892 C67.4419909,84.6977919 66.5681138,85.0018711 65.6221931,85.0018711 C64.6856287,85.0018711 63.8211078,84.7052769 63.1137725,84.2000374 C62.1510105,83.5123502 61.4829715,82.4419909 61.3295284,81.2078968 L61.3295284,84.956961 C61.3295284,86.1545657 60.8430014,87.2417665 60.0598802,88.0248877 C59.8952096,88.1923653 59.7127619,88.3458084 59.5209581,88.4824101 C58.8117514,88.9951349 57.9406812,89.2973428 56.998503,89.2973428 C56.0525823,89.2973428 55.1758982,88.9923279 54.4620134,88.4730539 C53.3748129,87.6871257 52.6656062,86.4062501 52.6656062,84.956961 L52.6656062,80.6642965 C52.6656062,82.1107784 51.9563998,83.3953966 50.869199,84.1803892 C50.1581212,84.6977919 49.2833083,85.0018711 48.3355164,85.0018711 C45.9449849,85.0018711 44.004491,83.0595061 44.004491,80.6642965 L44.004491,55.8055763 L43.9202846,55.8205463 C42.6609281,55.8205463 41.4698728,55.5258232 40.4116766,55.0009356 C37.7984656,53.7050898 35.9992515,51.005801 35.9992515,47.8873504 L35.9992515,36.2967813 C35.9992515,34.0690493 36.8834206,31.9348802 38.4543413,30.3583459 L42.0761602,26.7299775 C43.1231286,25.6802022 43.8875375,24.4011976 44.3160553,23.0071109 C44.5845808,22.1453966 44.7202469,21.2369011 44.7202469,20.3340194 L44.7202469,17.7498129 L74.2833083,17.7498129 L74.2833083,21.0525823 C74.2833083,21.7926647 74.3619013,22.5739147 74.5686752,23.2877993 C74.9129866,24.6603667 75.5838323,25.9412426 76.5297531,27.0218937 C77.8620884,28.5432261 78.6143339,30.5379866 78.6143339,32.5645583 L78.6143339,32.5645583 Z" id="Path" fill="#FEDFC5"></path>
            <path d="M78.6143339,32.5645583 L78.6143339,70.8149327 C78.6143339,73.212949 76.6766467,75.1525075 74.2833083,75.1525075 C74.2187499,75.1525075 74.1495135,75.1525075 74.0793413,75.1478295 C73.2148204,75.1075974 72.4129866,74.8128743 71.754304,74.3338323 L71.8282184,37.474738 C71.8282184,37.2520584 71.7776946,36.900262 71.6841317,36.4520958 C70.0318113,28.4019461 63.2363399,23.0071109 55.017777,23.0071109 L44.3160553,23.0071109 C44.5845808,22.1453966 44.7202469,21.2369011 44.7202469,20.3340194 L44.7202469,17.7498129 L74.2833083,17.7498129 L74.2833083,21.0525823 C74.2833083,21.7926647 74.3619013,22.5739147 74.5686752,23.2877993 C74.9129866,24.6603667 75.5838323,25.9412426 76.5297531,27.0218937 C77.8620884,28.5432261 78.6143339,30.5379866 78.6143339,32.5645583 L78.6143339,32.5645583 Z" id="Path" fill="#FECBAA"></path>
            <path d="M76.2041543,17.7507485 L42.6478295,17.7507485 C41.5428517,17.7507485 40.6465195,16.8544163 40.6465195,15.748503 L40.6465195,3.79865269 C40.6465195,2.69273964 41.5428517,1.79640719 42.6478295,1.79640719 L76.2041543,1.79640719 C77.3091317,1.79640719 78.205464,2.69273964 78.205464,3.79865269 L78.205464,15.748503 C78.205464,16.8544163 77.3091317,17.7507485 76.2041543,17.7507485 Z" id="Path" fill="#83D9FF"></path>
            <path d="M50.385479,107.278256 L50.025262,109.038174 L50.3723804,107.276385 C49.3993265,107.084581 48.4543413,107.718001 48.2625375,108.691055 C48.0707334,109.665045 48.7041543,110.609094 49.6781437,110.800898 C49.6809507,110.801834 49.7080838,110.806512 49.7108908,110.807448 C49.8250374,110.828967 49.9382486,110.840194 50.0505241,110.840194 C50.8953966,110.840194 51.6485777,110.241392 51.8123128,109.380614 C51.9994386,108.405689 51.3604043,107.464446 50.385479,107.278256 Z" id="Path" fill="#000000"></path>
            <path d="M64.120509,107.855539 L64.2992141,109.64259 L64.1148953,107.856474 C63.1278069,107.957522 62.4101796,108.83982 62.5121631,109.826909 C62.6066616,110.75131 63.386976,111.439933 64.2964072,111.439933 C64.3581586,111.439933 64.4208457,111.43619 64.4825974,111.430576 L64.5321856,111.424963 C65.5145959,111.30988 66.2116393,110.42384 66.1021705,109.44143 C65.9917665,108.459955 65.1029193,107.75262 64.120509,107.855539 L64.120509,107.855539 Z" id="Path" fill="#000000"></path>
            <path d="M57.2436378,108.081961 C57.2436378,108.081961 57.2183758,108.081025 57.21744,108.081025 C56.2275449,108.036115 55.4004491,108.805202 55.3555389,109.796033 C55.3115643,110.786864 56.0900074,111.626123 57.0808383,111.671033 C57.1089073,111.672904 57.1360405,111.672904 57.1641092,111.672904 C58.1184505,111.672904 58.9137351,110.921594 58.9567739,109.957897 C59.0016841,108.967066 58.2354041,108.126871 57.2436378,108.081961 L57.2436378,108.081961 Z" id="Path" fill="#000000"></path>
            <path d="M43.75,105.452844 L43.7275449,105.444424 C42.7937873,105.109469 41.7758232,105.597867 41.4408683,106.531624 C41.1049775,107.465382 41.6008608,108.498316 42.5346182,108.834206 C42.7357784,108.90625 42.9406812,108.939933 43.1418414,108.939933 C43.8781811,108.939933 44.5696108,108.484281 44.8325224,107.750749 C45.1684132,106.816991 44.6837576,105.787799 43.75,105.452844 L43.75,105.452844 Z" id="Path" fill="#000000"></path>
            <path d="M70.9000747,106.598054 L71.3426273,108.339259 L70.8944611,106.599925 C69.9335703,106.846931 69.3553519,107.826534 69.6023578,108.787425 C69.8110031,109.59768 70.5407933,110.136602 71.3407559,110.136602 C71.489521,110.136602 71.6401571,110.117889 71.7907933,110.078593 C71.7982783,110.076721 71.8300898,110.068301 71.8385104,110.06643 C72.7919162,109.806325 73.3495509,108.826721 73.0950599,107.871445 C72.8405689,106.917103 71.857223,106.349177 70.9000747,106.598054 L70.9000747,106.598054 Z" id="Path" fill="#000000"></path>
            <path d="M77.394274,104.332897 L78.1062874,105.981474 L77.3886601,104.334768 C76.479229,104.731474 76.0628743,105.789671 76.4586453,106.699102 C76.7533681,107.375561 77.4139222,107.778817 78.107223,107.778817 C78.3458084,107.778817 78.5900074,107.730165 78.8229792,107.629117 C78.8304642,107.625374 78.8594685,107.613211 78.8669535,107.609469 C79.7679641,107.20247 80.1656062,106.147081 79.763286,105.244199 C79.3609655,104.340382 78.2999626,103.935255 77.394274,104.332897 L77.394274,104.332897 Z" id="Path" fill="#000000"></path>
            <path d="M36.8880987,22.4429267 C37.1762726,22.4429267 37.4691243,22.3736901 37.739521,22.2296034 C38.6152695,21.7627246 38.9455463,20.6745883 38.4786678,19.7988398 C38.011789,18.9240268 36.9245883,18.5918788 36.0488398,19.0596932 L36.0273202,19.0709207 C35.1525075,19.5377993 34.8315868,20.6203219 35.2984656,21.4960704 C35.6203219,22.1004865 36.2453219,22.4429267 36.8880987,22.4429267 Z" id="Path" fill="#000000"></path>
            <path d="M16.10872,42.507485 C16.3753744,42.6468937 16.6607411,42.7133234 16.9423653,42.7133234 C17.5888848,42.7133234 18.2138848,42.3633983 18.5348053,41.7505614 L18.5666168,41.6878743 C19.004491,40.7971557 18.6377246,39.7202469 17.747006,39.2833083 C16.8628369,38.8473054 15.7943487,39.2065868 15.3508608,40.0851423 C14.8924026,40.9627619 15.2311004,42.0471557 16.10872,42.507485 Z" id="Path" fill="#000000"></path>
            <path d="M13.5797154,49.2655315 C13.770584,49.3300898 13.9642589,49.3609655 14.1560628,49.3609655 C14.9045657,49.3609655 15.6034805,48.8884731 15.8570359,48.1399701 L15.8804266,48.0688623 C16.1723428,47.1210704 15.6399701,46.1152695 14.6912426,45.8242889 C13.7509356,45.5342441 12.7526199,46.0563248 12.4522829,46.9919535 C12.136976,47.9303892 12.64128,48.9483533 13.5797154,49.2655315 Z" id="Path" fill="#000000"></path>
            <path d="M19.6528817,36.2228668 C19.971931,36.4549028 20.3415044,36.5671782 20.7082709,36.5671782 C21.2630989,36.5671782 21.8113772,36.3098802 22.1622381,35.8270958 L22.1856287,35.7952843 C22.761976,34.9887725 22.5739147,33.8697605 21.769274,33.2934132 C20.9636977,32.7161303 19.8409432,32.9013847 19.2627246,33.7060254 L20.7101423,34.770771 L19.2571109,33.7135104 C18.6732786,34.51628 18.8510479,35.6399701 19.6528817,36.2228668 Z" id="Path" fill="#000000"></path>
            <path d="M30.7896707,26.3229792 C31.1667291,26.3229792 31.5465943,26.2041543 31.8712575,25.9571483 C32.6721557,25.3714446 32.8452469,24.2477545 32.2595435,23.4468563 C31.6729042,22.6459581 30.5492141,22.4728668 29.7492515,23.0585703 L29.7043413,23.0913174 C28.9146707,23.6910553 28.757485,24.8203593 29.357223,25.6109655 C29.7108908,26.0769087 30.247006,26.3229792 30.7896707,26.3229792 Z" id="Path" fill="#000000"></path>
            <path d="M11.9760479,76.5091691 C12.2136977,77.281063 12.9229042,77.7760105 13.6901198,77.7760105 C13.8650824,77.7760105 14.0437873,77.7498129 14.2196857,77.6955463 C15.1627995,77.4064371 15.6951722,76.4071856 15.4126122,75.4622007 C15.1422156,74.5190869 14.1644836,73.9651947 13.212949,74.2243638 C12.255801,74.4854041 11.6916168,75.473428 11.9526572,76.4305763 C11.9582709,76.4492889 11.970434,76.4904565 11.9760479,76.5091691 Z" id="Path" fill="#000000"></path>
            <path d="M25.363024,31.0572604 C25.8299028,31.0572604 26.2967813,30.8766841 26.6495135,30.5174026 C27.3502994,29.8156812 27.3502994,28.6779566 26.6495135,27.9771708 C25.9477919,27.2754491 24.8100673,27.2754491 24.1083459,27.9771708 L24.0784057,28.0071109 C23.3841691,28.7153818 23.3982036,29.851235 24.1064745,30.5454716 C24.455464,30.8879116 24.9092441,31.0572604 25.363024,31.0572604 Z" id="Path" fill="#000000"></path>
            <path d="M13.961452,68.6770208 C13.8351423,67.7011602 12.9434879,67.008795 11.9666917,67.1248129 C10.9824101,67.242702 10.2788172,68.1362275 10.395771,69.1214446 L10.4060628,69.1934879 C10.537051,70.0860778 11.3033308,70.7260479 12.1800149,70.7260479 C12.2660929,70.7260479 12.3540419,70.7194984 12.4429267,70.7063998 C13.4206587,70.5641842 14.0989895,69.6547531 13.961452,68.6770208 Z" id="Path" fill="#000000"></path>
            <path d="M11.7047157,63.5319986 C11.723428,63.5319986 11.741205,63.5329341 11.758982,63.5329341 C12.726422,63.5329341 13.5254491,62.7629116 13.5535181,61.7889222 L13.5553892,61.7122007 C13.5553892,60.7194984 12.7507485,59.9157935 11.758982,59.9157935 C10.773765,59.9157935 9.97473796,60.7073353 9.96257485,61.6888098 C9.93637725,62.6787051 10.7157559,63.502994 11.7047157,63.5319986 L11.7047157,63.5319986 Z" id="Path" fill="#000000"></path>
            <path d="M12.0986153,56.3276572 C12.2062127,56.3463698 12.3119387,56.355726 12.4176647,56.355726 C13.2709581,56.355726 14.0278817,55.7447605 14.1841317,54.8755614 C14.1888098,54.8493638 14.1925523,54.8231662 14.1962949,54.7969686 C14.3413174,53.8154941 13.6629866,52.9023205 12.6805763,52.7582335 C11.7103293,52.6141466 10.8018338,53.2812501 10.6455837,54.2486901 C10.4752994,55.2236153 11.1246256,56.1526946 12.0986153,56.3276572 Z" id="Path" fill="#000000"></path>
            <path d="M96.8385104,36.7898577 C97.1865643,37.2950972 97.7460704,37.5654941 98.3168038,37.5654941 C98.6676647,37.5654941 99.0232036,37.4625749 99.3338323,37.2483159 C100.150636,36.6869387 100.35741,35.5679267 99.7960331,34.7501871 L98.3027693,35.7494386 L99.7904192,34.7417665 C99.2327844,33.9202846 98.1156436,33.7060254 97.2950972,34.2627246 C96.4736153,34.8194237 96.2593562,35.9365643 96.8160553,36.7580465 L96.8385104,36.7898577 Z" id="Path" fill="#000000"></path>
            <path d="M106.01235,54.8671406 C105.026198,54.9775449 104.316991,55.8673279 104.428331,56.8534805 L104.437687,56.9311377 C104.565868,57.8265344 105.334955,58.4730539 106.214446,58.4730539 C106.298653,58.4730539 106.384731,58.46744 106.470808,58.4552769 C107.444798,58.3158683 108.124064,57.4186002 107.997754,56.4455463 C107.884543,55.4622007 106.991954,54.7567365 106.01235,54.8671406 Z" id="Path" fill="#000000"></path>
            <path d="M102.980913,49.7979042 L102.988398,49.8212949 C103.218563,50.6044163 103.934319,51.1115269 104.710891,51.1115269 C104.878368,51.1115269 105.048653,51.0881363 105.218001,51.0376122 C106.170472,50.7578592 106.715007,49.7595435 106.435255,48.8070733 L106.42777,48.7836826 C106.148017,47.8312125 105.149701,47.2866766 104.197231,47.5673653 C103.245696,47.8471183 102.70116,48.8454343 102.980913,49.7979042 L102.980913,49.7979042 Z" id="Path" fill="#000000"></path>
            <path d="M100.443488,43.0810254 C100.756924,43.7181887 101.397829,44.0896333 102.063997,44.0896333 C102.32878,44.0896333 102.598241,44.0306886 102.851796,43.9053145 C103.741579,43.46744 104.111153,42.3970807 103.672343,41.5063622 L102.044349,42.2651571 L103.670472,41.5026199 C103.249439,40.6044163 102.180015,40.2180014 101.281811,40.6390345 C100.383608,41.0600673 99.9962575,42.129491 100.417291,43.0276946 L100.443488,43.0810254 Z" id="Path" fill="#000000"></path>
            <path d="M92.3138098,31.1798278 C92.6656062,31.5391092 93.1306137,31.7187499 93.5965569,31.7187499 C94.0503368,31.7187499 94.5041169,31.5484656 94.8540419,31.2050898 C95.5576347,30.5164671 95.5735404,29.3909056 94.8952096,28.6816992 C94.2224925,27.9565868 93.0885104,27.9126122 92.3605914,28.5843938 C91.6317365,29.2571109 91.5868263,30.3938996 92.2595435,31.1227545 L92.3138098,31.1798278 Z" id="Path" fill="#000000"></path>
            <path d="M106.596183,62.3680764 C105.609094,62.3428144 104.782934,63.1165794 104.748316,64.1036675 C104.703406,65.0870134 105.458458,65.9244012 106.44274,65.9796034 C106.477358,65.9814745 106.510105,65.9824101 106.544723,65.9824101 C107.490644,65.9824101 108.283121,65.2423279 108.336452,64.2851796 L108.339259,64.2112649 C108.367328,63.220434 107.587013,62.3970807 106.596183,62.3680764 L106.596183,62.3680764 Z" id="Path" fill="#000000"></path>
            <path d="M80.8261602,22.35872 L80.869199,22.3821107 C81.136789,22.5243262 81.4240268,22.5916915 81.7065868,22.5916915 C82.3456213,22.5916915 82.9640719,22.2473801 83.2887351,21.6438996 C83.7565495,20.7728292 83.4272081,19.6837576 82.5589447,19.2122007 L81.6897456,20.784057 L82.5533308,19.208458 C81.6831962,18.7312874 80.5913174,19.0503368 80.1141466,19.9204716 C79.6379116,20.7896707 79.9560254,21.882485 80.8261602,22.35872 L80.8261602,22.35872 Z" id="Path" fill="#000000"></path>
            <path d="M86.9021332,26.2986527 L86.9302022,26.3201722 C87.2548651,26.5662424 87.6356661,26.6850673 88.0145959,26.6850673 C88.5572604,26.6850673 89.0933758,26.4399327 89.4470434,25.9739895 C90.0467813,25.1833832 89.8914671,24.0568862 89.1017964,23.4571483 L89.0896333,23.4487277 C88.3027693,22.8443114 87.1753368,22.9921408 86.5709207,23.7790046 C85.9665044,24.5658683 86.1152695,25.6942366 86.9021332,26.2986527 L86.9021332,26.2986527 Z" id="Path" fill="#000000"></path>
            <path d="M121.526011,89.5639971 L113.093189,81.116205 C112.375561,80.3976422 111.422156,80.0018711 110.406999,80.0018711 C109.392777,80.0018711 108.438436,80.3976422 107.721744,81.116205 L107.526198,81.3117514 L106.972305,80.7578592 C106.288361,80.0720434 105.758795,79.2739521 105.399514,78.4047531 C105.367702,78.2896707 105.325599,78.1773952 105.271332,78.0716692 C104.996257,77.2988398 104.853106,76.476422 104.853106,75.6315495 L104.853106,73.2419535 C105.016841,73.3280314 105.195546,73.3907186 105.38735,73.4234656 C105.490269,73.4412426 105.592253,73.4496632 105.693301,73.4496632 C106.545659,73.4496632 107.299775,72.8415044 107.457897,71.9769835 C107.649701,71.005801 107.020023,70.0617514 106.047904,69.8671406 C105.620322,69.7819986 105.197418,69.8559133 104.841879,70.0486527 C104.731474,67.4962575 103.688249,65.1122754 101.873129,63.2934132 L93.6919909,55.098241 C91.8562874,53.2597305 89.4152321,52.2473801 86.8188623,52.2473801 C84.8091317,52.2473801 82.8948354,52.8564745 81.2799401,53.9839071 L80.4116766,53.1109655 L80.4116766,32.5645583 C80.4116766,30.0879492 79.5125375,27.6983533 77.880801,25.8373878 C76.7196857,24.5144086 76.0806513,22.8153068 76.0806513,21.0525823 L76.0806513,19.5471557 L76.2041543,19.5471557 C78.2980913,19.5471557 80.0018711,17.8433758 80.0018711,15.748503 L80.0018711,3.79865269 C80.0018711,1.70377988 78.2980913,1.36151901e-14 76.2041543,1.36151901e-14 L42.6478295,1.36151901e-14 C40.5538922,1.36151901e-14 38.8501123,1.70377988 38.8501123,3.79865269 L38.8501123,15.748503 C38.8501123,17.8433758 40.5538922,19.5471557 42.6478295,19.5471557 L42.9247756,19.5471557 L42.9247756,20.3349552 C42.9247756,22.2717066 42.1715943,24.0924402 40.8046407,25.4612649 L37.1828218,29.0896333 C35.2610405,31.0151571 34.2028443,33.5741018 34.2028443,36.2967813 L34.2028443,47.8864146 C34.2028443,49.4610778 34.5808383,50.9477919 35.2460704,52.2651571 C32.8639595,52.4026946 30.6437126,53.3953966 28.9427396,55.098241 L20.7616019,63.2934132 C18.8398204,65.218937 17.7816242,67.7788172 17.7816242,70.5005614 L17.7816242,75.6315495 C17.7816242,77.5683008 17.0293787,79.3890345 15.6624251,80.7578592 L15.1150824,81.3061377 C15.1122754,81.3080091 15.1104043,81.3098802 15.1085329,81.3117514 L14.9139222,81.116205 C14.1962949,80.3976422 13.2428891,80.0018711 12.227732,80.0018711 C11.2135104,80.0018711 10.2591691,80.3976422 9.5424776,81.116205 L1.10872,89.5639971 C-0.369573413,91.0450972 -0.369573413,93.4552769 1.10872,94.9363772 L3.99700599,97.8284057 C4.69779186,98.531063 5.83551641,98.5319986 6.53723808,97.8312125 C7.23895952,97.129491 7.2408309,95.992702 6.53910922,95.290045 L3.65175904,92.3970807 C3.57035928,92.3156812 3.57035928,92.1837576 3.65175904,92.1023578 L12.0855164,83.6545657 C12.1641092,83.5759732 12.2922903,83.5750374 12.3708834,83.6545657 L13.8370134,85.123503 L13.8379492,85.123503 L33.8575974,105.17777 L36.1002994,107.42515 C36.1816992,107.506549 36.1816992,107.638473 36.1002994,107.719873 L27.6674776,116.167665 C27.5879492,116.247193 27.4597679,116.247193 27.3811751,116.167665 L11.6251871,100.384543 C10.9244012,99.6818862 9.78667665,99.6809507 9.08495521,100.381737 C8.38229796,101.083458 8.3813624,102.220247 9.08214826,102.922904 L24.8390719,118.706025 C25.5557634,119.424588 26.5101049,119.820359 27.525262,119.820359 C28.5394836,119.820359 29.4928891,119.424588 30.2105164,118.706025 L38.6433384,110.258234 C40.1216316,108.778069 40.1216316,106.367889 38.6433384,104.886789 L38.5516467,104.795097 L39.6154565,103.729416 C40.8579715,102.484094 42.5084206,101.735591 44.2627246,101.62238 C46.7318489,101.462388 49.0550151,100.40887 50.8037051,98.6564371 L58.5507111,90.8925897 C60.7849926,90.3059507 62.5243262,88.4861528 62.9968189,86.206961 C63.793039,86.5858908 64.6828218,86.7992141 65.6221931,86.7992141 C69.0007485,86.7992141 71.7496259,84.0475301 71.7496259,80.6642965 L71.7496259,76.398765 C72.5224551,76.751497 73.3804266,76.9498503 74.2842441,76.9498503 C77.6627995,76.9498503 80.4107411,74.1981662 80.4107411,70.8149327 L80.4107411,58.2045284 L85.9365643,63.757485 C86.2874251,64.110217 86.7486901,64.2861152 87.209955,64.2861152 C87.6684132,64.2861152 88.1268714,64.1120884 88.477732,63.7630989 C89.1803892,63.0632484 89.1831962,61.9264596 88.4833459,61.2228668 L83.8763099,56.5933758 C84.7679641,56.1021705 85.7728292,55.8401945 86.8188623,55.8401945 C88.4543413,55.8401945 89.992515,56.4782934 91.1489521,57.6375375 L99.3300898,65.8317739 C100.574476,67.0789672 101.260292,68.7369011 101.260292,70.5005614 L101.260292,75.6315495 C101.260292,78.5273202 102.385853,81.2490644 104.429267,83.2962201 L104.986901,83.8547904 L102.381175,86.4651947 L86.6214446,102.252058 L85.7428891,101.371632 C85.7335329,101.363211 85.7251123,101.353855 85.7157559,101.345434 L85.5613772,101.19012 C83.7013473,99.3272829 81.2303519,98.2073353 78.6049775,98.037051 C77.0078592,97.9331962 75.5052395,97.2520584 74.3684505,96.1143339 L68.4655689,90.2432635 C67.761976,89.5434132 66.6242515,89.5462201 65.9244012,90.2498129 C65.2254865,90.9534057 65.2282934,92.0911303 65.9318862,92.790045 L71.8310254,98.6564371 C73.5797154,100.40887 75.9028817,101.462388 78.3729416,101.62238 C80.1263099,101.735591 81.776759,102.484094 83.019274,103.72848 L83.1062874,103.815494 C83.1530687,103.868825 83.2026572,103.918413 83.2550525,103.965195 L84.0830838,104.794162 L83.9913921,104.886789 C82.5130989,106.367889 82.5130989,108.777133 83.9913921,110.258234 L92.4242141,118.706025 C93.1418414,119.424588 94.0952469,119.820359 95.1104043,119.820359 C96.1246256,119.820359 97.0789672,119.424588 97.7965943,118.706025 L121.526011,94.9354417 C123.004304,93.4543413 123.004304,91.0450972 121.526011,89.5639971 L121.526011,89.5639971 Z M106.05726,71.7009729 L106.023578,71.6953593 L105.696108,71.6289296 L106.05726,71.7009729 Z M48.2606661,96.1180764 C47.129491,97.2520584 45.6268714,97.9331962 44.0306886,98.037051 C41.4043787,98.2073353 38.9333832,99.3272829 37.0733533,101.19012 L36.013286,102.252058 L35.0589447,101.295846 C35.0467813,101.283683 35.0346182,101.270584 35.0224551,101.259356 L17.6478295,83.8547904 L18.205464,83.2962201 C20.2488771,81.2490644 21.3744386,78.5273202 21.3744386,75.6315495 L21.3744386,70.5005614 C21.3744386,68.7369011 22.0593188,67.0789672 23.3046407,65.8317739 L31.4857784,57.6375375 C32.6422156,56.4782934 34.1803892,55.8401945 35.8158683,55.8401945 C36.864708,55.8401945 37.8733159,56.1040419 38.767777,56.5989895 L34.153256,61.2209954 C33.4524699,61.9227171 33.4534057,63.0604417 34.1551272,63.7612275 C34.505988,64.1111526 34.9653818,64.2861152 35.4247756,64.2861152 C35.8851047,64.2861152 36.3454343,64.110217 36.6962949,63.7593562 L42.2080838,58.2372754 L42.2080838,80.6642965 C42.2080838,84.0475301 44.956961,86.7992141 48.3355164,86.7992141 C49.2879866,86.7992141 50.1899327,86.5802769 50.9945734,86.1910553 C51.3594685,87.9715569 52.4971931,89.4723054 54.0391092,90.3274702 L48.2606661,96.1180764 Z M76.8188623,70.8158683 C76.8188623,72.21744 75.6811377,73.3579715 74.2842441,73.3579715 C72.8864146,73.3579715 71.7496259,72.21744 71.7496259,70.8158683 L71.7496259,50.7775075 C71.7496259,49.7857411 70.9459207,48.9811004 69.9532187,48.9811004 C68.9605164,48.9811004 68.1568115,49.7857411 68.1568115,50.7775075 L68.1568115,80.6652321 C68.1568115,82.0668038 67.0200225,83.2063998 65.6221931,83.2063998 C64.367515,83.2063998 63.3261602,82.2876122 63.125,81.0853293 L63.125,50.7569236 C63.125,49.7642216 62.3212949,48.9605164 61.3285928,48.9605164 C61.0095435,48.9605164 60.7092067,49.0447231 60.4491018,49.1906812 C59.8811751,49.4928891 59.4947605,50.0898204 59.4947605,50.7775075 L59.4947605,80.6642965 C59.4947605,80.8925897 59.5078592,81.116205 59.5321856,81.3379492 L59.5321856,84.9578968 C59.5321856,86.3594685 58.3953966,87.5 56.9975674,87.5 C55.6006735,87.5 54.4638848,86.3594685 54.4638848,84.9578968 L54.4638848,50.7354041 C54.4638848,49.7436378 53.6592441,48.9389969 52.6674776,48.9389969 C51.6747756,48.9389969 50.8701346,49.7436378 50.8701346,50.7354041 L50.8701346,80.6642965 C50.8701346,82.0658683 49.7333459,83.2063998 48.3364522,83.2063998 C46.9386228,83.2063998 45.8018338,82.0658683 45.8018338,80.6642965 L45.8018338,47.2483159 C45.8018338,46.2556139 44.9971931,45.4509729 44.0054266,45.4509729 C43.0127246,45.4509729 42.2090194,46.2556139 42.2090194,47.2483159 L42.2090194,53.4290793 C42.0583832,53.477732 41.9124251,53.5460331 41.776759,53.6358534 C39.4535928,52.7629116 37.7956587,50.5155315 37.7956587,47.8864146 L37.7956587,36.2967813 C37.7956587,34.5331212 38.4814745,32.8751871 39.7258608,31.627994 L43.3476795,27.9996259 C45.3920285,25.9524699 46.5175899,23.230726 46.5175899,20.3349552 L46.5175899,19.5471557 L50.1291166,19.5471557 C51.1218189,19.5471557 51.9255238,18.742515 51.9255238,17.7507485 C51.9255238,16.7580465 51.1218189,15.9543413 50.1291166,15.9543413 L42.6478295,15.9543413 C42.5346182,15.9543413 42.4429267,15.861714 42.4429267,15.748503 L42.4429267,3.79865269 C42.4429267,3.68544168 42.5346182,3.59281437 42.6478295,3.59281437 L76.2032187,3.59281437 C76.3173653,3.59281437 76.4090568,3.68544168 76.4090568,3.79865269 L76.4090568,15.748503 C76.4090568,15.8626496 76.3173653,15.9543413 76.2032187,15.9543413 L58.5628743,15.9543413 C57.5711078,15.9543413 56.7664671,16.7580465 56.7664671,17.7507485 C56.7664671,18.742515 57.5711078,19.5471557 58.5628743,19.5471557 L72.4878369,19.5471557 L72.4878369,21.0525823 C72.4878369,23.6873128 73.4431138,26.2275449 75.1787051,28.2073353 C76.2359655,29.4124251 76.8188623,30.959955 76.8188623,32.5645583 L76.8188623,70.8158683 Z M118.982971,92.3970807 L95.2535554,116.167665 C95.2142589,116.207897 95.1665418,116.227545 95.1104043,116.227545 C95.0552022,116.227545 95.007485,116.207897 94.9672529,116.167665 L86.5344311,107.719873 C86.4530314,107.638473 86.4530314,107.506549 86.5344311,107.42515 L87.8920285,106.064745 C87.8920285,106.064745 87.8929641,106.06381 87.8929641,106.06381 L101.668226,92.2651571 L110.263847,83.6545657 C110.34244,83.5750374 110.470621,83.5750374 110.549214,83.6545657 L118.982971,92.1023578 C119.064371,92.1837576 119.064371,92.3156812 118.982971,92.3970807 L118.982971,92.3970807 Z" id="Shape" fill="#000000"></path>
            <path d="M48.3355164,7.8574103 C47.281063,7.8574103 46.4230913,8.71725293 46.4230913,9.77357796 C46.4230913,10.8308383 47.281063,11.6897456 48.3355164,11.6897456 C49.3909056,11.6897456 50.2488771,10.8308383 50.2488771,9.77357796 C50.2488771,8.71725293 49.3909056,7.8574103 48.3355164,7.8574103 Z" id="Path" fill="#000000"></path>
            <path d="M110.994573,89.745509 C109.939184,89.745509 109.081212,90.6053519 109.081212,91.6616766 C109.081212,92.7180014 109.939184,93.5778443 110.994573,93.5778443 C112.049027,93.5778443 112.906999,92.7180014 112.906999,91.6616766 C112.906999,90.6053519 112.049027,89.745509 110.994573,89.745509 Z" id="Path" fill="#000000"></path>
            <path d="M29.9363772,108.072605 C29.9363772,107.01628 29.0784057,106.156437 28.0239521,106.156437 C26.9685629,106.156437 26.1105914,107.01628 26.1105914,108.072605 C26.1105914,109.12893 26.9685629,109.988772 28.0239521,109.988772 C29.0784057,109.988772 29.9363772,109.12893 29.9363772,108.072605 Z" id="Path" fill="#000000"></path>
        </g>
    </g>
</svg>