<?xml version="1.0" encoding="UTF-8"?>
<svg width="600px" height="360px" viewBox="0 0 600 360" version="1.1" xmlns="http://www.w3.org/2000/svg" xmlns:xlink="http://www.w3.org/1999/xlink">
    <title>2016-0912a@1x</title>
    <g id="2016-0912a" stroke="none" stroke-width="1" fill="none" fill-rule="evenodd">
        <rect fill="#F2F2F2" x="0" y="0" width="600" height="360"></rect>
        <g id="2676327" transform="translate(232.000000, 132.000000)" fill-rule="nonzero">
            <g id="Group" transform="translate(2.011976, 0.000000)">
                <polygon id="Path" fill="#62E0DA" points="48.8185868 41.0362635 32.3226826 45.0291737 26.1292455 26.3787305 45.7971737 21.6189701"></polygon>
                <path d="M7.66505389,66.7780599 C7.66505389,52.1055808 22.9307784,33.8115449 41.7088383,37.9757605 C60.4868982,42.139976 65.7249341,34.6588743 76.8379401,34.4576766 C87.9509461,34.256479 91.6472335,48.0068982 104.814754,45.4706587 C115.73691,43.3621078 126.29806,53.9014132 126.180627,66.7826587 L7.66505389,66.7780599 Z" id="Path" fill="#EAEAF0"></path>
                <polygon id="Path" fill="#537980" points="4.7908024 69.6523114 127.425916 69.6523114 127.425916 93.7661317 4.7908024 93.7661317"></polygon>
                <polygon id="Path" fill="#385B60" points="0 62.7541078 132.215569 62.7541078 132.215569 73.1014132 0 73.1014132"></polygon>
                <g transform="translate(66.395210, 0.000000)" fill="#FDD82E">
                    <path d="M20.9820359,35.3073054 L17.5214371,44.4934132 C17.0915924,45.6426913 16.430262,46.6914283 15.5784431,47.5746108 C13.9356628,46.9130604 12.2444516,46.3787914 10.5197605,45.9765269 C7.8639521,45.4361677 5.19664671,46.022515 1.83952096,46.6893413 C0.00248921015,44.2358411 -0.452883705,41.0135356 0.632335329,38.1470659 L4.09293413,28.9494611 L12.5317365,32.1226347 L20.9820359,35.3073054 Z" id="Path"></path>
                    <path d="M22.317988,14.2689341 C21.4751556,14.2683311 20.6393473,14.1156578 19.8507305,13.8182515 L19.0965269,13.5342754 C17.358771,12.8812532 15.9517456,11.5644306 15.1851854,9.87368548 C14.4186251,8.18294033 14.3553688,6.25687161 15.0093413,4.51947305 L16.1348982,1.5302515 C16.527036,0.491121279 17.6863011,-0.0345082142 18.7263234,0.355257485 L28.8172455,4.14926946 C29.3167037,4.33709991 29.7210901,4.71564632 29.9414442,5.20163281 C30.1617984,5.6876193 30.18007,6.24123638 29.9922395,6.74069461 L28.8655329,9.72991617 C27.8377061,12.4560613 25.2314495,14.2628218 22.317988,14.2689341 L22.317988,14.2689341 Z M21.2671617,10.0518323 C22.8056658,10.6300081 24.5216123,9.85181041 25.1002635,8.31348503 L25.5176048,7.20287425 L19.1942515,4.82414371 L18.7769102,5.93475449 C18.1988513,7.47358269 18.9776272,9.18966916 20.5164072,9.76785629 L21.2671617,10.0518323 Z" id="Shape"></path>
                </g>
            </g>
            <g id="Group" fill="#0B2E41">
                <path d="M24.4782754,84.8571018 C23.3670918,84.8571018 22.4662994,85.7578942 22.4662994,86.8690778 C22.4662994,87.9802615 23.3670918,88.8810539 24.4782754,88.8810539 L33.6758802,88.8810539 C34.7870639,88.8810539 35.6878563,87.9802615 35.6878563,86.8690778 C35.6878563,85.7578942 34.7870639,84.8571018 33.6758802,84.8571018 L24.4782754,84.8571018 Z" id="Path"></path>
                <path d="M134.227545,60.7421317 L129.491928,60.7421317 C128.207439,55.0386175 124.871954,50.0059311 120.119569,46.6008144 C116.17517,43.7479439 111.238965,42.6246262 106.448479,43.4897246 C100.176862,44.701509 96.4966707,41.7893174 92.2393293,38.4149461 C91.7576048,38.0343952 91.2712814,37.6710898 90.7872575,37.2974371 L91.2724311,36.0109222 C91.6637581,34.9708687 91.1383505,33.8104435 90.0985868,33.4183473 L83.5257485,30.9510898 L89.8261078,14.1884551 C90.1226528,14.2341253 90.4217881,14.2610052 90.7217246,14.2689341 C93.6351861,14.2628218 96.2414426,12.4560613 97.2692695,9.72991617 L98.395976,6.74069461 C98.5838065,6.24123638 98.5655349,5.6876193 98.3451808,5.20163281 C98.1248266,4.71564632 97.7204403,4.33709991 97.220982,4.14926946 L87.1300599,0.355257485 C86.0900376,-0.0345082142 84.9307725,0.491121279 84.5386347,1.5302515 L83.4130778,4.51947305 C82.2619386,7.55071999 83.3590731,10.9752109 86.0573892,12.7731737 L79.7570299,29.5346587 L73.2037365,27.0674012 C72.1636913,26.6769507 71.0039492,27.2027965 70.6123114,28.2423952 L68.2577246,34.4990659 L67.5207665,34.729006 C62.6456505,36.5525232 57.4543204,37.3797583 52.2538922,37.1617725 L50.0694611,23.1354251 L50.338491,23.0698922 C51.0559298,22.9186508 51.6342934,22.3891033 51.8480489,21.6877467 C52.0618045,20.9863902 51.877105,20.2242806 51.365974,19.6986025 C50.854843,19.1729243 50.0982152,18.9669159 49.3911377,19.1609102 L48.4391856,19.3908503 C46.7928071,14.9685615 42.566947,12.0390844 37.8481437,12.0488623 C36.9420182,12.0454528 36.0388943,12.153179 35.158994,12.3696287 C29.5888884,13.7116184 25.8974908,19.0009767 26.5592335,24.6921198 L25.604982,24.9220599 C24.8890383,25.0749413 24.3126375,25.6046391 24.0999489,26.3051473 C23.8872603,27.0056555 24.0718543,27.7664068 24.5819403,28.2915359 C25.0920262,28.816665 25.8470925,29.0232862 26.553485,28.8310419 L26.8190659,28.7666587 L29.5047665,36.864 C27.1177062,37.7033804 24.8474961,38.8438944 22.7491257,40.2579162 C15.6223559,45.0997746 10.5201558,52.3885734 8.41005988,60.7421317 L2.01197605,60.7421317 C0.90079236,60.7421317 -3.29338218e-07,61.6429241 -3.29338218e-07,62.7541078 L-3.29338218e-07,73.1014132 C-3.29338218e-07,73.6351159 0.211572184,74.1470473 0.588957072,74.5244321 C0.966341961,74.901817 1.47827331,75.1136945 2.01197605,75.1133892 L4.7908024,75.1133892 L4.7908024,93.7672814 C4.7908024,94.8784651 5.69159475,95.7792575 6.80277844,95.7792575 L129.436743,95.7792575 C130.547926,95.7792575 131.448719,94.8784651 131.448719,93.7672814 L131.448719,89.245509 C131.448719,88.1343253 130.547926,87.2335329 129.436743,87.2335329 C128.325559,87.2335329 127.424766,88.1343253 127.424766,89.245509 L127.424766,91.7553054 L8.81475449,91.7553054 L8.81475449,75.1133892 L127.424766,75.1133892 L127.424766,79.760479 C127.424766,80.8716627 128.325559,81.7724551 129.436743,81.7724551 C130.547926,81.7724551 131.448719,80.8716627 131.448719,79.760479 L131.448719,75.1133892 L134.227545,75.1133892 C134.761248,75.1136945 135.273179,74.901817 135.650564,74.5244321 C136.027949,74.1470473 136.239521,73.6351159 136.239521,73.1014132 L136.239521,62.7541078 C136.239521,61.6429241 135.338729,60.7421317 134.227545,60.7421317 L134.227545,60.7421317 Z M87.1817964,5.93475449 L87.5991377,4.82414371 L93.922491,7.20287425 L93.5051497,8.31348503 C92.9264986,9.85181041 91.210552,10.6300081 89.6720479,10.0518323 L89.3409341,9.92651497 C89.3225389,9.91961677 89.3075928,9.90811976 89.2891976,9.90122156 C89.2708024,9.89432335 89.2535569,9.89317365 89.2351617,9.88627545 L88.918994,9.77130539 C87.380214,9.19311826 86.6014381,7.47703179 87.179497,5.93820359 L87.1817964,5.93475449 Z M73.6739641,31.5408862 L78.3486467,33.2999281 L77.3541557,35.9442395 C77.1011346,36.6170455 77.2262711,37.3737291 77.6824277,37.9292548 C78.1385843,38.4847805 78.8564597,38.7547507 79.5656374,38.6374704 C80.274815,38.52019 80.8675538,38.0334767 81.1205749,37.3606707 L82.1139162,34.7163593 L86.7966467,36.4788503 L84.0477126,43.7794491 C83.8568198,44.2732076 83.6119826,44.7443748 83.3176527,45.1843832 C82.0171021,44.6990994 80.6844695,44.3045726 79.3293413,44.0036407 C76.6260235,43.5999779 73.8689994,43.7470191 71.2239521,44.4359281 C70.3403068,42.7005891 70.2296812,40.6730084 70.9192814,38.8518323 L73.6739641,31.5408862 Z M31.5765269,19.5794012 C32.5854355,17.9167186 34.2186898,16.7278056 36.1109461,16.2786108 C36.6794737,16.1395406 37.2628588,16.0704301 37.8481437,16.0727547 C40.7085066,16.0670321 43.3059652,17.7404598 44.4830659,20.3474012 L30.5084551,23.7286707 C30.4396997,22.2697033 30.811882,20.8238413 31.5765269,19.5794012 Z M30.7441437,27.8193054 L46.1501317,24.0896766 L48.1184192,36.7455808 C46.870994,36.5616287 45.5545868,36.3201916 44.1554012,36.0097725 C40.6189559,35.2150574 36.9574708,35.1508963 33.3953533,35.8212216 L30.7441437,27.8193054 Z M132.215569,71.0894371 L4.0239521,71.0894371 L4.0239521,64.7660838 L22.3467305,64.7660838 C23.4579142,64.7660838 24.3587066,63.8652915 24.3587066,62.7541078 C24.3587066,61.6429241 23.4579142,60.7421317 22.3467305,60.7421317 L12.5685269,60.7421317 C14.5783022,53.7541939 18.9713842,47.6905204 24.9852934,43.6035449 C27.3171096,42.0273358 29.8951219,40.8504256 32.6135569,40.1211018 C32.6411497,40.1142036 32.6687425,40.1119042 32.6951856,40.1027066 L32.7032335,40.1027066 C36.1659241,39.2080088 39.7921681,39.1528268 43.280479,39.9417485 C45.5335718,40.4487056 47.8158718,40.815778 50.1142994,41.0408623 C50.2440923,41.0674338 50.3761653,41.0812957 50.5086467,41.0822515 L50.5695808,41.0822515 C56.0034276,41.5730262 61.4801535,40.9414124 66.6596407,39.2266347 C66.2618108,41.2332177 66.4379413,43.311319 67.1678084,45.2223234 C65.947976,45.4315689 64.6384671,45.6224192 63.2335329,45.7523353 C62.135446,45.8642551 61.3325473,46.8399575 61.4340992,47.9390517 C61.535651,49.0381459 62.5037329,49.8502169 63.6037365,49.7590419 C65.9753977,49.5206929 68.3323229,49.1533948 70.6640479,48.6587784 L70.7353293,48.644982 L71.0560958,48.5817485 C74.0292216,47.988503 76.3757605,47.5205749 78.516503,47.9551617 C80.1202791,48.3335157 81.6929958,48.8331568 83.2210778,49.4497725 L83.2521198,49.4612695 C83.6418683,49.6095808 84.0327665,49.7578922 84.4018204,49.9027545 C86.3522414,50.8225785 88.4394373,51.4186428 90.5814611,51.6675449 C90.6630898,51.6675449 90.7435689,51.6675449 90.8240479,51.6617964 C91.5467699,51.630671 92.1971504,51.213958 92.527462,50.570382 C92.8577735,49.9268059 92.817164,49.1554465 92.4211015,48.5501116 C92.025039,47.9447767 91.334498,47.5986588 90.612503,47.6435928 C89.4110364,47.4696046 88.2392292,47.1310998 87.1300599,46.6376048 C87.3859836,46.1793271 87.6095701,45.7037255 87.7991856,45.2142754 L89.2937964,41.2512575 C89.437509,41.3662275 89.5846707,41.472 89.7295329,41.5869701 C94.125988,45.0705629 99.1053413,49.0186347 107.204982,47.4573413 C110.929295,46.8041371 114.759115,47.6935286 117.814419,49.9211497 C121.494354,52.5588507 124.152351,56.384645 125.340359,60.7536287 L41.3167904,60.7536287 C40.2056067,60.7536287 39.3048144,61.6544211 39.3048144,62.7656048 C39.3048144,63.8767885 40.2056067,64.7775808 41.3167904,64.7775808 L132.215569,64.7775808 L132.215569,71.0894371 Z" id="Shape"></path>
                <path d="M33.9161677,60.7421317 L29.7956407,60.7421317 C28.684457,60.7421317 27.7836647,61.6429241 27.7836647,62.7541078 C27.7836647,63.8652915 28.684457,64.7660838 29.7956407,64.7660838 L33.9161677,64.7660838 C35.0273514,64.7660838 35.9281437,63.8652915 35.9281437,62.7541078 C35.9281437,61.6429241 35.0273514,60.7421317 33.9161677,60.7421317 L33.9161677,60.7421317 Z" id="Path"></path>
            </g>
        </g>
    </g>
</svg>