<?xml version="1.0" encoding="UTF-8"?>
<svg width="600px" height="360px" viewBox="0 0 600 360" version="1.1" xmlns="http://www.w3.org/2000/svg" xmlns:xlink="http://www.w3.org/1999/xlink">
    <title>2019-0829a@1x</title>
    <g id="2019-0829a" stroke="none" stroke-width="1" fill="none" fill-rule="evenodd">
        <rect fill="#F2F2F2" x="0" y="0" width="600" height="360"></rect>
        <g id="2933818" transform="translate(246.000000, 120.000000)" fill-rule="nonzero">
            <circle id="Oval" fill="#3BA9FD" cx="54.3706329" cy="60" r="12.1518987"></circle>
            <path d="M57.4227848,67.0258258 C56.6218608,67.02623 55.9202151,66.4893867 55.7111632,65.7162265 C55.5021113,64.9430663 55.8376217,64.1257902 56.5296203,63.7225316 C57.8532637,62.9489999 58.6690702,61.5330866 58.6744304,60 C58.6744304,59.0212675 59.4678498,58.2278481 60.4465823,58.2278481 C61.4253147,58.2278481 62.2187342,59.0212675 62.2187342,60 C62.2116735,62.7938393 60.7260705,65.3751516 58.3139241,66.7848101 C58.0436902,66.9431905 57.7360105,67.0264038 57.4227848,67.0258258 L57.4227848,67.0258258 Z" id="Path" fill="#0E8BCE"></path>
            <path d="M54.3706329,120 C39.3924051,120 27.6597468,93.6455696 27.6597468,60 C27.6597468,26.3544304 39.3924051,0 54.3706329,0 C69.3488608,0 81.0825316,26.3544304 81.0825316,60 C81.0825316,93.6455696 69.3488608,120 54.3706329,120 Z M54.3706329,3.5443038 C41.8126582,3.5443038 31.2040506,29.3974684 31.2040506,60 C31.2040506,90.6025316 41.8126582,116.455696 54.3706329,116.455696 C66.9286076,116.455696 77.5382278,90.6025316 77.5382278,60 C77.5382278,29.3974684 66.9286076,3.5443038 54.3706329,3.5443038 Z" id="Shape" fill="#DADAE0"></path>
            <path d="M21.3670886,98.044557 C12.3544304,98.044557 5.53417722,95.4177215 2.40607595,90 C-5.07949367,77.0288608 11.878481,53.6911392 41.0126582,36.8668354 C70.1498734,20.044557 98.835443,17.0258228 106.329114,30 C113.822785,42.9741772 96.8637975,66.3088608 67.7265823,83.1331646 C50.7564557,92.9306329 33.9372152,98.044557 21.3670886,98.044557 L21.3670886,98.044557 Z M42.7848101,39.9372152 C16.2855696,55.2405063 -0.8,77.3529114 5.47949367,88.2278481 C11.7589873,99.1027848 39.4521519,95.3650633 65.9544304,80.0637975 C92.4567089,64.7625316 109.541266,42.6470886 103.262785,31.7721519 C96.9843038,20.8972152 69.2901266,24.6349367 42.7878481,39.9372152 L42.7848101,39.9372152 Z" id="Shape" fill="#DADAE0"></path>
            <path d="M87.3721519,98.044557 C74.8050633,98.044557 57.9868354,92.9316456 41.0156962,83.1331646 C11.878481,66.3088608 -5.07949367,42.9711392 2.40911392,30 C9.89772152,17.0288608 38.5893671,20.0455696 67.7255696,36.8668354 C96.8617722,53.6881013 113.822785,77.0288608 106.329114,90 C103.205063,95.4167089 96.3807595,98.044557 87.3721519,98.044557 Z M42.7878481,80.0637975 C69.2901266,95.3650633 96.9832911,99.1017722 103.262785,88.2278481 C109.542278,77.3539241 92.4556962,55.2405063 65.9544304,39.9372152 C39.4531646,24.6339241 11.7589873,20.8992405 5.47949367,31.7721519 C-0.8,42.6450633 16.2855696,64.7594937 42.7878481,80.0637975 Z" id="Shape" fill="#DADAE0"></path>
            <g id="Group" transform="translate(0.000000, 42.025316)" fill="#3BA9FD">
                <circle id="Oval" cx="102.151899" cy="6.24708861" r="6.07594937"></circle>
                <circle id="Oval" cx="68.5478481" cy="65.6050633" r="6.07594937"></circle>
                <circle id="Oval" cx="6.20253165" cy="6.24708861" r="6.07594937"></circle>
            </g>
        </g>
    </g>
</svg>