<?xml version="1.0" encoding="UTF-8"?>
<svg width="1000px" height="200px" viewBox="0 0 1000 200" version="1.1" xmlns="http://www.w3.org/2000/svg" xmlns:xlink="http://www.w3.org/1999/xlink">
    <title>2019-0829b@1x</title>
    <g id="2019-0829b" stroke="none" stroke-width="1" fill="none" fill-rule="evenodd">
        <g id="2933818" transform="translate(460.000000, 56.000000)" fill-rule="nonzero">
            <ellipse id="Oval" fill="#3BA9FD" cx="40.1431382" cy="44.5" rx="8.99297424" ry="9.01265823"></ellipse>
            <path d="M42.4018735,49.7108208 C41.8091523,49.7111206 41.2899016,49.3129618 41.1351934,48.7395346 C40.9804852,48.1661075 41.2287786,47.559961 41.7408899,47.2608776 C42.7204481,46.687175 43.3241831,45.6370392 43.3281499,44.5 C43.3281499,43.7741068 43.9153174,43.185654 44.6396253,43.185654 C45.3639332,43.185654 45.9511007,43.7741068 45.9511007,44.5 C45.9458755,46.5720975 44.8464597,48.4865708 43.0613583,49.5320675 C42.8613726,49.6495329 42.6336752,49.7112495 42.4018735,49.7108208 L42.4018735,49.7108208 Z" id="Path" fill="#0E8BCE"></path>
            <path d="M40.1431382,89 C29.058548,89 20.3758314,69.4537975 20.3758314,44.5 C20.3758314,19.5462025 29.058548,0 40.1431382,0 C51.2277283,0 59.9111944,19.5462025 59.9111944,44.5 C59.9111944,69.4537975 51.2277283,89 40.1431382,89 Z M40.1431382,2.62869198 C30.8496487,2.62869198 22.9987822,21.8031224 22.9987822,44.5 C22.9987822,67.1968776 30.8496487,86.371308 40.1431382,86.371308 C49.4366276,86.371308 57.2882436,67.1968776 57.2882436,44.5 C57.2882436,21.8031224 49.4366276,2.62869198 40.1431382,2.62869198 Z" id="Shape" fill="#DADAE0"></path>
            <path d="M15.7189696,72.7163797 C9.04918033,72.7163797 4.00187354,70.7681435 1.68693208,66.75 C-3.85274005,57.1297384 8.6969555,39.8209283 30.2576112,27.342903 C51.8205152,14.8663797 73.0491803,12.6274852 78.5948478,22.25 C84.1405152,31.8725148 71.5900703,49.1790717 50.0271663,61.657097 C37.4684778,68.9235527 25.021452,72.7163797 15.7189696,72.7163797 L15.7189696,72.7163797 Z M31.5690867,29.6201013 C11.9584075,40.9700422 -0.685714286,57.3700759 3.96140515,65.435654 C8.60852459,73.5012321 29.1027635,70.7290886 48.7156909,59.3806498 C68.3286183,48.032211 80.9719906,31.6299241 76.3256206,23.564346 C71.6792506,15.4987679 51.1842623,18.2709114 31.5713349,29.6201013 L31.5690867,29.6201013 Z" id="Shape" fill="#DADAE0"></path>
            <path d="M64.565808,72.7163797 C55.2655738,72.7163797 42.8192974,68.9243038 30.2598595,61.657097 C8.6969555,49.1790717 -3.85274005,31.8702616 1.68918033,22.25 C7.2311007,12.6297384 28.4642623,14.8671308 50.0264169,27.342903 C71.5885714,39.8186751 84.1405152,57.1297384 78.5948478,66.75 C76.282904,70.7673924 71.2325995,72.7163797 64.565808,72.7163797 Z M31.5713349,59.3806498 C51.1842623,70.7290886 71.6785012,73.500481 76.3256206,65.435654 C80.97274,57.370827 68.3278689,40.9700422 48.7156909,29.6201013 C29.1035129,18.2701603 8.60852459,15.50027 3.96140515,23.564346 C-0.685714286,31.6284219 11.9584075,48.0299578 31.5713349,59.3806498 Z" id="Shape" fill="#DADAE0"></path>
            <g id="Group" transform="translate(0.000000, 31.295705)" fill="#3BA9FD">
                <ellipse id="Oval" cx="75.5035129" cy="4.50632911" rx="4.49648712" ry="4.50632911"></ellipse>
                <ellipse id="Oval" cx="50.6349415" cy="48.5301603" rx="4.49648712" ry="4.50632911"></ellipse>
                <ellipse id="Oval" cx="4.49648712" cy="4.50632911" rx="4.49648712" ry="4.50632911"></ellipse>
            </g>
        </g>
    </g>
</svg>