<?xml version="1.0" encoding="UTF-8"?>
<svg width="600px" height="360px" viewBox="0 0 600 360" version="1.1" xmlns="http://www.w3.org/2000/svg" xmlns:xlink="http://www.w3.org/1999/xlink">
    <title>2020-1119a@1x</title>
    <defs>
        <linearGradient x1="-2.21367521%" y1="50%" x2="121.752137%" y2="50%" id="linearGradient-1">
            <stop stop-color="#0980FC" offset="0%"></stop>
            <stop stop-color="#3C9FD0" offset="100%"></stop>
        </linearGradient>
        <linearGradient x1="50.0036313%" y1="80.3080933%" x2="50.0036313%" y2="8.39403863%" id="linearGradient-2">
            <stop stop-color="#0980FC" offset="0%"></stop>
            <stop stop-color="#3C9FD0" offset="100%"></stop>
        </linearGradient>
        <linearGradient x1="50%" y1="89.1132254%" x2="50%" y2="-6.89955698%" id="linearGradient-3">
            <stop stop-color="#0980FC" offset="0%"></stop>
            <stop stop-color="#3C9FD0" offset="100%"></stop>
        </linearGradient>
    </defs>
    <g id="2020-1119a" stroke="none" stroke-width="1" fill="none" fill-rule="evenodd">
        <rect fill="#F2F2F2" x="0" y="0" width="600" height="360"></rect>
        <g id="iOS-Hero" transform="translate(120.000000, 80.128947)">
            <polygon id="Rectangle" fill="url(#linearGradient-1)" fill-rule="nonzero" transform="translate(190.000000, 99.371053) rotate(-90.000000) translate(-190.000000, -99.371053) " points="101 -28.1289474 279 -28.1289474 279 226.871053 101 226.871053"></polygon>
            <line x1="63" y1="26.3710526" x2="64" y2="26.3710526" id="Path" stroke="#FFFFFF"></line>
            <line x1="65" y1="26.3710526" x2="316" y2="26.3710526" id="Path" stroke="#FFFFFF" stroke-dasharray="3.98"></line>
            <line x1="317" y1="26.3710526" x2="318" y2="26.3710526" id="Path" stroke="#FFFFFF"></line>
            <rect id="Rectangle" fill="#5AACF7" fill-rule="nonzero" x="109" y="65.8710526" width="11" height="4"></rect>
            <rect id="Rectangle" fill="#5AACF7" fill-rule="nonzero" x="110" y="31.8710526" width="33" height="33" rx="2.5"></rect>
            <path d="M141.477612,31.3785153 C142.03814,31.3785153 142.492537,31.8329129 142.492537,32.3934407 L142.492537,63.3486646 C142.492537,63.9091924 142.03814,64.3635899 141.477612,64.3635899 L110.522388,64.3635899 C109.96186,64.3635899 109.507463,63.9091924 109.507463,63.3486646 L109.507463,32.3934407 C109.507463,31.8329129 109.96186,31.3785153 110.522388,31.3785153 L141.477612,31.3785153 M141.477612,30.8710526 L110.522388,30.8710526 C109.681596,30.8710526 109,31.552649 109,32.3934407 L109,63.3486646 C109,64.1894563 109.681596,64.8710526 110.522388,64.8710526 L141.477612,64.8710526 C142.318404,64.8710526 143,64.1894563 143,63.3486646 L143,32.3934407 C143,31.552649 142.318404,30.8710526 141.477612,30.8710526 Z" id="Shape" fill="#B2D7F3" fill-rule="nonzero"></path>
            <rect id="Rectangle" fill="#5AACF7" fill-rule="nonzero" x="71" y="90.8710526" width="33" height="33" rx="2.5"></rect>
            <path d="M102.477612,91.3785153 C103.03814,91.3785153 103.492537,91.8329129 103.492537,92.3934407 L103.492537,123.348665 C103.492537,123.909192 103.03814,124.36359 102.477612,124.36359 L71.5223881,124.36359 C70.9618603,124.36359 70.5074627,123.909192 70.5074627,123.348665 L70.5074627,92.3934407 C70.5074627,91.8329129 70.9618603,91.3785153 71.5223881,91.3785153 L102.477612,91.3785153 M102.477612,90.8710526 L71.5223881,90.8710526 C70.6815964,90.8710526 70,91.552649 70,92.3934407 L70,123.348665 C70,124.189456 70.6815964,124.871053 71.5223881,124.871053 L102.477612,124.871053 C103.318404,124.871053 104,124.189456 104,123.348665 L104,92.3934407 C104,91.552649 103.318404,90.8710526 102.477612,90.8710526 Z" id="Shape" fill="#B2D7F3" fill-rule="nonzero"></path>
            <rect id="Rectangle" fill="#5AACF7" fill-rule="nonzero" x="148" y="65.8710526" width="11" height="4"></rect>
            <rect id="Rectangle" fill="#5AACF7" fill-rule="nonzero" x="148" y="31.8710526" width="33" height="33" rx="2.5"></rect>
            <path d="M180.477612,31.3785153 C181.03814,31.3785153 181.492537,31.8329129 181.492537,32.3934407 L181.492537,63.3486646 C181.492537,63.9091924 181.03814,64.3635899 180.477612,64.3635899 L149.522388,64.3635899 C148.96186,64.3635899 148.507463,63.9091924 148.507463,63.3486646 L148.507463,32.3934407 C148.507463,31.8329129 148.96186,31.3785153 149.522388,31.3785153 L180.477612,31.3785153 M180.477612,30.8710526 L149.522388,30.8710526 C148.681596,30.8710526 148,31.552649 148,32.3934407 L148,63.3486646 C148,64.1894563 148.681596,64.8710526 149.522388,64.8710526 L180.477612,64.8710526 C181.318404,64.8710526 182,64.1894563 182,63.3486646 L182,32.3934407 C182,31.552649 181.318404,30.8710526 180.477612,30.8710526 Z" id="Shape" fill="#FFFFFF" fill-rule="nonzero"></path>
            <rect id="Rectangle" fill="#5AACF7" fill-rule="nonzero" x="148" y="125.871053" width="16" height="4"></rect>
            <rect id="Rectangle" fill="#5AACF7" fill-rule="nonzero" x="148" y="90.8710526" width="33" height="33" rx="2.5"></rect>
            <path d="M180.477612,91.3785153 C181.03814,91.3785153 181.492537,91.8329129 181.492537,92.3934407 L181.492537,123.348665 C181.492537,123.909192 181.03814,124.36359 180.477612,124.36359 L149.522388,124.36359 C148.96186,124.36359 148.507463,123.909192 148.507463,123.348665 L148.507463,92.3934407 C148.507463,91.8329129 148.96186,91.3785153 149.522388,91.3785153 L180.477612,91.3785153 M180.477612,90.8710526 L149.522388,90.8710526 C148.681596,90.8710526 148,91.552649 148,92.3934407 L148,123.348665 C148,124.189456 148.681596,124.871053 149.522388,124.871053 L180.477612,124.871053 C181.318404,124.871053 182,124.189456 182,123.348665 L182,92.3934407 C182,91.552649 181.318404,90.8710526 180.477612,90.8710526 Z" id="Shape" fill="#B2D7F3" fill-rule="nonzero"></path>
            <rect id="Rectangle" fill="#5AACF7" fill-rule="nonzero" x="186" y="125.871053" width="16" height="4"></rect>
            <rect id="Rectangle" fill="#5AACF7" fill-rule="nonzero" x="187" y="90.8710526" width="33" height="33" rx="2.5"></rect>
            <path d="M218.477612,91.3785153 C219.03814,91.3785153 219.492537,91.8329129 219.492537,92.3934407 L219.492537,123.348665 C219.492537,123.909192 219.03814,124.36359 218.477612,124.36359 L187.522388,124.36359 C186.96186,124.36359 186.507463,123.909192 186.507463,123.348665 L186.507463,92.3934407 C186.507463,91.8329129 186.96186,91.3785153 187.522388,91.3785153 L218.477612,91.3785153 M218.477612,90.8710526 L187.522388,90.8710526 C186.681596,90.8710526 186,91.552649 186,92.3934407 L186,123.348665 C186,124.189456 186.681596,124.871053 187.522388,124.871053 L218.477612,124.871053 C219.318404,124.871053 220,124.189456 220,123.348665 L220,92.3934407 C220,91.552649 219.318404,90.8710526 218.477612,90.8710526 L218.477612,90.8710526 Z" id="Shape" fill="#B2D7F3" fill-rule="nonzero"></path>
            <rect id="Rectangle" fill="#5AACF7" fill-rule="nonzero" x="186" y="65.8710526" width="16" height="4"></rect>
            <rect id="Rectangle" fill="#5AACF7" fill-rule="nonzero" x="187" y="31.8710526" width="33" height="33" rx="2.5"></rect>
            <path d="M218.477612,31.3785153 C219.03814,31.3785153 219.492537,31.8329129 219.492537,32.3934407 L219.492537,63.3486646 C219.492537,63.9091924 219.03814,64.3635899 218.477612,64.3635899 L187.522388,64.3635899 C186.96186,64.3635899 186.507463,63.9091924 186.507463,63.3486646 L186.507463,32.3934407 C186.507463,31.8329129 186.96186,31.3785153 187.522388,31.3785153 L218.477612,31.3785153 M218.477612,30.8710526 L187.522388,30.8710526 C186.681596,30.8710526 186,31.552649 186,32.3934407 L186,63.3486646 C186,64.1894563 186.681596,64.8710526 187.522388,64.8710526 L218.477612,64.8710526 C219.318404,64.8710526 220,64.1894563 220,63.3486646 L220,32.3934407 C220,31.552649 219.318404,30.8710526 218.477612,30.8710526 L218.477612,30.8710526 Z" id="Shape" fill="#B2D7F3" fill-rule="nonzero"></path>
            <rect id="Rectangle" fill="#5AACF7" fill-rule="nonzero" x="225" y="65.8710526" width="16" height="4"></rect>
            <rect id="Rectangle" fill="#5AACF7" fill-rule="nonzero" x="226" y="31.8710526" width="33" height="33" rx="2.5"></rect>
            <path d="M257.477612,31.3785153 C258.03814,31.3785153 258.492537,31.8329129 258.492537,32.3934407 L258.492537,63.3486646 C258.492537,63.9091924 258.03814,64.3635899 257.477612,64.3635899 L226.522388,64.3635899 C225.96186,64.3635899 225.507463,63.9091924 225.507463,63.3486646 L225.507463,32.3934407 C225.507463,31.8329129 225.96186,31.3785153 226.522388,31.3785153 L257.477612,31.3785153 M257.477612,30.8710526 L226.522388,30.8710526 C225.681596,30.8710526 225,31.552649 225,32.3934407 L225,63.3486646 C225,64.1894563 225.681596,64.8710526 226.522388,64.8710526 L257.477612,64.8710526 C258.318404,64.8710526 259,64.1894563 259,63.3486646 L259,32.3934407 C259,31.552649 258.318404,30.8710526 257.477612,30.8710526 L257.477612,30.8710526 Z" id="Shape" fill="#B2D7F3" fill-rule="nonzero"></path>
            <rect id="Rectangle" fill="#5AACF7" fill-rule="nonzero" x="263" y="65.8710526" width="16" height="4"></rect>
            <rect id="Rectangle" fill="#5AACF7" fill-rule="nonzero" x="263" y="31.8710526" width="33" height="33" rx="2.5"></rect>
            <path d="M295.477612,31.3785153 C296.03814,31.3785153 296.492537,31.8329129 296.492537,32.3934407 L296.492537,63.3486646 C296.492537,63.9091924 296.03814,64.3635899 295.477612,64.3635899 L264.522388,64.3635899 C263.96186,64.3635899 263.507463,63.9091924 263.507463,63.3486646 L263.507463,32.3934407 C263.507463,31.8329129 263.96186,31.3785153 264.522388,31.3785153 L295.477612,31.3785153 M295.477612,30.8710526 L264.522388,30.8710526 C263.681596,30.8710526 263,31.552649 263,32.3934407 L263,63.3486646 C263,64.1894563 263.681596,64.8710526 264.522388,64.8710526 L295.477612,64.8710526 C296.318404,64.8710526 297,64.1894563 297,63.3486646 L297,32.3934407 C297,31.552649 296.318404,30.8710526 295.477612,30.8710526 Z" id="Shape" fill="#B2D7F3" fill-rule="nonzero"></path>
            <rect id="Rectangle" fill="#B2D7F3" fill-rule="nonzero" x="63" y="10.8710526" width="255" height="16"></rect>
            <g id="Group" opacity="0.4" transform="translate(315.000000, 10.871053)" fill="#0B3051" fill-rule="nonzero">
                <rect id="Rectangle" x="0" y="0" width="3" height="178"></rect>
            </g>
            <g id="Group" opacity="0.4" transform="translate(63.000000, 10.871053)" fill="#0B3051" fill-rule="nonzero">
                <rect id="Rectangle" x="0" y="0" width="3" height="178"></rect>
            </g>
            <rect id="Rectangle" fill="#5AACF7" fill-rule="nonzero" x="183" y="17.8710526" width="15" height="4"></rect>
            <rect id="Rectangle" fill="#67B0EA" fill-rule="nonzero" x="66" y="18.8710526" width="8" height="3"></rect>
            <rect id="Rectangle" fill="#67B0EA" fill-rule="nonzero" x="66" y="12.8710526" width="8" height="3"></rect>
            <rect id="Rectangle" fill="#67B0EA" fill-rule="nonzero" x="308" y="12.8710526" width="8" height="3"></rect>
            <line x1="143.5" y1="44.8710526" x2="143.5" y2="48.8710526" id="Path" stroke="#0B3051"></line>
            <line x1="147.5" y1="44.8710526" x2="147.5" y2="48.8710526" id="Path" stroke="#0B3051"></line>
            <line x1="144" y1="47.3710526" x2="148" y2="47.3710526" id="Path" stroke="#0B3051"></line>
            <line x1="104.5" y1="44.8710526" x2="104.5" y2="48.8710526" id="Path" stroke="#0B3051"></line>
            <line x1="108.5" y1="44.8710526" x2="108.5" y2="48.8710526" id="Path" stroke="#0B3051"></line>
            <line x1="105" y1="47.3710526" x2="109" y2="47.3710526" id="Path" stroke="#0B3051"></line>
            <line x1="65.5" y1="44.8710526" x2="65.5" y2="48.8710526" id="Path" stroke="#0B3051"></line>
            <line x1="70.5" y1="44.8710526" x2="70.5" y2="48.8710526" id="Path" stroke="#0B3051"></line>
            <line x1="66" y1="47.3710526" x2="70" y2="47.3710526" id="Path" stroke="#0B3051"></line>
            <line x1="167" y1="27.3710526" x2="163" y2="27.3710526" id="Path" stroke="#0B3051"></line>
            <line x1="167" y1="30.3710526" x2="163" y2="30.3710526" id="Path" stroke="#0B3051"></line>
            <line x1="165.5" y1="26.8710526" x2="165.5" y2="30.8710526" id="Path" stroke="#0B3051"></line>
            <line x1="167" y1="65.3710526" x2="163" y2="65.3710526" id="Path" stroke="#0B3051"></line>
            <line x1="167" y1="83.3710526" x2="163" y2="83.3710526" id="Path" stroke="#0B3051"></line>
            <line x1="165.5" y1="64.8710526" x2="165.5" y2="82.8710526" id="Path" stroke="#0B3051"></line>
            <line x1="186.5" y1="48.8710526" x2="186.5" y2="44.8710526" id="Path" stroke="#0B3051"></line>
            <line x1="181.5" y1="48.8710526" x2="181.5" y2="44.8710526" id="Path" stroke="#0B3051"></line>
            <line x1="186" y1="47.3710526" x2="181" y2="47.3710526" id="Path" stroke="#0B3051"></line>
            <line x1="224.5" y1="48.8710526" x2="224.5" y2="44.8710526" id="Path" stroke="#0B3051"></line>
            <line x1="220.5" y1="48.8710526" x2="220.5" y2="44.8710526" id="Path" stroke="#0B3051"></line>
            <line x1="225" y1="47.3710526" x2="220" y2="47.3710526" id="Path" stroke="#0B3051"></line>
            <line x1="262.5" y1="48.8710526" x2="262.5" y2="44.8710526" id="Path" stroke="#0B3051"></line>
            <line x1="259.5" y1="48.8710526" x2="259.5" y2="44.8710526" id="Path" stroke="#0B3051"></line>
            <line x1="264" y1="47.3710526" x2="259" y2="47.3710526" id="Path" stroke="#0B3051"></line>
            <rect id="Rectangle" fill="#5AACF7" fill-rule="nonzero" x="70" y="125.871053" width="16" height="4"></rect>
            <line x1="65.5" y1="10.8710526" x2="65.5" y2="188.871053" id="Path" stroke="#FFFFFF" stroke-dasharray="4"></line>
            <line x1="315.5" y1="10.8710526" x2="315.5" y2="188.871053" id="Path" stroke="#FFFFFF" stroke-dasharray="4"></line>
            <line x1="63" y1="83.3710526" x2="64" y2="83.3710526" id="Path" stroke="#FFFFFF"></line>
            <line x1="65" y1="83.3710526" x2="316" y2="83.3710526" id="Path" stroke="#FFFFFF" stroke-dasharray="3.98"></line>
            <line x1="317" y1="83.3710526" x2="318" y2="83.3710526" id="Path" stroke="#FFFFFF"></line>
            <rect id="Rectangle" fill="#5AACF7" fill-rule="nonzero" x="70" y="65.8710526" width="11" height="4"></rect>
            <rect id="Rectangle" fill="#5AACF7" fill-rule="nonzero" x="70" y="83.8710526" width="35" height="4"></rect>
            <rect id="Rectangle" fill="#5AACF7" fill-rule="nonzero" x="70" y="143.871053" width="35" height="4"></rect>
            <rect id="Rectangle" fill="#5AACF7" fill-rule="nonzero" x="109" y="125.871053" width="16" height="4"></rect>
            <rect id="Rectangle" fill="#5AACF7" fill-rule="nonzero" x="71" y="31.8710526" width="33" height="33" rx="2.5"></rect>
            <path d="M102.477612,31.3785153 C103.03814,31.3785153 103.492537,31.8329129 103.492537,32.3934407 L103.492537,63.3486646 C103.492537,63.9091924 103.03814,64.3635899 102.477612,64.3635899 L71.5223881,64.3635899 C70.9618603,64.3635899 70.5074627,63.9091924 70.5074627,63.3486646 L70.5074627,32.3934407 C70.5074627,31.8329129 70.9618603,31.3785153 71.5223881,31.3785153 L102.477612,31.3785153 M102.477612,30.8710526 L71.5223881,30.8710526 C70.6815964,30.8710526 70,31.552649 70,32.3934407 L70,63.3486646 C70,64.1894563 70.6815964,64.8710526 71.5223881,64.8710526 L102.477612,64.8710526 C103.318404,64.8710526 104,64.1894563 104,63.3486646 L104,32.3934407 C104,31.552649 103.318404,30.8710526 102.477612,30.8710526 Z" id="Shape" fill="#B2D7F3" fill-rule="nonzero"></path>
            <rect id="Rectangle" fill="#5AACF7" fill-rule="nonzero" x="109" y="90.8710526" width="16" height="16" rx="2.5"></rect>
            <path d="M124.454545,91.3862041 C125.023566,91.3862041 125.484848,91.8474865 125.484848,92.4165072 L125.484848,106.325598 C125.484848,106.894619 125.023566,107.355901 124.454545,107.355901 L110.545455,107.355901 C109.976434,107.355901 109.515152,106.894619 109.515152,106.325598 L109.515152,92.4165072 C109.515152,91.8474865 109.976434,91.3862041 110.545455,91.3862041 L124.454545,91.3862041 M124.454545,90.8710526 L110.545455,90.8710526 C109.691924,90.8710526 109,91.5629762 109,92.4165072 L109,106.325598 C109,107.179129 109.691924,107.871053 110.545455,107.871053 L124.454545,107.871053 C125.308076,107.871053 126,107.179129 126,106.325598 L126,92.4165072 C126,91.5629762 125.308076,90.8710526 124.454545,90.8710526 Z" id="Shape" fill="#B2D7F3" fill-rule="nonzero"></path>
            <rect id="Rectangle" fill="#5AACF7" fill-rule="nonzero" x="127" y="90.8710526" width="16" height="16" rx="2.5"></rect>
            <path d="M141.454545,91.3862041 C142.023566,91.3862041 142.484848,91.8474865 142.484848,92.4165072 L142.484848,106.325598 C142.484848,106.894619 142.023566,107.355901 141.454545,107.355901 L127.545455,107.355901 C126.976434,107.355901 126.515152,106.894619 126.515152,106.325598 L126.515152,92.4165072 C126.515152,91.8474865 126.976434,91.3862041 127.545455,91.3862041 L141.454545,91.3862041 M141.454545,90.8710526 L127.545455,90.8710526 C126.691924,90.8710526 126,91.5629762 126,92.4165072 L126,106.325598 C126,107.179129 126.691924,107.871053 127.545455,107.871053 L141.454545,107.871053 C142.308076,107.871053 143,107.179129 143,106.325598 L143,92.4165072 C143,91.5629762 142.308076,90.8710526 141.454545,90.8710526 Z" id="Shape" fill="#B2D7F3" fill-rule="nonzero"></path>
            <rect id="Rectangle" fill="#5AACF7" fill-rule="nonzero" x="109" y="107.871053" width="16" height="16" rx="2.5"></rect>
            <path d="M124.454545,108.386204 C125.023566,108.386204 125.484848,108.847487 125.484848,109.416507 L125.484848,123.325598 C125.484848,123.894619 125.023566,124.355901 124.454545,124.355901 L110.545455,124.355901 C109.976434,124.355901 109.515152,123.894619 109.515152,123.325598 L109.515152,109.416507 C109.515152,108.847487 109.976434,108.386204 110.545455,108.386204 L124.454545,108.386204 M124.454545,107.871053 L110.545455,107.871053 C109.691924,107.871053 109,108.562976 109,109.416507 L109,123.325598 C109,124.179129 109.691924,124.871053 110.545455,124.871053 L124.454545,124.871053 C125.308076,124.871053 126,124.179129 126,123.325598 L126,109.416507 C126,108.562976 125.308076,107.871053 124.454545,107.871053 L124.454545,107.871053 Z" id="Shape" fill="#B2D7F3" fill-rule="nonzero"></path>
            <rect id="Rectangle" fill="#5AACF7" fill-rule="nonzero" x="127" y="107.871053" width="16" height="16" rx="2.5"></rect>
            <path d="M141.454545,108.386204 C142.023566,108.386204 142.484848,108.847487 142.484848,109.416507 L142.484848,123.325598 C142.484848,123.894619 142.023566,124.355901 141.454545,124.355901 L127.545455,124.355901 C126.976434,124.355901 126.515152,123.894619 126.515152,123.325598 L126.515152,109.416507 C126.515152,108.847487 126.976434,108.386204 127.545455,108.386204 L141.454545,108.386204 M141.454545,107.871053 L127.545455,107.871053 C126.691924,107.871053 126,108.562976 126,109.416507 L126,123.325598 C126,124.179129 126.691924,124.871053 127.545455,124.871053 L141.454545,124.871053 C142.308076,124.871053 143,124.179129 143,123.325598 L143,109.416507 C143,108.562976 142.308076,107.871053 141.454545,107.871053 L141.454545,107.871053 Z" id="Shape" fill="#B2D7F3" fill-rule="nonzero"></path>
            <rect id="Rectangle" fill="#5AACF7" fill-rule="nonzero" x="109" y="149.871053" width="16" height="16" rx="2.5"></rect>
            <path d="M124.454545,150.386204 C125.023566,150.386204 125.484848,150.847487 125.484848,151.416507 L125.484848,165.325598 C125.484848,165.894619 125.023566,166.355901 124.454545,166.355901 L110.545455,166.355901 C109.976434,166.355901 109.515152,165.894619 109.515152,165.325598 L109.515152,151.416507 C109.515152,150.847487 109.976434,150.386204 110.545455,150.386204 L124.454545,150.386204 M124.454545,149.871053 L110.545455,149.871053 C109.691924,149.871053 109,150.562976 109,151.416507 L109,165.325598 C109,166.179129 109.691924,166.871053 110.545455,166.871053 L124.454545,166.871053 C125.308076,166.871053 126,166.179129 126,165.325598 L126,151.416507 C126,150.562976 125.308076,149.871053 124.454545,149.871053 Z" id="Shape" fill="#B2D7F3" fill-rule="nonzero"></path>
            <rect id="Rectangle" fill="#5AACF7" fill-rule="nonzero" x="127" y="149.871053" width="16" height="16" rx="2.5"></rect>
            <path d="M141.454545,150.386204 C142.023566,150.386204 142.484848,150.847487 142.484848,151.416507 L142.484848,165.325598 C142.484848,165.894619 142.023566,166.355901 141.454545,166.355901 L127.545455,166.355901 C126.976434,166.355901 126.515152,165.894619 126.515152,165.325598 L126.515152,151.416507 C126.515152,150.847487 126.976434,150.386204 127.545455,150.386204 L141.454545,150.386204 M141.454545,149.871053 L127.545455,149.871053 C126.691924,149.871053 126,150.562976 126,151.416507 L126,165.325598 C126,166.179129 126.691924,166.871053 127.545455,166.871053 L141.454545,166.871053 C142.308076,166.871053 143,166.179129 143,165.325598 L143,151.416507 C143,150.562976 142.308076,149.871053 141.454545,149.871053 Z" id="Shape" fill="#B2D7F3" fill-rule="nonzero"></path>
            <rect id="Rectangle" fill="#5AACF7" fill-rule="nonzero" x="109" y="167.871053" width="16" height="16" rx="2.5"></rect>
            <path d="M124.454545,167.386204 C125.023566,167.386204 125.484848,167.847487 125.484848,168.416507 L125.484848,182.325598 C125.484848,182.894619 125.023566,183.355901 124.454545,183.355901 L110.545455,183.355901 C109.976434,183.355901 109.515152,182.894619 109.515152,182.325598 L109.515152,168.416507 C109.515152,167.847487 109.976434,167.386204 110.545455,167.386204 L124.454545,167.386204 M124.454545,166.871053 L110.545455,166.871053 C109.691924,166.871053 109,167.562976 109,168.416507 L109,182.325598 C109,183.179129 109.691924,183.871053 110.545455,183.871053 L124.454545,183.871053 C125.308076,183.871053 126,183.179129 126,182.325598 L126,168.416507 C126,167.562976 125.308076,166.871053 124.454545,166.871053 Z" id="Shape" fill="#B2D7F3" fill-rule="nonzero"></path>
            <rect id="Rectangle" fill="#5AACF7" fill-rule="nonzero" x="127" y="167.871053" width="16" height="16" rx="2.5"></rect>
            <path d="M141.454545,167.386204 C142.023566,167.386204 142.484848,167.847487 142.484848,168.416507 L142.484848,182.325598 C142.484848,182.894619 142.023566,183.355901 141.454545,183.355901 L127.545455,183.355901 C126.976434,183.355901 126.515152,182.894619 126.515152,182.325598 L126.515152,168.416507 C126.515152,167.847487 126.976434,167.386204 127.545455,167.386204 L141.454545,167.386204 M141.454545,166.871053 L127.545455,166.871053 C126.691924,166.871053 126,167.562976 126,168.416507 L126,182.325598 C126,183.179129 126.691924,183.871053 127.545455,183.871053 L141.454545,183.871053 C142.308076,183.871053 143,183.179129 143,182.325598 L143,168.416507 C143,167.562976 142.308076,166.871053 141.454545,166.871053 Z" id="Shape" fill="#B2D7F3" fill-rule="nonzero"></path>
            <rect id="Rectangle" fill="#5AACF7" fill-rule="nonzero" x="71" y="149.871053" width="33" height="33" rx="2.5"></rect>
            <path d="M102.477612,150.378515 C103.03814,150.378515 103.492537,150.832913 103.492537,151.393441 L103.492537,182.348665 C103.492537,182.909192 103.03814,183.36359 102.477612,183.36359 L71.5223881,183.36359 C70.9618603,183.36359 70.5074627,182.909192 70.5074627,182.348665 L70.5074627,151.393441 C70.5074627,150.832913 70.9618603,150.378515 71.5223881,150.378515 L102.477612,150.378515 M102.477612,149.871053 L71.5223881,149.871053 C70.6815964,149.871053 70,150.552649 70,151.393441 L70,182.348665 C70,183.189456 70.6815964,183.871053 71.5223881,183.871053 L102.477612,183.871053 C103.318404,183.871053 104,183.189456 104,182.348665 L104,151.393441 C104,150.552649 103.318404,149.871053 102.477612,149.871053 Z" id="Shape" fill="#B2D7F3" fill-rule="nonzero"></path>
            <rect id="Rectangle" fill="#5AACF7" fill-rule="nonzero" x="148" y="149.871053" width="33" height="33" rx="2.5"></rect>
            <path d="M180.477612,150.378515 C181.03814,150.378515 181.492537,150.832913 181.492537,151.393441 L181.492537,182.348665 C181.492537,182.909192 181.03814,183.36359 180.477612,183.36359 L149.522388,183.36359 C148.96186,183.36359 148.507463,182.909192 148.507463,182.348665 L148.507463,151.393441 C148.507463,150.832913 148.96186,150.378515 149.522388,150.378515 L180.477612,150.378515 M180.477612,149.871053 L149.522388,149.871053 C148.681596,149.871053 148,150.552649 148,151.393441 L148,182.348665 C148,183.189456 148.681596,183.871053 149.522388,183.871053 L180.477612,183.871053 C181.318404,183.871053 182,183.189456 182,182.348665 L182,151.393441 C182,150.552649 181.318404,149.871053 180.477612,149.871053 Z" id="Shape" fill="#B2D7F3" fill-rule="nonzero"></path>
            <rect id="Rectangle" fill="#B2D7F3" fill-rule="nonzero" x="63" y="173.871053" width="255" height="15"></rect>
            <circle id="Oval" fill="#67B0EA" fill-rule="nonzero" cx="157" cy="178.871053" r="3"></circle>
            <rect id="Rectangle" fill="#5AACF7" fill-rule="nonzero" x="163" y="177.871053" width="9" height="2"></rect>
            <rect id="Rectangle" fill="#5AACF7" fill-rule="nonzero" x="109" y="177.871053" width="9" height="2"></rect>
            <polygon id="Path" fill="#67B0EA" fill-rule="nonzero" points="103 175.871053 103.71 178.163778 106 178.163778 104.15 179.578327 104.855 181.871053 103 180.456504 101.15 181.871053 101.855 179.578327 100 178.163778 102.295 178.163778"></polygon>
            <rect id="Rectangle" fill="#67B0EA" fill-rule="nonzero" x="217" y="177.871053" width="9" height="2"></rect>
            <polygon id="Path" fill="#67B0EA" fill-rule="nonzero" points="208 181.871053 211.00254 175.871053 214 181.871053"></polygon>
            <rect id="Rectangle" fill="#67B0EA" fill-rule="nonzero" x="272" y="177.871053" width="9" height="2"></rect>
            <polygon id="Path" fill="#67B0EA" fill-rule="nonzero" points="268.251264 175.871053 264.748736 175.871053 263 178.871053 264.748736 181.871053 268.251264 181.871053 270 178.871053"></polygon>
            <line x1="63" y1="173.371053" x2="64" y2="173.371053" id="Path" stroke="#FFFFFF"></line>
            <line x1="65" y1="173.371053" x2="316" y2="173.371053" id="Path" stroke="#FFFFFF" stroke-dasharray="3.98"></line>
            <line x1="317" y1="173.371053" x2="318" y2="173.371053" id="Path" stroke="#FFFFFF"></line>
            <g id="Group" opacity="0.4" transform="translate(74.000000, 182.871053)" fill="#0B3051" fill-rule="nonzero">
                <rect id="Rectangle" x="0.2856" y="0.06" width="152.6226" height="4.94"></rect>
            </g>
            <line x1="157" y1="185.371053" x2="223" y2="185.371053" id="Path" stroke="#FFFFFF" stroke-width="2" stroke-linecap="round"></line>
            <line x1="75" y1="183.371053" x2="227" y2="183.371053" id="Path" stroke="#FFFFFF" stroke-linecap="round"></line>
            <path d="M328,15.7760024 C327.903573,12.9299442 327.624442,10.3776073 326.477467,7.98225936 C324.625051,4.18413898 321.245026,2.01161412 317.245838,1.3076958 C315.148954,1.00117054 313.031236,0.858939421 310.912099,0.882306322 C307.867032,0.856985519 104.106374,0.882306322 88.7795371,0.882306322 C73.4527,0.882306322 73.1583435,0.882306322 70.1234267,0.882306322 C68.0114483,0.854593874 65.9005324,0.991744388 63.8099878,1.29250332 C59.8107998,2.01161412 56.4257004,4.18413898 54.5783597,7.97213104 C53.411084,10.367479 53.1319529,12.9198159 53.0558262,15.7658741 C53.0050751,17.2851222 53,18.4701358 53,21.0427293 L53,178.907805 C53,181.227191 53,182.483102 53.0507511,183.971966 C53.1471782,186.818024 53.4212343,189.370361 54.5732846,191.765709 C56.4257004,195.563829 59.8057247,197.736354 63.8049127,198.440272 C65.8868247,198.759129 67.992064,198.901434 70.0980512,198.865662 L310.907024,198.865662 C313.020685,198.893266 315.133279,198.756117 317.225538,198.455465 C321.224726,197.751546 324.60475,195.579021 326.457166,191.780901 C327.619367,189.385553 327.898498,186.833216 327.9797,183.987158 L328,15.7760024 Z M313.845514,188.762661 L67.1950873,188.762661 C64.9527619,188.762661 63.134998,186.94882 63.134998,184.711333 L63.134998,14.8948385 C63.1377859,12.7527771 64.8758454,11.0162038 67.0225335,11.0106274 L313.845514,11.0106274 C316.087839,11.0106274 317.905603,12.8244689 317.905603,15.0619558 L317.905603,184.711333 C317.905603,186.94882 316.087839,188.762661 313.845514,188.762661 Z" id="Shape" fill="#B1B1B1" fill-rule="nonzero"></path>
            <path d="M85.5,0.871052632 L75.5,0.871052632 C75.2238576,0.871052632 75,1.09491026 75,1.37105263 L75,1.37105263 C75,1.64719501 75.2238576,1.87105263 75.5,1.87105263 L85.5,1.87105263 C85.7761424,1.87105263 86,1.64719501 86,1.37105263 L86,1.37105263 C86,1.09491026 85.7761424,0.871052632 85.5,0.871052632 Z" id="Path" fill="#B1B1B1" fill-rule="nonzero"></path>
            <path d="M98.5,0.871052632 L88.5,0.871052632 C88.2238576,0.871052632 88,1.09491026 88,1.37105263 L88,1.37105263 C88,1.64719501 88.2238576,1.87105263 88.5,1.87105263 L98.5,1.87105263 C98.7761424,1.87105263 99,1.64719501 99,1.37105263 L99,1.37105263 C99,1.09491026 98.7761424,0.871052632 98.5,0.871052632 Z" id="Path" fill="#B1B1B1" fill-rule="nonzero"></path>
            <path d="M53.5,14.8909913 L53.5,14.8909913 C53.2238576,14.8909913 53,15.1141622 53,15.3894575 L53,27.3725864 C53,27.6478817 53.2238576,27.8710526 53.5,27.8710526 L53.5,27.8710526 C53.7761424,27.8710526 54,27.6478817 54,27.3725864 L54,15.3695189 C54,15.0942236 53.7761424,14.8710526 53.5,14.8710526 L53.5,14.8909913 Z" id="Path" fill="#B1B1B1" fill-rule="nonzero"></path>
            <path d="M325.477214,8.96468669 C323.624491,5.1663966 320.23883,2.99377466 316.233903,2.2898249 C314.139737,1.98736607 312.025098,1.84851749 309.909265,1.87454518 L71.1465705,1.87454518 C69.0308701,1.84684057 66.9162311,1.98399583 64.8219326,2.28476051 C60.8170054,3.00390344 57.4313445,5.17652537 55.5786215,8.96468669 C54.4111522,11.3601416 54.1319748,13.9075282 54.0558355,16.7537136 C54.005076,18.2730296 54,19.4580961 54,22.0308046 L54,177.715119 C54,180.287827 54,181.477958 54.0558355,182.99221 C54.1472026,185.838395 54.4263801,188.390846 55.5786215,190.781237 C57.4313445,194.579527 60.8170054,196.757213 64.8219326,197.456099 C66.9157017,197.761897 69.0307418,197.899078 71.1465705,197.866314 L309.909265,197.866314 C312.025094,197.899078 314.140134,197.761897 316.233903,197.456099 C320.23883,196.757213 323.624491,194.579527 325.477214,190.781237 C326.644683,188.390846 326.923861,185.838395 327,182.99221 L327,16.7638423 C326.923861,13.917657 326.644683,11.3702704 325.477214,8.96468669 Z M317.934347,184.698908 C317.934347,186.936495 316.116282,188.750418 313.873585,188.750418 L67.1822509,188.750418 C64.9395536,188.750418 63.1214882,186.936495 63.1214882,184.698908 L63.1214882,14.8646973 C63.1298656,12.7245242 64.8696688,10.9932118 67.0147444,10.9904414 L313.873585,10.9904414 C316.116282,10.9904414 317.934347,12.804364 317.934347,15.0419508 L317.934347,184.698908 Z" id="Shape" fill="#0B3051" fill-rule="nonzero"></path>
            <path d="M64,100.871053 C65.1045714,100.871053 66,101.76649 66,102.871053 C66,103.975624 65.1045714,104.871053 64,104.871053 C62.8954372,104.871053 62,103.975624 62,102.871053 C61.9984494,102.340149 62.2086619,101.830535 62.5840724,101.455125 C62.9594828,101.079715 63.469096,100.869502 64,100.871053 L64,100.871053 Z" id="Path" fill="#8A8A8A" fill-rule="nonzero"></path>
            <rect id="Rectangle" fill="#B1B1B1" fill-rule="nonzero" x="0" y="58.8710526" width="1" height="6"></rect>
            <rect id="Rectangle" fill="#B1B1B1" fill-rule="nonzero" x="0.766760563" y="85.8710526" width="1" height="11"></rect>
            <rect id="Rectangle" fill="#B1B1B1" fill-rule="nonzero" x="0.766760563" y="70.8710526" width="1" height="11"></rect>
            <rect id="Rectangle" fill="url(#linearGradient-2)" fill-rule="nonzero" x="6" y="41.8710526" width="70" height="152"></rect>
            <rect id="Rectangle" fill="#B2D7F3" fill-rule="nonzero" x="6" y="50.8710526" width="69" height="20"></rect>
            <path d="M76,49.8710526 L6,49.8710526 L6,43.0400667 C6.46771734,41.8428836 7.52516523,40.8710526 8.81647178,40.8710526 L76,40.8710526 L76,49.8710526 Z" id="Path" fill="#B2D7F3" fill-rule="nonzero"></path>
            <g id="Group" opacity="0.4" transform="translate(5.000000, 182.871053)" fill="#0B3051" fill-rule="nonzero">
                <rect id="Rectangle" x="0.0912857143" y="0.377826087" width="70.7616429" height="10.536087"></rect>
            </g>
            <path d="M76,193.871053 L6,193.871053 L6,182.153339 C6.46771734,180.893636 7.52516523,179.871053 8.81647178,179.871053 L76,179.871053 L76,193.871053 Z" id="Path" fill="#B2D7F3" fill-rule="nonzero"></path>
            <path d="M10,178.871053 L10,151.121053 C10,150.430697 10.5596441,149.871053 11.25,149.871053 L37.75,149.871053 C38.4403559,149.871053 39,150.430697 39,151.121053 L39,178.871053 L10,178.871053 Z" id="Path" fill="#5AACF7" fill-rule="nonzero"></path>
            <path d="M37.4745763,149.379527 C38.0362218,149.379527 38.4915254,149.834831 38.4915254,150.396476 L38.4915254,178.362578 L9.50847458,178.362578 L9.50847458,150.396476 C9.50847458,149.834831 9.96377822,149.379527 10.5254237,149.379527 L37.4745763,149.379527 M37.4745763,148.871053 L10.5254237,148.871053 C9.68295547,148.871053 9,149.554008 9,150.396476 L9,178.871053 L39,178.871053 L39,150.396476 C39,149.554008 38.3170445,148.871053 37.4745763,148.871053 Z" id="Shape" fill="#B2D7F3" fill-rule="nonzero"></path>
            <path d="M43,178.871053 L43,151.121053 C43,150.430697 43.5596441,149.871053 44.25,149.871053 L70.75,149.871053 C71.4403559,149.871053 72,150.430697 72,151.121053 L72,178.871053 L43,178.871053 Z" id="Path" fill="#5AACF7" fill-rule="nonzero"></path>
            <path d="M70.4745763,149.379527 C71.0362218,149.379527 71.4915254,149.834831 71.4915254,150.396476 L71.4915254,178.362578 L42.5084746,178.362578 L42.5084746,150.396476 C42.5084746,149.834831 42.9637782,149.379527 43.5254237,149.379527 L70.4745763,149.379527 M70.4745763,148.871053 L43.5254237,148.871053 C42.6829555,148.871053 42,149.554008 42,150.396476 L42,178.871053 L72,178.871053 L72,150.396476 C72,149.554008 71.3170445,148.871053 70.4745763,148.871053 Z" id="Shape" fill="#B2D7F3" fill-rule="nonzero"></path>
            <polygon id="Path" fill="#B2D7F3" fill-rule="nonzero" points="6.02029412 178.871053 75 178.871053 75 187.871053 6 187.871053"></polygon>
            <path d="M68.637375,41.9331644 C72.6699415,41.9359588 75.9375,45.2055335 75.9375,49.2377918 L75.9375,187.504314 C75.9375,191.536572 72.6699415,194.806146 68.637375,194.808941 L12.362625,194.808941 C8.33005852,194.806146 5.0625,191.536572 5.0625,187.504314 L5.0625,49.2377918 C5.0625,45.2055335 8.33005852,41.9359588 12.362625,41.9331644 L68.637375,41.9331644 M68.637375,36.8710526 L12.362625,36.8710526 C5.53643086,36.8794254 0.00557866741,42.4121182 0,49.2377918 L0,187.504314 C0.00557866741,194.329987 5.53643086,199.86268 12.362625,199.871053 L68.637375,199.871053 C75.4635691,199.86268 80.9944213,194.329987 81,187.504314 L81,49.2377918 C80.9944213,42.4121182 75.4635691,36.8794254 68.637375,36.8710526 Z" id="Shape" fill="#DFDFDF" fill-rule="nonzero"></path>
            <path d="M68.9935443,42.4273026 C73.0771559,42.4300972 76.3860759,45.6999227 76.3860759,49.7324901 L76.3860759,188.009615 C76.3860759,192.042183 73.0771559,195.312008 68.9935443,195.314803 L12.0064557,195.314803 C7.92284407,195.312008 4.61392405,192.042183 4.61392405,188.009615 L4.61392405,49.7324901 C4.61392405,45.6999227 7.92284407,42.4300972 12.0064557,42.4273026 L68.9935443,42.4273026 M68.9935443,37.8710526 L12.0064557,37.8710526 C5.37698726,37.8794254 0.00564871348,43.1858871 0,49.7324901 L0,188.009615 C0.00564871348,194.556218 5.37698726,199.86268 12.0064557,199.871053 L68.9935443,199.871053 C75.6230127,199.86268 80.9943513,194.556218 81,188.009615 L81,49.7324901 C80.9943513,43.1858871 75.6230127,37.8794254 68.9935443,37.8710526 Z" id="Shape" fill="#B1B1B1" fill-rule="nonzero"></path>
            <g id="Group" opacity="0.4" transform="translate(6.000000, 41.871053)" fill="#0B3051" fill-rule="nonzero">
                <rect id="Rectangle" x="0" y="0" width="2" height="150"></rect>
            </g>
            <g id="Group" opacity="0.4" transform="translate(73.000000, 42.871053)" fill="#0B3051" fill-rule="nonzero">
                <rect id="Rectangle" x="0" y="0" width="2" height="150"></rect>
            </g>
            <g id="Group" opacity="0.4" transform="translate(6.000000, 41.871053)" fill="#0B3051" fill-rule="nonzero">
                <rect id="Rectangle" x="0" y="0" width="70" height="9"></rect>
            </g>
            <g id="Group" opacity="0.4" transform="translate(6.000000, 186.871053)" fill="#0B3051" fill-rule="nonzero">
                <rect id="Rectangle" x="0.0507246377" y="0.485" width="69.8478261" height="6.425"></rect>
            </g>
            <path d="M67.7944737,42.922008 C71.7437505,42.9248009 74.9445744,46.124301 74.9473684,50.0719444 L74.9473684,186.670161 C74.9445744,190.617804 71.7437505,193.817304 67.7944737,193.820097 L13.2055263,193.820097 C9.25624952,193.817304 6.05542555,190.617804 6.05263158,186.670161 L6.05263158,50.0719444 C6.05542555,46.124301 9.25624952,42.9248009 13.2055263,42.922008 L67.7944737,42.922008 M67.7944737,38.8710526 L13.2055263,38.8710526 C7.01688502,38.8710526 2,43.8858627 2,50.0719444 L2,186.670161 C2,192.856243 7.01688502,197.871053 13.2055263,197.871053 L67.7944737,197.871053 C73.983115,197.871053 79,192.856243 79,186.670161 L79,50.0719444 C79,43.8858627 73.983115,38.8710526 67.7944737,38.8710526 Z" id="Shape" fill="#0B3051" fill-rule="nonzero"></path>
            <path d="M61.994906,38.8710526 L20,38.8710526 L20,42.1799196 C20.5552456,42.1799196 20.7946634,42.0871476 21.2378411,42.4840055 C21.637635,42.8594538 21.8379455,43.4043684 21.7778047,43.952895 C21.7658308,44.2865735 21.8036107,44.620173 21.8898727,44.9424627 C22.1057455,45.6504177 22.4967564,46.2908554 23.0258338,46.8030561 C23.4880725,47.2756221 24.0753184,47.6031277 24.7170406,47.7462378 C25.3786308,47.8544664 26.0495859,47.8924686 26.7189812,47.8596258 L55.2453608,47.8596258 C55.9147562,47.8924686 56.5857112,47.8544664 57.2473014,47.7462378 C57.8890236,47.6031277 58.4762695,47.2756221 58.9385082,46.8030561 C59.4675856,46.2908554 59.8585965,45.6504177 60.0744694,44.9424627 C60.1607313,44.620173 60.1985112,44.2865735 60.1865373,43.952895 C60.128857,43.4046784 60.3287698,42.8608458 60.7265009,42.4840055 C61.1696786,42.0871476 61.4447544,42.1799196 62,42.1799196 L61.994906,38.8710526 Z" id="Path" fill="#0B3051" fill-rule="nonzero"></path>
            <line x1="6" y1="179.371053" x2="7" y2="179.371053" id="Path" stroke="#FFFFFF"></line>
            <line x1="9" y1="179.371053" x2="74" y2="179.371053" id="Path" stroke="#FFFFFF" stroke-dasharray="3.94"></line>
            <line x1="74" y1="179.371053" x2="75" y2="179.371053" id="Path" stroke="#FFFFFF"></line>
            <line x1="28" y1="191.371053" x2="53" y2="191.371053" id="Path" stroke="#FFFFFF" stroke-width="2" stroke-linecap="round"></line>
            <rect id="Rectangle" fill="#5AACF7" fill-rule="nonzero" x="9" y="60.8710526" width="14" height="6"></rect>
            <rect id="Rectangle" fill="#67B0EA" fill-rule="nonzero" x="8" y="50.8710526" width="7" height="3"></rect>
            <rect id="Rectangle" fill="#67B0EA" fill-rule="nonzero" x="65" y="50.8710526" width="7" height="3"></rect>
            <rect id="Rectangle" stroke="#FFFFFF" x="7" y="49.8710526" width="68" height="137"></rect>
            <circle id="Oval" fill="#67B0EA" fill-rule="nonzero" cx="32" cy="181.871053" r="2"></circle>
            <rect id="Rectangle" fill="#5AACF7" fill-rule="nonzero" x="27" y="184.871053" width="9" height="1"></rect>
            <rect id="Rectangle" fill="#5AACF7" fill-rule="nonzero" x="10" y="184.871053" width="9" height="1"></rect>
            <polygon id="Path" fill="#67B0EA" fill-rule="nonzero" points="14.5 179.871053 15.0896226 181.399589 17 181.399589 15.4551887 182.342517 16.0448113 183.871053 14.5 182.928125 12.9551887 183.871053 13.5448113 182.342517 12 181.399589 13.9103774 181.399589"></polygon>
            <rect id="Rectangle" fill="#5AACF7" fill-rule="nonzero" x="44" y="184.871053" width="9" height="1"></rect>
            <polygon id="Path" fill="#67B0EA" fill-rule="nonzero" points="47 183.871053 49.0024969 179.871053 51 183.871053"></polygon>
            <rect id="Rectangle" fill="#5AACF7" fill-rule="nonzero" x="61" y="184.871053" width="9" height="1"></rect>
            <polygon id="Path" fill="#67B0EA" fill-rule="nonzero" points="66.75 179.871053 64.25 179.871053 63 181.871053 64.25 183.871053 66.75 183.871053 68 181.871053"></polygon>
            <rect id="Rectangle" fill="#5AACF7" fill-rule="nonzero" x="10" y="103.871053" width="12" height="3"></rect>
            <rect id="Rectangle" fill="#5AACF7" fill-rule="nonzero" x="10" y="73.8710526" width="29" height="29" rx="2.5"></rect>
            <path d="M37.4745763,73.3795272 C38.0362218,73.3795272 38.4915254,73.8348309 38.4915254,74.3964764 L38.4915254,101.345629 C38.4915254,101.907274 38.0362218,102.362578 37.4745763,102.362578 L10.5254237,102.362578 C9.96377822,102.362578 9.50847458,101.907274 9.50847458,101.345629 L9.50847458,74.3964764 C9.50847458,73.8348309 9.96377822,73.3795272 10.5254237,73.3795272 L37.4745763,73.3795272 M37.4745763,72.8710526 L10.5254237,72.8710526 C9.68295547,72.8710526 9,73.5540081 9,74.3964764 L9,101.345629 C9,102.188097 9.68295547,102.871053 10.5254237,102.871053 L37.4745763,102.871053 C38.3170445,102.871053 39,102.188097 39,101.345629 L39,74.3964764 C39,73.5540081 38.3170445,72.8710526 37.4745763,72.8710526 Z" id="Shape" fill="#B2D7F3" fill-rule="nonzero"></path>
            <rect id="Rectangle" fill="#5AACF7" fill-rule="nonzero" x="42" y="103.871053" width="12" height="3"></rect>
            <rect id="Rectangle" fill="#5AACF7" fill-rule="nonzero" x="43" y="73.8710526" width="29" height="29" rx="2.5"></rect>
            <path d="M70.4745763,73.3795272 C71.0362218,73.3795272 71.4915254,73.8348309 71.4915254,74.3964764 L71.4915254,101.345629 C71.4915254,101.907274 71.0362218,102.362578 70.4745763,102.362578 L43.5254237,102.362578 C42.9637782,102.362578 42.5084746,101.907274 42.5084746,101.345629 L42.5084746,74.3964764 C42.5084746,73.8348309 42.9637782,73.3795272 43.5254237,73.3795272 L70.4745763,73.3795272 M70.4745763,72.8710526 L43.5254237,72.8710526 C42.6829555,72.8710526 42,73.5540081 42,74.3964764 L42,101.345629 C42,102.188097 42.6829555,102.871053 43.5254237,102.871053 L70.4745763,102.871053 C71.3170445,102.871053 72,102.188097 72,101.345629 L72,74.3964764 C72,73.5540081 71.3170445,72.8710526 70.4745763,72.8710526 Z" id="Shape" fill="#B2D7F3" fill-rule="nonzero"></path>
            <rect id="Rectangle" fill="#5AACF7" fill-rule="nonzero" x="10" y="142.871053" width="12" height="3"></rect>
            <rect id="Rectangle" fill="#5AACF7" fill-rule="nonzero" x="10" y="111.871053" width="29" height="29" rx="2.5"></rect>
            <path d="M37.4745763,112.379527 C38.0362218,112.379527 38.4915254,112.834831 38.4915254,113.396476 L38.4915254,140.345629 C38.4915254,140.907274 38.0362218,141.362578 37.4745763,141.362578 L10.5254237,141.362578 C9.96377822,141.362578 9.50847458,140.907274 9.50847458,140.345629 L9.50847458,113.396476 C9.50847458,112.834831 9.96377822,112.379527 10.5254237,112.379527 L37.4745763,112.379527 M37.4745763,111.871053 L10.5254237,111.871053 C9.68295547,111.871053 9,112.554008 9,113.396476 L9,140.345629 C9,141.188097 9.68295547,141.871053 10.5254237,141.871053 L37.4745763,141.871053 C38.3170445,141.871053 39,141.188097 39,140.345629 L39,113.396476 C39,112.554008 38.3170445,111.871053 37.4745763,111.871053 Z" id="Shape" fill="#B2D7F3" fill-rule="nonzero"></path>
            <rect id="Rectangle" fill="#5AACF7" fill-rule="nonzero" x="42" y="142.871053" width="12" height="3"></rect>
            <rect id="Rectangle" fill="#5AACF7" fill-rule="nonzero" x="43" y="111.871053" width="29" height="29" rx="2.5"></rect>
            <path d="M70.4745763,112.379527 C71.0362218,112.379527 71.4915254,112.834831 71.4915254,113.396476 L71.4915254,140.345629 C71.4915254,140.907274 71.0362218,141.362578 70.4745763,141.362578 L43.5254237,141.362578 C42.9637782,141.362578 42.5084746,140.907274 42.5084746,140.345629 L42.5084746,113.396476 C42.5084746,112.834831 42.9637782,112.379527 43.5254237,112.379527 L70.4745763,112.379527 M70.4745763,111.871053 L43.5254237,111.871053 C42.6829555,111.871053 42,112.554008 42,113.396476 L42,140.345629 C42,141.188097 42.6829555,141.871053 43.5254237,141.871053 L70.4745763,141.871053 C71.3170445,141.871053 72,141.188097 72,140.345629 L72,113.396476 C72,112.554008 71.3170445,111.871053 70.4745763,111.871053 Z" id="Shape" fill="#FFFFFF" fill-rule="nonzero"></path>
            <line x1="59" y1="103.371053" x2="55" y2="103.371053" id="Path" stroke="#0B3051"></line>
            <line x1="59" y1="110.371053" x2="55" y2="110.371053" id="Path" stroke="#0B3051"></line>
            <line x1="56.5" y1="102.871053" x2="56.5" y2="111.871053" id="Path" stroke="#0B3051"></line>
            <line x1="39.5" y1="124.871053" x2="39.5" y2="128.871053" id="Path" stroke="#0B3051"></line>
            <line x1="42.5" y1="124.871053" x2="42.5" y2="128.871053" id="Path" stroke="#0B3051"></line>
            <line x1="39" y1="127.371053" x2="42" y2="127.371053" id="Path" stroke="#0B3051"></line>
            <line x1="59" y1="71.3710526" x2="55" y2="71.3710526" id="Path" stroke="#0B3051"></line>
            <line x1="59" y1="73.3710526" x2="55" y2="73.3710526" id="Path" stroke="#0B3051"></line>
            <line x1="56.5" y1="70.8710526" x2="56.5" y2="73.8710526" id="Path" stroke="#0B3051"></line>
            <line x1="72.5" y1="44.8710526" x2="72.5" y2="191.871053" id="Path" stroke="#FFFFFF" stroke-dasharray="4"></line>
            <line x1="8.5" y1="44.8710526" x2="8.5" y2="191.871053" id="Path" stroke="#FFFFFF" stroke-dasharray="4"></line>
            <rect id="Rectangle" stroke="#FFFFFF" fill="#5AACF7" fill-rule="nonzero" x="335" y="153.871053" width="9" height="6" rx="3"></rect>
            <circle id="Oval" fill="#FFFFFF" fill-rule="nonzero" cx="341" cy="156.871053" r="2"></circle>
            <rect id="Rectangle" stroke="#67B0EA" x="311" y="130.871053" width="8" height="8" rx="2"></rect>
            <rect id="Rectangle" fill="url(#linearGradient-3)" fill-rule="nonzero" x="203" y="124.871053" width="152" height="70"></rect>
            <path d="M347.628199,123.933551 C349.565507,123.93221 351.424001,124.700573 352.794833,126.069612 C354.165666,127.438651 354.937888,129.296221 354.937888,131.233678 L354.937888,187.508428 C354.937888,189.445884 354.165666,191.303454 352.794833,192.672493 C351.424001,194.041532 349.565507,194.809896 347.628199,194.808554 L209.371801,194.808554 C207.434493,194.809896 205.575999,194.041532 204.205167,192.672493 C202.834334,191.303454 202.062112,189.445884 202.062112,187.508428 L202.062112,131.233678 C202.062112,129.296221 202.834334,127.438651 204.205167,126.069612 C205.575999,124.700573 207.434493,123.93221 209.371801,123.933551 L347.628199,123.933551 M347.628199,118.871053 L209.371801,118.871053 C202.544151,118.87384 197.008377,124.405508 197,131.233678 L197,187.508428 C197.008377,194.336597 202.544151,199.868265 209.371801,199.871053 L347.628199,199.871053 C354.455849,199.868265 359.991623,194.336597 360,187.508428 L360,131.233678 C359.991623,124.405508 354.455849,118.87384 347.628199,118.871053 L347.628199,118.871053 Z" id="Shape" fill="#DFDFDF" fill-rule="nonzero"></path>
            <path d="M347.1335,123.484975 C349.070956,123.483617 350.929593,124.261706 352.300531,125.648075 C353.671469,127.034444 354.44375,128.915527 354.44375,130.877508 L354.44375,187.864597 C354.44375,189.826578 353.671469,191.707661 352.300531,193.09403 C350.929593,194.480399 349.070956,195.258489 347.1335,195.25713 L208.8665,195.25713 C206.929044,195.258489 205.070407,194.480399 203.699469,193.09403 C202.328531,191.707661 201.55625,189.826578 201.55625,187.864597 L201.55625,130.877508 C201.55625,128.915527 202.328531,127.034444 203.699469,125.648075 C205.070407,124.261706 206.929044,123.483617 208.8665,123.484975 L347.1335,123.484975 M347.1335,118.871053 L208.8665,118.871053 C202.319074,118.876695 197.011161,124.247211 197,130.877508 L197,187.864597 C197.011161,194.494894 202.319074,199.86541 208.8665,199.871053 L347.1335,199.871053 C353.680926,199.86541 358.988839,194.494894 359,187.864597 L359,130.877508 C358.988839,124.247211 353.680926,118.876695 347.1335,118.871053 L347.1335,118.871053 Z" id="Shape" fill="#B1B1B1" fill-rule="nonzero"></path>
            <path d="M346.799108,124.923684 C350.746752,124.926478 353.946252,128.127302 353.949045,132.076579 L353.949045,186.665526 C353.946252,190.614803 350.746752,193.815627 346.799108,193.818421 L210.200892,193.818421 C206.253248,193.815627 203.053748,190.614803 203.050955,186.665526 L203.050955,132.076579 C203.053748,128.127302 206.253248,124.926478 210.200892,124.923684 L346.799108,124.923684 M346.799108,120.871053 L210.200892,120.871053 C204.01481,120.871053 199,125.887938 199,132.076579 L199,186.665526 C199,192.854168 204.01481,197.871053 210.200892,197.871053 L346.799108,197.871053 C352.98519,197.871053 358,192.854168 358,186.665526 L358,132.076579 C358,125.887938 352.98519,120.871053 346.799108,120.871053 Z" id="Shape" fill="#0B3051" fill-rule="nonzero"></path>
            <path d="M200,138.876146 L200,180.871053 L203.308837,180.871053 C203.308837,180.310781 203.216066,180.076486 203.61292,179.633362 C203.989228,179.234487 204.532841,179.032792 205.081797,179.08837 C205.415292,179.104446 205.749262,179.068347 206.071356,178.981409 C206.779304,178.765562 207.419736,178.374599 207.931932,177.845586 C208.403323,177.38253 208.730624,176.795717 208.875106,176.154584 C208.983333,175.493074 209.021335,174.8222 208.988493,174.152886 L208.988493,145.629966 C209.021486,144.960651 208.983483,144.289762 208.875106,143.628268 C208.731997,142.986624 208.404494,142.399449 207.931932,141.937267 C207.419893,141.406927 206.779557,141.014269 206.071356,140.79635 C205.748776,140.711967 205.415207,140.675912 205.081797,140.689389 C204.533894,140.744655 203.991116,140.545152 203.61292,140.149491 C203.216066,139.706367 203.308837,139.431324 203.308837,138.871053 L200,138.876146 Z" id="Path" fill="#0B3051" fill-rule="nonzero"></path>
            <rect id="Rectangle" fill="#B1B1B1" fill-rule="nonzero" x="235" y="119.637813" width="19" height="1"></rect>
            <rect id="Rectangle" fill="#DFDFDF" fill-rule="nonzero" x="235" y="118.637813" width="19" height="1"></rect>
            <rect id="Rectangle" fill="#B2D7F3" fill-rule="nonzero" x="210" y="123.871053" width="138" height="7"></rect>
            <path d="M221,181.871053 L221,174.055263 C221,173.401242 221.559644,172.871053 222.25,172.871053 L248.75,172.871053 C249.440356,172.871053 250,173.401242 250,174.055263 L250,181.871053 L221,181.871053 Z" id="Path" fill="#5AACF7" fill-rule="nonzero"></path>
            <path d="M248.474576,172.371053 C249.036222,172.371053 249.491525,172.818768 249.491525,173.371053 L249.491525,181.371053 L220.508475,181.371053 L220.508475,173.371053 C220.508475,172.818768 220.963778,172.371053 221.525424,172.371053 L248.474576,172.371053 M248.474576,171.871053 L221.525424,171.871053 C220.682955,171.871053 220,172.542626 220,173.371053 L220,181.871053 L250,181.871053 L250,173.371053 C250,172.542626 249.317045,171.871053 248.474576,171.871053 L248.474576,171.871053 Z" id="Shape" fill="#B2D7F3" fill-rule="nonzero"></path>
            <path d="M265,181.871053 L265,174.055263 C265,173.401242 265.559644,172.871053 266.25,172.871053 L292.75,172.871053 C293.440356,172.871053 294,173.401242 294,174.055263 L294,181.871053 L265,181.871053 Z" id="Path" fill="#5AACF7" fill-rule="nonzero"></path>
            <path d="M292.474576,172.371053 C293.036222,172.371053 293.491525,172.818768 293.491525,173.371053 L293.491525,181.371053 L264.508475,181.371053 L264.508475,173.371053 C264.508475,172.818768 264.963778,172.371053 265.525424,172.371053 L292.474576,172.371053 M292.474576,171.871053 L265.525424,171.871053 C264.682955,171.871053 264,172.542626 264,173.371053 L264,181.871053 L294,181.871053 L294,173.371053 C294,172.542626 293.317045,171.871053 292.474576,171.871053 Z" id="Shape" fill="#B2D7F3" fill-rule="nonzero"></path>
            <path d="M308,181.871053 L308,174.055263 C308,173.401242 308.559644,172.871053 309.25,172.871053 L335.75,172.871053 C336.440356,172.871053 337,173.401242 337,174.055263 L337,181.871053 L308,181.871053 Z" id="Path" fill="#5AACF7" fill-rule="nonzero"></path>
            <path d="M336.474576,172.371053 C337.036222,172.371053 337.491525,172.818768 337.491525,173.371053 L337.491525,181.371053 L308.508475,181.371053 L308.508475,173.371053 C308.508475,172.818768 308.963778,172.371053 309.525424,172.371053 L336.474576,172.371053 M336.474576,171.871053 L309.525424,171.871053 C308.682955,171.871053 308,172.542626 308,173.371053 L308,181.871053 L338,181.871053 L338,173.371053 C338,172.542626 337.317045,171.871053 336.474576,171.871053 Z" id="Shape" fill="#B2D7F3" fill-rule="nonzero"></path>
            <rect id="Rectangle" fill="#B2D7F3" fill-rule="nonzero" x="211" y="181.871053" width="137" height="7"></rect>
            <g id="Group" opacity="0.4" transform="translate(210.000000, 124.871053)" fill="#0B3051" fill-rule="nonzero">
                <rect id="Rectangle" x="0" y="0" width="2" height="70"></rect>
            </g>
            <g id="Group" opacity="0.4" transform="translate(346.000000, 124.871053)" fill="#0B3051" fill-rule="nonzero">
                <rect id="Rectangle" x="0" y="0" width="2" height="70"></rect>
            </g>
            <path d="M347.492647,124.378865 L347.492647,188.36324 L210.507353,188.36324 L210.507353,124.378865 L347.492647,124.378865 M348,123.871053 L210,123.871053 L210,188.871053 L348,188.871053 L348,123.871053 Z" id="Shape" fill="#FFFFFF" fill-rule="nonzero"></path>
            <line x1="262" y1="191.371053" x2="297" y2="191.371053" id="Path" stroke="#FFFFFF" stroke-width="2" stroke-linecap="round"></line>
            <circle id="Oval" fill="#67B0EA" fill-rule="nonzero" cx="260" cy="184.871053" r="2"></circle>
            <rect id="Rectangle" fill="#5AACF7" fill-rule="nonzero" x="262" y="184.871053" width="9" height="1"></rect>
            <rect id="Rectangle" fill="#5AACF7" fill-rule="nonzero" x="232" y="184.871053" width="9" height="1"></rect>
            <polygon id="Path" fill="#67B0EA" fill-rule="nonzero" points="227.5 182.871053 228.089623 184.399589 230 184.399589 228.455189 185.342517 229.044811 186.871053 227.5 185.928125 225.955189 186.871053 226.544811 185.342517 225 184.399589 226.910377 184.399589"></polygon>
            <rect id="Rectangle" fill="#5AACF7" fill-rule="nonzero" x="293" y="184.871053" width="9" height="1"></rect>
            <polygon id="Path" fill="#67B0EA" fill-rule="nonzero" points="289 186.871053 290.997503 182.871053 293 186.871053"></polygon>
            <rect id="Rectangle" fill="#5AACF7" fill-rule="nonzero" x="326" y="184.871053" width="9" height="1"></rect>
            <polygon id="Path" fill="#67B0EA" fill-rule="nonzero" points="322.748646 182.871053 320.245937 182.871053 319 184.871053 320.245937 186.871053 322.748646 186.871053 324 184.871053"></polygon>
            <rect id="Rectangle" fill="#67B0EA" fill-rule="nonzero" x="213" y="125.871053" width="7" height="3"></rect>
            <rect id="Rectangle" fill="#67B0EA" fill-rule="nonzero" x="338" y="125.871053" width="7" height="3"></rect>
            <rect id="Rectangle" fill="#5AACF7" fill-rule="nonzero" x="271" y="125.871053" width="14" height="3"></rect>
            <rect id="Rectangle" fill="#5AACF7" fill-rule="nonzero" x="220" y="164.871053" width="12" height="3"></rect>
            <rect id="Rectangle" fill="#5AACF7" fill-rule="nonzero" x="221" y="133.871053" width="29" height="29" rx="2.5"></rect>
            <path d="M248.474576,134.379527 C249.036222,134.379527 249.491525,134.834831 249.491525,135.396476 L249.491525,162.345629 C249.491525,162.907274 249.036222,163.362578 248.474576,163.362578 L221.525424,163.362578 C220.963778,163.362578 220.508475,162.907274 220.508475,162.345629 L220.508475,135.396476 C220.508475,134.834831 220.963778,134.379527 221.525424,134.379527 L248.474576,134.379527 M248.474576,133.871053 L221.525424,133.871053 C220.682955,133.871053 220,134.554008 220,135.396476 L220,162.345629 C220,163.188097 220.682955,163.871053 221.525424,163.871053 L248.474576,163.871053 C249.317045,163.871053 250,163.188097 250,162.345629 L250,135.396476 C250,134.554008 249.317045,133.871053 248.474576,133.871053 L248.474576,133.871053 Z" id="Shape" fill="#B2D7F3" fill-rule="nonzero"></path>
            <rect id="Rectangle" fill="#5AACF7" fill-rule="nonzero" x="264" y="164.871053" width="12" height="3"></rect>
            <rect id="Rectangle" fill="#5AACF7" fill-rule="nonzero" x="265" y="133.871053" width="29" height="29" rx="2.5"></rect>
            <path d="M292.474576,134.379527 C293.036222,134.379527 293.491525,134.834831 293.491525,135.396476 L293.491525,162.345629 C293.491525,162.907274 293.036222,163.362578 292.474576,163.362578 L265.525424,163.362578 C264.963778,163.362578 264.508475,162.907274 264.508475,162.345629 L264.508475,135.396476 C264.508475,134.834831 264.963778,134.379527 265.525424,134.379527 L292.474576,134.379527 M292.474576,133.871053 L265.525424,133.871053 C264.682955,133.871053 264,134.554008 264,135.396476 L264,162.345629 C264,163.188097 264.682955,163.871053 265.525424,163.871053 L292.474576,163.871053 C293.317045,163.871053 294,163.188097 294,162.345629 L294,135.396476 C294,134.554008 293.317045,133.871053 292.474576,133.871053 Z" id="Shape" fill="#B2D7F3" fill-rule="nonzero"></path>
            <rect id="Rectangle" fill="#5AACF7" fill-rule="nonzero" x="308" y="164.871053" width="12" height="3"></rect>
            <rect id="Rectangle" fill="#5AACF7" fill-rule="nonzero" x="308" y="133.871053" width="29" height="29" rx="2.5"></rect>
            <path d="M336.474576,134.379527 C337.036222,134.379527 337.491525,134.834831 337.491525,135.396476 L337.491525,162.345629 C337.491525,162.907274 337.036222,163.362578 336.474576,163.362578 L309.525424,163.362578 C308.963778,163.362578 308.508475,162.907274 308.508475,162.345629 L308.508475,135.396476 C308.508475,134.834831 308.963778,134.379527 309.525424,134.379527 L336.474576,134.379527 M336.474576,133.871053 L309.525424,133.871053 C308.682955,133.871053 308,134.554008 308,135.396476 L308,162.345629 C308,163.188097 308.682955,163.871053 309.525424,163.871053 L336.474576,163.871053 C337.317045,163.871053 338,163.188097 338,162.345629 L338,135.396476 C338,134.554008 337.317045,133.871053 336.474576,133.871053 Z" id="Shape" fill="#FFFFFF" fill-rule="nonzero"></path>
            <line x1="345.5" y1="124.871053" x2="345.5" y2="193.871053" id="Path" stroke="#FFFFFF" stroke-dasharray="4"></line>
            <line x1="212.5" y1="124.871053" x2="212.5" y2="193.871053" id="Path" stroke="#FFFFFF" stroke-dasharray="4"></line>
            <line x1="325" y1="163.371053" x2="321" y2="163.371053" id="Path" stroke="#0B3051"></line>
            <line x1="325" y1="172.371053" x2="321" y2="172.371053" id="Path" stroke="#0B3051"></line>
            <line x1="322.5" y1="162.871053" x2="322.5" y2="171.871053" id="Path" stroke="#0B3051"></line>
            <line x1="294.5" y1="145.871053" x2="294.5" y2="149.871053" id="Path" stroke="#0B3051"></line>
            <line x1="307.5" y1="145.871053" x2="307.5" y2="149.871053" id="Path" stroke="#0B3051"></line>
            <line x1="295" y1="148.371053" x2="308" y2="148.371053" id="Path" stroke="#0B3051"></line>
            <line x1="250.5" y1="145.871053" x2="250.5" y2="149.871053" id="Path" stroke="#0B3051"></line>
            <line x1="263.5" y1="145.871053" x2="263.5" y2="149.871053" id="Path" stroke="#0B3051"></line>
            <line x1="251" y1="148.371053" x2="264" y2="148.371053" id="Path" stroke="#0B3051"></line>
            <line x1="210.5" y1="145.871053" x2="210.5" y2="149.871053" id="Path" stroke="#0B3051"></line>
            <line x1="220.5" y1="145.871053" x2="220.5" y2="149.871053" id="Path" stroke="#0B3051"></line>
            <line x1="211" y1="148.371053" x2="220" y2="148.371053" id="Path" stroke="#0B3051"></line>
            <line x1="325" y1="131.371053" x2="321" y2="131.371053" id="Path" stroke="#0B3051"></line>
            <line x1="325" y1="133.371053" x2="321" y2="133.371053" id="Path" stroke="#0B3051"></line>
            <line x1="322.5" y1="130.871053" x2="322.5" y2="133.871053" id="Path" stroke="#0B3051"></line>
            <line x1="203" y1="181.371053" x2="204" y2="181.371053" id="Path" stroke="#FFFFFF"></line>
            <line x1="206" y1="181.371053" x2="353" y2="181.371053" id="Path" stroke="#FFFFFF" stroke-dasharray="4.04"></line>
            <line x1="352" y1="181.371053" x2="353" y2="181.371053" id="Path" stroke="#FFFFFF"></line>
            <line x1="203" y1="130.371053" x2="204" y2="130.371053" id="Path" stroke="#FFFFFF"></line>
            <line x1="206" y1="130.371053" x2="353" y2="130.371053" id="Path" stroke="#FFFFFF" stroke-dasharray="4.04"></line>
            <line x1="352" y1="130.371053" x2="353" y2="130.371053" id="Path" stroke="#FFFFFF"></line>
        </g>
    </g>
</svg>