<?xml version="1.0" encoding="UTF-8"?>
<svg width="600px" height="360px" viewBox="0 0 600 360" version="1.1" xmlns="http://www.w3.org/2000/svg" xmlns:xlink="http://www.w3.org/1999/xlink">
    <title>2020-0927a@1x</title>
    <defs>
        <linearGradient x1="49.9969298%" y1="27.1808915%" x2="49.9969298%" y2="72.9719823%" id="linearGradient-1">
            <stop stop-color="#7ECCFD" offset="0%"></stop>
            <stop stop-color="#3FA9F5" offset="100%"></stop>
        </linearGradient>
        <linearGradient x1="49.9966229%" y1="57.5266262%" x2="49.9966229%" y2="122.242479%" id="linearGradient-2">
            <stop stop-color="#7ECCFD" offset="0%"></stop>
            <stop stop-color="#3FA9F5" offset="100%"></stop>
        </linearGradient>
        <linearGradient x1="87.5844438%" y1="54.9168098%" x2="-14.5559736%" y2="-17.1774985%" id="linearGradient-3">
            <stop stop-color="#1F88C9" stop-opacity="0" offset="0%"></stop>
            <stop stop-color="#3FA9F5" offset="100%"></stop>
        </linearGradient>
        <linearGradient x1="49.9982639%" y1="0.00297426956%" x2="49.9982639%" y2="100.000648%" id="linearGradient-4">
            <stop stop-color="#E2EDF2" offset="0%"></stop>
            <stop stop-color="#9FC7E2" offset="100%"></stop>
        </linearGradient>
        <linearGradient x1="49.997381%" y1="100.001187%" x2="49.997381%" y2="0.00337828731%" id="linearGradient-5">
            <stop stop-color="#E2EDF2" offset="0%"></stop>
            <stop stop-color="#9FC7E2" offset="100%"></stop>
        </linearGradient>
        <linearGradient x1="49.9972198%" y1="0.00336271137%" x2="49.9972198%" y2="100.00153%" id="linearGradient-6">
            <stop stop-color="#FF7BAC" offset="0%"></stop>
            <stop stop-color="#E24786" offset="100%"></stop>
        </linearGradient>
        <filter id="filter-7">
            <feColorMatrix in="SourceGraphic" type="matrix" values="0 0 0 0 0.200000 0 0 0 0 0.200000 0 0 0 0 0.200000 0 0 0 1.000000 0"></feColorMatrix>
        </filter>
    </defs>
    <g id="2020-0927a" stroke="none" stroke-width="1" fill="none" fill-rule="evenodd">
        <rect fill="#F2F2F2" x="0" y="0" width="600" height="360"></rect>
        <g id="Group-2" transform="translate(190.000000, 120.000000)">
            <g id="644458" fill-rule="nonzero">
                <path d="M53.7317969,0 L11.5930469,0 C5.40390625,0 0.36859375,5.0353125 0.36859375,11.2244531 L0.36859375,108.775781 C0.36859375,114.964922 5.40390625,120.000234 11.5930469,120.000234 L53.7317969,120.000234 C59.9209375,120.000234 64.95625,114.964922 64.95625,108.775781 L64.95625,11.2244531 C64.95625,5.0353125 59.9211719,0 53.7317969,0 Z" id="Path" fill="#535454"></path>
                <path d="M6.5865625,108.775547 L6.5865625,11.2244531 C6.5865625,5.0353125 11.6216406,0 17.8107813,0 L11.5930469,0 C5.40390625,0 0.36859375,5.0353125 0.36859375,11.2244531 L0.36859375,108.775781 C0.36859375,114.964922 5.40390625,120.000234 11.5930469,120.000234 L17.8107813,120.000234 C11.6216406,120.000234 6.5865625,114.964688 6.5865625,108.775547 Z" id="Path" fill="#444443"></path>
                <path d="M58.7373437,108.775547 C58.7373437,111.54 56.49625,113.781094 53.7317969,113.781094 L11.5930469,113.781094 C8.82859375,113.781094 6.5875,111.54 6.5875,108.775547 L6.5875,11.2244531 C6.5875,8.46 8.82859375,6.21867187 11.5930469,6.21867187 L16.8446875,6.21867187 C17.8792187,6.21867187 18.7178125,7.0575 18.7178125,8.09203125 L18.7178125,9.27984375 C18.7178125,10.8735937 20.0216406,12.1774219 21.6153906,12.1774219 L43.7092187,12.1774219 C45.3029687,12.1774219 46.6067969,10.8735937 46.6067969,9.27984375 L46.6067969,7.561875 C46.6067969,6.82007812 47.2082031,6.21867187 47.95,6.21867187 L53.7317969,6.21867187 C56.49625,6.21867187 58.7373437,8.45976562 58.7373437,11.2242187 L58.7373437,108.775547 L58.7373437,108.775547 Z" id="Path" fill="#A4D9F4"></path>
                <path d="M12.5591406,108.775547 L12.5591406,11.2244531 C12.5591406,8.61 14.5642187,6.46664062 17.1200781,6.24140625 C16.8292187,6.19828125 17.1385937,6.22828125 11.5930469,6.21890625 C8.82859375,6.21890625 6.5875,8.46 6.5875,11.2244531 L6.5875,108.775781 C6.5875,111.540234 8.82859375,113.781328 11.5930469,113.781328 L17.5644531,113.781328 C14.8002344,113.781328 12.5591406,111.540234 12.5591406,108.775547 Z" id="Path" fill="#7CC9E8"></path>
                <g id="Group" transform="translate(22.546875, 4.218750)" fill="#666666">
                    <path d="M17.4039062,3.81117187 L7.94851562,3.81117187 C6.9484375,3.81117187 6.1375,3.00046875 6.1375,2.00015625 C6.1375,0.99984375 6.94820312,0.189140625 7.94851562,0.189140625 L17.4039062,0.189140625 C18.4039844,0.189140625 19.2149219,0.99984375 19.2149219,2.00015625 C19.2146875,3.00046875 18.4039844,3.81117187 17.4039062,3.81117187 Z" id="Path"></path>
                    <path d="M1.24773437,3.50601562 C-0.048828125,2.65382812 0.26546875,0.57046875 1.8971875,0.22453125 C3.0071875,-0.004453125 4.06328125,0.855234375 4.06328125,1.99921875 C4.06328125,2.84039062 3.48273437,3.594375 2.60476562,3.77648437 C2.48898437,3.79804687 1.61640625,3.75539062 1.24773437,3.50601562 Z" id="Path"></path>
                </g>
                <path d="M18.2399219,26.7569531 L13.3939844,26.7569531 C12.9498438,26.7569531 12.5863281,26.3934375 12.5863281,25.9492969 L12.5863281,21.103125 C12.5863281,20.6589844 12.9498438,20.2954688 13.3939844,20.2954688 L18.2399219,20.2954688 C18.6840625,20.2954688 19.0475782,20.6589844 19.0475782,21.103125 L19.0475782,25.9490625 C19.0478125,26.3934375 18.6842969,26.7569531 18.2399219,26.7569531 Z" id="Path" fill="#70B5E8"></path>
                <path d="M29.6485937,26.7569531 L24.8026562,26.7569531 C24.3585156,26.7569531 23.995,26.3934375 23.995,25.9492969 L23.995,21.103125 C23.995,20.6589844 24.3585156,20.2954688 24.8026562,20.2954688 L29.6485937,20.2954688 C30.0927344,20.2954688 30.45625,20.6589844 30.45625,21.103125 L30.45625,25.9490625 C30.45625,26.3934375 30.0927344,26.7569531 29.6485937,26.7569531 Z" id="Path" fill="#EFEFEF"></path>
                <path d="M41.0570313,26.7569531 L36.2110938,26.7569531 C35.7669531,26.7569531 35.4034375,26.3934375 35.4034375,25.9492969 L35.4034375,21.103125 C35.4034375,20.6589844 35.7669531,20.2954688 36.2110938,20.2954688 L41.0570313,20.2954688 C41.5011719,20.2954688 41.8646875,20.6589844 41.8646875,21.103125 L41.8646875,25.9490625 C41.8646875,26.3934375 41.5011719,26.7569531 41.0570313,26.7569531 Z" id="Path" fill="#92B620"></path>
                <path d="M52.4654688,26.7569531 L47.6195313,26.7569531 C47.1753906,26.7569531 46.811875,26.3934375 46.811875,25.9492969 L46.811875,21.103125 C46.811875,20.6589844 47.1753906,20.2954688 47.6195313,20.2954688 L52.4654688,20.2954688 C52.9096094,20.2954688 53.273125,20.6589844 53.273125,21.103125 L53.273125,25.9490625 C53.273125,26.3934375 52.9096094,26.7569531 52.4654688,26.7569531 Z" id="Path" fill="#898989"></path>
                <path d="M18.2399219,38.2778906 L13.3939844,38.2778906 C12.9498438,38.2778906 12.5863281,37.914375 12.5863281,37.4702344 L12.5863281,32.6242969 C12.5863281,32.1801562 12.9498438,31.8166406 13.3939844,31.8166406 L18.2399219,31.8166406 C18.6840625,31.8166406 19.0475782,32.1801562 19.0475782,32.6242969 L19.0475782,37.4702344 C19.0478125,37.914375 18.6842969,38.2778906 18.2399219,38.2778906 Z" id="Path" fill="#92B620"></path>
                <path d="M29.6485937,38.2778906 L24.8026562,38.2778906 C24.3585156,38.2778906 23.995,37.914375 23.995,37.4702344 L23.995,32.6242969 C23.995,32.1801562 24.3585156,31.8166406 24.8026562,31.8166406 L29.6485937,31.8166406 C30.0927344,31.8166406 30.45625,32.1801562 30.45625,32.6242969 L30.45625,37.4702344 C30.45625,37.914375 30.0927344,38.2778906 29.6485937,38.2778906 Z" id="Path" fill="#898989"></path>
                <path d="M41.0570313,38.2778906 L36.2110938,38.2778906 C35.7669531,38.2778906 35.4034375,37.914375 35.4034375,37.4702344 L35.4034375,32.6242969 C35.4034375,32.1801562 35.7669531,31.8166406 36.2110938,31.8166406 L41.0570313,31.8166406 C41.5011719,31.8166406 41.8646875,32.1801562 41.8646875,32.6242969 L41.8646875,37.4702344 C41.8646875,37.914375 41.5011719,38.2778906 41.0570313,38.2778906 Z" id="Path" fill="#70B5E8"></path>
                <path d="M52.4654688,38.2778906 L47.6195313,38.2778906 C47.1753906,38.2778906 46.811875,37.914375 46.811875,37.4702344 L46.811875,32.6242969 C46.811875,32.1801562 47.1753906,31.8166406 47.6195313,31.8166406 L52.4654688,31.8166406 C52.9096094,31.8166406 53.273125,32.1801562 53.273125,32.6242969 L53.273125,37.4702344 C53.273125,37.914375 52.9096094,38.2778906 52.4654688,38.2778906 Z" id="Path" fill="#F94A46"></path>
                <path d="M18.2399219,49.9485938 L13.3939844,49.9485938 C12.9498438,49.9485938 12.5863281,49.5850781 12.5863281,49.1409375 L12.5863281,44.295 C12.5863281,43.8508594 12.9498438,43.4873438 13.3939844,43.4873438 L18.2399219,43.4873438 C18.6840625,43.4873438 19.0475782,43.8508594 19.0475782,44.295 L19.0475782,49.1409375 C19.0478125,49.5850781 18.6842969,49.9485938 18.2399219,49.9485938 Z" id="Path" fill="#DDA36F"></path>
                <path d="M29.6485937,49.9485938 L24.8026562,49.9485938 C24.3585156,49.9485938 23.995,49.5850781 23.995,49.1409375 L23.995,44.295 C23.995,43.8508594 24.3585156,43.4873438 24.8026562,43.4873438 L29.6485937,43.4873438 C30.0927344,43.4873438 30.45625,43.8508594 30.45625,44.295 L30.45625,49.1409375 C30.45625,49.5850781 30.0927344,49.9485938 29.6485937,49.9485938 Z" id="Path" fill="#F9D698"></path>
                <path d="M41.0570313,49.9485938 L36.2110938,49.9485938 C35.7669531,49.9485938 35.4034375,49.5850781 35.4034375,49.1409375 L35.4034375,44.295 C35.4034375,43.8508594 35.7669531,43.4873438 36.2110938,43.4873438 L41.0570313,43.4873438 C41.5011719,43.4873438 41.8646875,43.8508594 41.8646875,44.295 L41.8646875,49.1409375 C41.8646875,49.5850781 41.5011719,49.9485938 41.0570313,49.9485938 Z" id="Path" fill="#898989"></path>
                <path d="M52.4654688,49.9485938 L47.6195313,49.9485938 C47.1753906,49.9485938 46.811875,49.5850781 46.811875,49.1409375 L46.811875,44.295 C46.811875,43.8508594 47.1753906,43.4873438 47.6195313,43.4873438 L52.4654688,43.4873438 C52.9096094,43.4873438 53.273125,43.8508594 53.273125,44.295 L53.273125,49.1409375 C53.273125,49.5850781 52.9096094,49.9485938 52.4654688,49.9485938 Z" id="Path" fill="#F9D698"></path>
                <g id="Group" transform="translate(12.531250, 54.843750)" fill="#70B5E8">
                    <path d="M5.70867188,6.62578125 L0.862734375,6.62578125 C0.41859375,6.62578125 0.055078125,6.26226562 0.055078125,5.818125 L0.055078125,0.9721875 C0.055078125,0.528046875 0.41859375,0.16453125 0.862734375,0.16453125 L5.70867188,0.16453125 C6.1528125,0.16453125 6.51632824,0.528046875 6.51632824,0.9721875 L6.51632824,5.818125 C6.5165625,6.26226562 6.15304687,6.62578125 5.70867188,6.62578125 Z" id="Path"></path>
                    <path d="M17.1173438,6.62578125 L12.2714063,6.62578125 C11.8272656,6.62578125 11.46375,6.26226562 11.46375,5.818125 L11.46375,0.9721875 C11.46375,0.528046875 11.8272656,0.16453125 12.2714063,0.16453125 L17.1173438,0.16453125 C17.5614844,0.16453125 17.925,0.528046875 17.925,0.9721875 L17.925,5.818125 C17.925,6.26226562 17.5614844,6.62578125 17.1173438,6.62578125 Z" id="Path"></path>
                </g>
                <path d="M41.0570313,61.4695312 L36.2110938,61.4695312 C35.7669531,61.4695312 35.4034375,61.1060156 35.4034375,60.661875 L35.4034375,55.8159375 C35.4034375,55.3717969 35.7669531,55.0082812 36.2110938,55.0082812 L41.0570313,55.0082812 C41.5011719,55.0082812 41.8646875,55.3717969 41.8646875,55.8159375 L41.8646875,60.661875 C41.8646875,61.1060156 41.5011719,61.4695312 41.0570313,61.4695312 Z" id="Path" fill="#F94A46"></path>
                <path d="M18.2399219,72.9904687 L13.3939844,72.9904687 C12.9498438,72.9904687 12.5863281,72.6269531 12.5863281,72.1828125 L12.5863281,67.336875 C12.5863281,66.8927344 12.9498438,66.5292187 13.3939844,66.5292187 L18.2399219,66.5292187 C18.6840625,66.5292187 19.0475782,66.8927344 19.0475782,67.336875 L19.0475782,72.1828125 C19.0478125,72.6269531 18.6842969,72.9904687 18.2399219,72.9904687 Z" id="Path" fill="#EFEFEF"></path>
                <path d="M29.6485937,72.9904687 L24.8026562,72.9904687 C24.3585156,72.9904687 23.995,72.6269531 23.995,72.1828125 L23.995,67.336875 C23.995,66.8927344 24.3585156,66.5292187 24.8026562,66.5292187 L29.6485937,66.5292187 C30.0927344,66.5292187 30.45625,66.8927344 30.45625,67.336875 L30.45625,72.1828125 C30.45625,72.6269531 30.0927344,72.9904687 29.6485937,72.9904687 Z" id="Path" fill="#92B620"></path>
                <path d="M41.0570313,72.9904687 L36.2110938,72.9904687 C35.7669531,72.9904687 35.4034375,72.6269531 35.4034375,72.1828125 L35.4034375,67.336875 C35.4034375,66.8927344 35.7669531,66.5292187 36.2110938,66.5292187 L41.0570313,66.5292187 C41.5011719,66.5292187 41.8646875,66.8927344 41.8646875,67.336875 L41.8646875,72.1828125 C41.8646875,72.6269531 41.5011719,72.9904687 41.0570313,72.9904687 Z" id="Path" fill="#898989"></path>
                <path d="M52.4654688,61.4695312 L47.6195313,61.4695312 C47.1753906,61.4695312 46.811875,61.1060156 46.811875,60.661875 L46.811875,55.8159375 C46.811875,55.3717969 47.1753906,55.0082812 47.6195313,55.0082812 L52.4654688,55.0082812 C52.9096094,55.0082812 53.273125,55.3717969 53.273125,55.8159375 L53.273125,60.661875 C53.273125,61.1060156 52.9096094,61.4695312 52.4654688,61.4695312 Z" id="Path" fill="#FFB70D"></path>
                <path d="M18.2401562,108.537891 L13.3942187,108.537891 C12.9500781,108.537891 12.5865625,108.174375 12.5865625,107.730234 L12.5865625,102.884297 C12.5865625,102.440156 12.9500781,102.076641 13.3942187,102.076641 L18.2401562,102.076641 C18.6842969,102.076641 19.0478125,102.440156 19.0478125,102.884297 L19.0478125,107.730234 C19.0478125,108.174375 18.6842969,108.537891 18.2401562,108.537891 Z" id="Path" fill="#92B620"></path>
                <path d="M29.6485937,108.537891 L24.8026562,108.537891 C24.3585156,108.537891 23.995,108.174375 23.995,107.730234 L23.995,102.884297 C23.995,102.440156 24.3585156,102.076641 24.8026562,102.076641 L29.6485937,102.076641 C30.0927344,102.076641 30.45625,102.440156 30.45625,102.884297 L30.45625,107.730234 C30.45625,108.174375 30.0927344,108.537891 29.6485937,108.537891 Z" id="Path" fill="#70B5E8"></path>
                <path d="M41.0570313,108.537891 L36.2110938,108.537891 C35.7669531,108.537891 35.4034375,108.174375 35.4034375,107.730234 L35.4034375,102.884297 C35.4034375,102.440156 35.7669531,102.076641 36.2110938,102.076641 L41.0570313,102.076641 C41.5011719,102.076641 41.8646875,102.440156 41.8646875,102.884297 L41.8646875,107.730234 C41.8646875,108.174375 41.5011719,108.537891 41.0570313,108.537891 Z" id="Path" fill="#92B620"></path>
                <path d="M52.4654688,108.537891 L47.6195313,108.537891 C47.1753906,108.537891 46.811875,108.174375 46.811875,107.730234 L46.811875,102.884297 C46.811875,102.440156 47.1753906,102.076641 47.6195313,102.076641 L52.4654688,102.076641 C52.9096094,102.076641 53.273125,102.440156 53.273125,102.884297 L53.273125,107.730234 C53.273125,108.174375 52.9096094,108.537891 52.4654688,108.537891 Z" id="Path" fill="#EFEFEF"></path>
            </g>
            <g id="1041159" transform="translate(145.000000, 0.000000)" fill-rule="nonzero">
                <path d="M55.5682031,27.0609375 L17.2319531,27.0609375 L17.2319531,8.06695313 C17.2319531,3.61171875 20.8436719,0 25.2991406,0 L47.5010156,0 C51.95625,0 55.5682031,3.61171875 55.5682031,8.06695313 L55.5682031,27.0609375 L55.5682031,27.0609375 Z" id="Path" fill="url(#linearGradient-1)"></path>
                <path d="M17.2319531,92.9390625 L55.5682031,92.9390625 L55.5682031,111.932813 C55.5682031,116.388047 51.9564844,119.999766 47.5010156,119.999766 L25.2991406,119.999766 C20.8439062,119.999766 17.2319531,116.388047 17.2319531,111.932813 L17.2319531,92.9390625 L17.2319531,92.9390625 Z" id="Path" fill="url(#linearGradient-2)"></path>
                <path d="M17.2319531,96.5205469 L40.7114063,120 L47.5010156,120 C51.95625,120 55.5682031,116.388281 55.5682031,111.933047 L55.5682031,92.9392969 L17.2319531,92.9392969 L17.2319531,96.5205469 Z" id="Path" fill="url(#linearGradient-3)"></path>
                <path d="M52.5070312,96.7633594 L21.0867187,96.7633594 C9.459375,96.7633594 0.033515625,87.3375 0.033515625,75.7101563 L0.033515625,44.2898437 C0.033515625,32.6625 9.459375,23.2366406 21.0867187,23.2366406 L52.5070312,23.2366406 C64.134375,23.2366406 73.5602344,32.6625 73.5602344,44.2898437 L73.5602344,75.7101562 C73.5602344,87.3375 64.134375,96.7633594 52.5070312,96.7633594 Z" id="Path" fill="url(#linearGradient-4)"></path>
                <path d="M25.426875,33.3930469 L48.1671094,33.3930469 C56.5821094,33.3930469 63.4040625,40.215 63.4040625,48.63 L63.4040625,71.3702344 C63.4040625,79.7852344 56.5821094,86.6071875 48.1671094,86.6071875 L25.426875,86.6071875 C17.011875,86.6071875 10.1899219,79.7852344 10.1899219,71.3702344 L10.1899219,48.63 C10.1899219,40.2147656 17.0116406,33.3930469 25.426875,33.3930469 Z" id="Path" fill="url(#linearGradient-5)"></path>
                <path d="M47.5115625,85.0734375 L26.0821875,85.0734375 C18.1521094,85.0734375 11.7236719,78.6447656 11.7236719,70.7149219 L11.7236719,49.2855469 C11.7236719,41.3554688 18.1523438,34.9270313 26.0821875,34.9270313 L47.5115625,34.9270313 C55.4416406,34.9270313 61.8700781,41.3557031 61.8700781,49.2855469 L61.8700781,70.7149219 C61.8700781,78.6447656 55.4416406,85.0734375 47.5115625,85.0734375 Z" id="Path" fill="url(#linearGradient-6)"></path>
                <g id="Group" transform="translate(18.750000, 41.484375)" fill="#FFFFFF">
                    <path d="M0.148828125,16.6183594 C0.148828125,16.1132812 0.352734375,15.7146094 0.761015625,15.4230469 L3.79265625,12.5078906 C4.00640625,12.2941406 4.26867187,12.1872656 4.5796875,12.1872656 C4.92960937,12.1872656 5.24507812,12.2798438 5.52726563,12.4642969 C5.80875,12.6492187 5.94984375,12.8969531 5.94984375,13.2075 L5.94984375,32.505 C5.94984375,32.8160156 5.79398438,33.06375 5.4834375,33.2482031 C5.17242187,33.433125 4.81289062,33.5252344 4.40484375,33.5252344 C3.97734375,33.5252344 3.61289062,33.433125 3.31195312,33.2482031 C3.0103125,33.06375 2.86007812,32.8160156 2.86007812,32.505 L2.86007812,16.2975 L1.83984375,17.58 C1.64554687,17.7742969 1.43179687,17.8713281 1.19859375,17.8713281 C0.90703125,17.8713281 0.659296875,17.7403125 0.455390625,17.4778125 C0.250546875,17.2157812 0.148828125,16.9296094 0.148828125,16.6183594 Z" id="Path"></path>
                    <path d="M7.815,27.5901562 C7.815,27.376875 7.87335937,27.1633594 7.99007813,26.9498437 L15.0445312,13.06125 C15.3358594,12.4982812 15.7828125,12.2167969 16.3853906,12.2167969 C16.7153906,12.2167969 17.0557031,12.3332812 17.405625,12.5664844 C17.7553125,12.7996875 17.9303906,13.0816406 17.9303906,13.411875 C17.9303906,13.5285937 17.8816406,13.6844531 17.7848438,13.8782812 L11.7799219,25.8590625 L16.0647656,25.8590625 L16.0647656,21.8132812 C16.0647656,21.1291406 16.5796875,20.7869531 17.6097656,20.7869531 C18.0370313,20.7869531 18.40125,20.8753125 18.7028906,21.0510937 C19.0040625,21.226875 19.1547656,21.4809375 19.1547656,21.8132812 L19.1547656,25.8590625 L20.5830469,25.8590625 C20.9132813,25.8590625 21.170625,26.0034375 21.3555469,26.2921875 C21.54,26.5809375 21.6325781,26.9175 21.6325781,27.301875 C21.6325781,27.6480469 21.5257031,27.9705469 21.3121875,28.2684375 C21.0979688,28.5667969 20.8551563,28.715625 20.5835156,28.715625 L19.1552344,28.715625 L19.1552344,32.4989062 C19.1552344,32.8122656 18.999375,33.0614062 18.6885938,33.2470312 C18.3775781,33.4326562 18.0180469,33.5254688 17.61,33.5254688 C17.1825,33.5254688 16.8180469,33.4328906 16.5171094,33.2470312 C16.2154688,33.0611719 16.0652344,32.8120313 16.0652344,32.4989062 L16.0652344,28.715625 L8.8940625,28.715625 C8.58304688,28.715625 8.32570313,28.6148437 8.1215625,28.4128125 C7.9171875,28.2105469 7.815,27.9363281 7.815,27.5901562 Z" id="Path"></path>
                    <path d="M22.8564844,28.5117188 C22.8564844,28.0263281 22.9732031,27.6860156 23.2064063,27.4914844 C23.4396094,27.2976563 23.8085156,27.1999219 24.3140625,27.1999219 C25.3825781,27.1999219 25.9174219,27.5889844 25.9174219,28.3659375 C25.9174219,29.1433594 26.2425,29.7700781 26.8938281,30.2460938 C27.5446875,30.7223437 28.3558594,30.9602344 29.3280469,30.9602344 C31.6790625,30.9602344 32.8551563,29.7053906 32.8551563,27.1947656 L32.8551563,23.5171875 C31.9804688,24.6121875 30.6297656,25.1589844 28.8030469,25.1589844 C24.8385938,25.1589844 22.8564844,23.1813281 22.8564844,19.2255469 L22.8564844,18.7021875 C22.8564844,16.4723438 23.4492188,14.8340625 24.6346875,13.7866406 C25.8199219,12.7401562 27.4038281,12.2163281 29.3861719,12.2163281 C31.3685156,12.2163281 32.9571094,12.7410938 34.1521875,13.7903906 C35.3475,14.8396875 35.9449219,16.4824219 35.9449219,18.7167188 L35.9449219,27.1992188 C35.9449219,29.4339844 35.3374219,31.07625 34.123125,32.1255469 C32.9083594,33.1748438 31.2810938,33.6996094 29.240625,33.6996094 C27.2191406,33.6996094 25.65,33.18 24.5329688,32.1400781 C23.4147656,31.1015625 22.8564844,29.8917188 22.8564844,28.5117188 Z M25.9464844,19.0647656 C25.9464844,21.4957031 27.1024219,22.7109375 29.4154687,22.7109375 C31.7083594,22.7109375 32.8551562,21.5826563 32.8551562,19.3253906 L32.8551562,18.5728125 C32.8551562,16.0844531 31.69875,14.8401563 29.3861719,14.8401563 C27.0928125,14.8401563 25.9464844,16.0844531 25.9464844,18.5728125 L25.9464844,19.0647656 Z" id="Shape"></path>
                    <path d="M33.5189063,0.069609375 C32.0620313,-0.00140625 30.8552344,1.14304688 30.8242969,2.57695313 C30.8242969,2.58 30.823125,2.58 30.823125,2.57695313 C30.7921875,1.14304688 29.5853906,-0.001171875 28.1285156,0.069609375 C26.5282031,0.147421875 25.4664844,1.71257812 25.7472656,3.28992188 C26.2197656,5.94234375 29.484375,7.76882812 30.5135156,8.28375 C30.70875,8.38148437 30.9382031,8.38148437 31.1334375,8.28375 C32.1625781,7.76859375 35.4271875,5.94234375 35.8996875,3.28992188 C36.1809375,1.71257812 35.1189844,0.14765625 33.5189063,0.069609375 Z" id="Path"></path>
                </g>
            </g>
            <g filter="url(#filter-7)" id="Group">
                <g transform="translate(89.000000, 44.000000)">
                    <path d="M29.7388723,18.2453141 L2.26112771,18.2453141 C1.02739277,18.2453141 0.0107951807,17.2299398 0.0107951807,15.9976895 C0.0107951807,14.7654392 1.02739277,13.750065 2.26112771,13.750065 L29.7388723,13.750065 C30.9726072,13.750065 31.9892048,14.7654392 31.9892048,15.9976895 C31.9892048,17.2299398 30.9726072,18.2453141 29.7388723,18.2453141 Z" id="Path" fill="#231815" fill-rule="nonzero"></path>
                    <path d="M13.7496675,29.7200289 L13.7496675,2.27535018 C13.7496675,1.04309988 14.7662651,0.0277256318 16,0.0277256318 C17.2337349,0.0277256318 18.2503325,1.04309988 18.2503325,2.27535018 L18.2503325,29.7200289 C18.2503325,30.9522792 17.2337349,31.9676534 16,31.9676534 C14.7662651,31.9676534 13.7496675,30.9522792 13.7496675,29.7200289 Z" id="Path" fill="#231815" fill-rule="nonzero"></path>
                </g>
            </g>
        </g>
    </g>
</svg>