<?xml version="1.0" encoding="UTF-8"?>
<svg width="600px" height="360px" viewBox="0 0 600 360" version="1.1" xmlns="http://www.w3.org/2000/svg" xmlns:xlink="http://www.w3.org/1999/xlink">
    <title>2021-0102a@1x</title>
    <g id="2021-0102a" stroke="none" stroke-width="1" fill="none" fill-rule="evenodd">
        <rect fill="#F2F2F2" x="0" y="0" width="600" height="360"></rect>
        <g id="2637229" transform="translate(252.000000, 132.000000)" fill-rule="nonzero">
            <g id="Group" transform="translate(1.548387, 1.548387)">
                <circle id="Oval" fill="#69D6F4" cx="24.7741935" cy="24.7741935" r="24.7741935"></circle>
                <path d="M31.8193548,38.6632258 C32.7948387,35.1483871 34.5754839,31.9896774 36.96,29.3574194 C40.1806452,25.7651613 44.516129,23.1948387 49.4090323,22.1729032 C50.9574194,21.8477419 52.5522581,21.6774194 54.1935484,21.6774194 C66.6425806,21.6774194 76.8,31.4632258 77.3883871,43.7574194 C78.3948387,43.4941935 79.4322581,43.3548387 80.516129,43.3548387 C87.36,43.3548387 92.9032258,48.8980645 92.9032258,55.7419355 C92.9032258,62.5858065 87.36,68.1290323 80.516129,68.1290323 L68.1290323,68.1290323 L58.8387097,68.1290323 L46.4516129,68.1290323 L34.0645161,68.1290323 L24.7741935,68.1290323 L12.3870968,68.1290323 C5.54322581,68.1290323 1.1001952e-14,62.5858065 1.1001952e-14,55.7419355 C1.1001952e-14,50.0903226 3.77806452,45.3212903 8.94967742,43.8348387 C10.0335484,43.5251613 11.1948387,43.3548387 12.3870968,43.3548387 C13.7341935,43.3548387 15.0348387,43.5716129 16.2580645,43.9741935 C17.8529032,39.9793548 21.7548387,37.1612903 26.3225806,37.1612903 C28.3354839,37.1612903 30.2090323,37.7032258 31.8193548,38.6632258 Z" id="Path" fill="#E6E9ED"></path>
                <circle id="Oval" fill="#FF826E" cx="58.8387097" cy="82.0645161" r="3.09677419"></circle>
                <circle id="Oval" fill="#FF826E" cx="34.0645161" cy="82.0645161" r="3.09677419"></circle>
                <circle id="Oval" fill="#FF826E" cx="83.6129032" cy="89.8064516" r="3.09677419"></circle>
                <circle id="Oval" fill="#FF826E" cx="46.4516129" cy="89.8064516" r="3.09677419"></circle>
                <circle id="Oval" fill="#FF826E" cx="9.29032258" cy="89.8064516" r="3.09677419"></circle>
                <circle id="Oval" fill="#FF826E" cx="30.9677419" cy="55.7419355" r="3.09677419"></circle>
                <circle id="Oval" fill="#FF826E" cx="43.3548387" cy="55.7419355" r="3.09677419"></circle>
                <circle id="Oval" fill="#FF826E" cx="55.7419355" cy="55.7419355" r="3.09677419"></circle>
            </g>
            <g id="Group" fill="#000000">
                <path d="M55.7419355,30.9677419 L55.7419355,27.8709677 C45.4962581,27.8709677 37.1612903,36.2059355 37.1612903,46.4516129 L40.2580645,46.4516129 C40.2580645,37.9138065 47.204129,30.9677419 55.7419355,30.9677419 Z" id="Path"></path>
                <path d="M58.5584516,31.2232258 C59.5215484,31.4012903 60.4676129,31.6707097 61.371871,32.0237419 L62.5006452,29.1406452 C61.412129,28.7148387 60.2756129,28.3927742 59.1205161,28.1790968 L58.5584516,31.2232258 Z" id="Path"></path>
                <path d="M89.8064516,57.2903226 C89.8064516,53.0214194 86.3334194,49.5483871 82.0645161,49.5483871 L82.0645161,52.6451613 C84.6255484,52.6451613 86.7096774,54.7292903 86.7096774,57.2903226 C86.7096774,59.8513548 84.6255484,61.9354839 82.0645161,61.9354839 L77.4193548,61.9354839 L77.4193548,65.0322581 L82.0645161,65.0322581 C86.3334194,65.0322581 89.8064516,61.5592258 89.8064516,57.2903226 Z" id="Path"></path>
                <polygon id="Path" points="71.2258065 61.9354839 74.3225806 61.9354839 74.3225806 65.0322581 71.2258065 65.0322581"></polygon>
                <polygon id="Path" points="65.0322581 61.9354839 68.1290323 61.9354839 68.1290323 65.0322581 65.0322581 65.0322581"></polygon>
                <path d="M82.0645161,71.2258065 C89.7476129,71.2258065 96,64.9734194 96,57.2903226 C96,49.6072258 89.7476129,43.3548387 82.0645161,43.3548387 C81.4714839,43.3548387 80.8892903,43.4043871 80.3148387,43.4771613 C78.8407742,31.1225806 68.3829677,21.6774194 55.7419355,21.6774194 C54.555871,21.6774194 53.3992258,21.7904516 52.2565161,21.9514839 C50.1569032,9.33367742 39.2934194,0 26.3225806,0 C11.808,0 5.50097602e-15,11.808 5.50097602e-15,26.3225806 C5.50097602e-15,33.332129 2.7716129,39.9499355 7.65987097,44.8645161 C3.12309677,47.1654194 5.50097602e-15,51.8647742 5.50097602e-15,57.2903226 C5.50097602e-15,64.9734194 6.2523871,71.2258065 13.9354839,71.2258065 L24.7741935,71.2258065 L24.7741935,88.2580645 C24.7741935,89.1112258 24.0789677,89.8064516 23.2258065,89.8064516 L15.1989677,89.8064516 C14.5579355,88.0087742 12.8547097,86.7096774 10.8387097,86.7096774 C8.27767742,86.7096774 6.19354839,88.7938065 6.19354839,91.3548387 C6.19354839,93.915871 8.27767742,96 10.8387097,96 C12.8547097,96 14.5579355,94.7009032 15.1989677,92.9032258 L23.2258065,92.9032258 C25.7868387,92.9032258 27.8709677,90.8190968 27.8709677,88.2580645 L27.8709677,71.2258065 L34.0645161,71.2258065 L34.0645161,79.2526452 C32.2668387,79.8936774 30.9677419,81.5969032 30.9677419,83.6129032 C30.9677419,86.1739355 33.051871,88.2580645 35.6129032,88.2580645 C38.1739355,88.2580645 40.2580645,86.1739355 40.2580645,83.6129032 C40.2580645,81.5969032 38.9589677,79.8936774 37.1612903,79.2526452 L37.1612903,71.2258065 L46.4516129,71.2258065 L46.4516129,86.9945806 C44.6539355,87.6356129 43.3548387,89.3388387 43.3548387,91.3548387 C43.3548387,93.915871 45.4389677,96 48,96 C50.5610323,96 52.6451613,93.915871 52.6451613,91.3548387 C52.6451613,89.3388387 51.3460645,87.6356129 49.5483871,86.9945806 L49.5483871,71.2258065 L58.8387097,71.2258065 L58.8387097,79.2526452 C57.0410323,79.8936774 55.7419355,81.5969032 55.7419355,83.6129032 C55.7419355,86.1739355 57.8260645,88.2580645 60.3870968,88.2580645 C62.948129,88.2580645 65.0322581,86.1739355 65.0322581,83.6129032 C65.0322581,81.5969032 63.7331613,79.8936774 61.9354839,79.2526452 L61.9354839,71.2258065 L68.1290323,71.2258065 L68.1290323,88.2580645 C68.1290323,90.8190968 70.2131613,92.9032258 72.7741935,92.9032258 L80.8010323,92.9032258 C81.4420645,94.7009032 83.1452903,96 85.1612903,96 C87.7223226,96 89.8064516,93.915871 89.8064516,91.3548387 C89.8064516,88.7938065 87.7223226,86.7096774 85.1612903,86.7096774 C83.1452903,86.7096774 81.4420645,88.0087742 80.8010323,89.8064516 L72.7741935,89.8064516 C71.9210323,89.8064516 71.2258065,89.1112258 71.2258065,88.2580645 L71.2258065,71.2258065 L82.0645161,71.2258065 Z M10.8387097,92.9032258 C9.98554839,92.9032258 9.29032258,92.208 9.29032258,91.3548387 C9.29032258,90.5016774 9.98554839,89.8064516 10.8387097,89.8064516 C11.691871,89.8064516 12.3870968,90.5016774 12.3870968,91.3548387 C12.3870968,92.208 11.691871,92.9032258 10.8387097,92.9032258 Z M35.6129032,85.1612903 C34.7597419,85.1612903 34.0645161,84.4660645 34.0645161,83.6129032 C34.0645161,82.7597419 34.7597419,82.0645161 35.6129032,82.0645161 C36.4660645,82.0645161 37.1612903,82.7597419 37.1612903,83.6129032 C37.1612903,84.4660645 36.4660645,85.1612903 35.6129032,85.1612903 Z M48,92.9032258 C47.1468387,92.9032258 46.4516129,92.208 46.4516129,91.3548387 C46.4516129,90.5016774 47.1468387,89.8064516 48,89.8064516 C48.8531613,89.8064516 49.5483871,90.5016774 49.5483871,91.3548387 C49.5483871,92.208 48.8531613,92.9032258 48,92.9032258 Z M60.3870968,85.1612903 C59.5339355,85.1612903 58.8387097,84.4660645 58.8387097,83.6129032 C58.8387097,82.7597419 59.5339355,82.0645161 60.3870968,82.0645161 C61.2402581,82.0645161 61.9354839,82.7597419 61.9354839,83.6129032 C61.9354839,84.4660645 61.2402581,85.1612903 60.3870968,85.1612903 Z M85.1612903,89.8064516 C86.0144516,89.8064516 86.7096774,90.5016774 86.7096774,91.3548387 C86.7096774,92.208 86.0144516,92.9032258 85.1612903,92.9032258 C84.308129,92.9032258 83.6129032,92.208 83.6129032,91.3548387 C83.6129032,90.5016774 84.308129,89.8064516 85.1612903,89.8064516 Z M32.4634839,38.0562581 C31.0095484,37.4756129 29.4534194,37.1612903 27.8709677,37.1612903 L16.8046452,37.1612903 C16.0707097,34.2781935 15.6402581,31.1225806 15.5349677,27.8709677 L37.1256774,27.8709677 C37.0993548,28.6900645 37.056,29.5029677 36.987871,30.3096774 C35.0369032,32.5734194 33.4993548,35.1932903 32.4634839,38.0562581 Z M3.18193548,27.8709677 L12.4381935,27.8709677 C12.5357419,31.0962581 12.9336774,34.2425806 13.6165161,37.1612903 L5.81264516,37.1612903 C4.30296774,34.3076129 3.40025806,31.1566452 3.18193548,27.8709677 Z M26.3225806,3.09677419 C29.7785806,3.09677419 32.9094194,6.79277419 34.9099355,12.3870968 L17.7352258,12.3870968 C19.7357419,6.79277419 22.8665806,3.09677419 26.3225806,3.09677419 Z M35.8590968,15.483871 C36.5744516,18.3034839 37.0141935,21.4575484 37.1225806,24.7741935 L15.5210323,24.7741935 C15.6294194,21.4575484 16.0691613,18.3034839 16.7845161,15.483871 L35.8590968,15.483871 Z M12.4273548,24.7741935 L3.17574194,24.7741935 C3.39716129,21.4374194 4.30916129,18.2895484 5.79716129,15.483871 L13.5917419,15.483871 C12.9259355,18.3329032 12.5249032,21.4621935 12.4273548,24.7741935 L12.4273548,24.7741935 Z M39.0534194,15.483871 L46.8805161,15.483871 C48.0216774,17.6562581 48.8129032,20.043871 49.2216774,22.5770323 C45.8988387,23.4859355 42.8500645,25.0544516 40.2379355,27.1571613 C40.244129,26.8784516 40.2580645,26.6012903 40.2580645,26.3225806 C40.2580645,22.4330323 39.8229677,18.7757419 39.0534194,15.483871 L39.0534194,15.483871 Z M44.9171613,12.3870968 L38.1894194,12.3870968 C37.1659355,9.23922581 35.8126452,6.53574194 34.1945806,4.47793548 C38.496,6.01858065 42.2167742,8.78090323 44.9171613,12.3870968 L44.9171613,12.3870968 Z M18.4289032,4.50735484 C16.8216774,6.56206452 15.4745806,9.25470968 14.4557419,12.3870968 L7.78683871,12.3870968 C10.4748387,8.8196129 14.1569032,6.05883871 18.4289032,4.50735484 Z M7.75896774,40.2580645 L19.7047742,40.2580645 C18.5914839,41.2381935 17.6500645,42.4056774 16.9455484,43.7233548 C15.9576774,43.5050323 14.9574194,43.3548387 13.9354839,43.3548387 C12.9073548,43.3548387 11.9086452,43.4740645 10.944,43.6861935 C9.76258065,42.6394839 8.69109677,41.4967742 7.75896774,40.2580645 L7.75896774,40.2580645 Z M3.09677419,57.2903226 C3.09677419,51.3135484 7.95870968,46.4516129 13.9354839,46.4516129 C14.5811613,46.4516129 15.2175484,46.5212903 15.8446452,46.6327742 C15.6170323,47.5695484 15.483871,48.5419355 15.483871,49.5483871 L18.5806452,49.5483871 C18.5806452,44.4247742 22.7473548,40.2580645 27.8709677,40.2580645 C29.156129,40.2580645 30.4180645,40.5290323 31.5824516,41.0369032 C31.1907097,42.7819355 30.9677419,44.5904516 30.9677419,46.4516129 L34.0645161,46.4516129 C34.0645161,34.4980645 43.7883871,24.7741935 55.7419355,24.7741935 C66.9290323,24.7741935 76.1574194,33.2283871 77.28,44.2188387 C71.9489032,46.1775484 68.1290323,51.2903226 68.1290323,57.2903226 L71.2258065,57.2903226 C71.2258065,51.3135484 76.0877419,46.4516129 82.0645161,46.4516129 C88.0412903,46.4516129 92.9032258,51.3135484 92.9032258,57.2903226 C92.9032258,63.2670968 88.0412903,68.1290323 82.0645161,68.1290323 L13.9354839,68.1290323 C7.95870968,68.1290323 3.09677419,63.2670968 3.09677419,57.2903226 Z" id="Shape"></path>
                <path d="M57.2903226,52.6451613 C54.7292903,52.6451613 52.6451613,54.7292903 52.6451613,57.2903226 C52.6451613,59.8513548 54.7292903,61.9354839 57.2903226,61.9354839 C59.8513548,61.9354839 61.9354839,59.8513548 61.9354839,57.2903226 C61.9354839,54.7292903 59.8513548,52.6451613 57.2903226,52.6451613 Z M57.2903226,58.8387097 C56.4371613,58.8387097 55.7419355,58.1434839 55.7419355,57.2903226 C55.7419355,56.4371613 56.4371613,55.7419355 57.2903226,55.7419355 C58.1434839,55.7419355 58.8387097,56.4371613 58.8387097,57.2903226 C58.8387097,58.1434839 58.1434839,58.8387097 57.2903226,58.8387097 Z" id="Shape"></path>
                <path d="M44.9032258,52.6451613 C42.3421935,52.6451613 40.2580645,54.7292903 40.2580645,57.2903226 C40.2580645,59.8513548 42.3421935,61.9354839 44.9032258,61.9354839 C47.4642581,61.9354839 49.5483871,59.8513548 49.5483871,57.2903226 C49.5483871,54.7292903 47.4642581,52.6451613 44.9032258,52.6451613 Z M44.9032258,58.8387097 C44.0500645,58.8387097 43.3548387,58.1434839 43.3548387,57.2903226 C43.3548387,56.4371613 44.0500645,55.7419355 44.9032258,55.7419355 C45.7563871,55.7419355 46.4516129,56.4371613 46.4516129,57.2903226 C46.4516129,58.1434839 45.7563871,58.8387097 44.9032258,58.8387097 Z" id="Shape"></path>
                <path d="M32.516129,52.6451613 C29.9550968,52.6451613 27.8709677,54.7292903 27.8709677,57.2903226 C27.8709677,59.8513548 29.9550968,61.9354839 32.516129,61.9354839 C35.0771613,61.9354839 37.1612903,59.8513548 37.1612903,57.2903226 C37.1612903,54.7292903 35.0771613,52.6451613 32.516129,52.6451613 Z M32.516129,58.8387097 C31.6629677,58.8387097 30.9677419,58.1434839 30.9677419,57.2903226 C30.9677419,56.4371613 31.6629677,55.7419355 32.516129,55.7419355 C33.3692903,55.7419355 34.0645161,56.4371613 34.0645161,57.2903226 C34.0645161,58.1434839 33.3692903,58.8387097 32.516129,58.8387097 Z" id="Shape"></path>
                <path d="M77.4193548,29.4193548 L80.516129,29.4193548 C80.516129,24.2957419 76.3494194,20.1290323 71.2258065,20.1290323 L71.2258065,23.2258065 C74.6415484,23.2258065 77.4193548,26.0036129 77.4193548,29.4193548 Z" id="Path"></path>
                <path d="M83.6129032,29.4193548 L86.7096774,29.4193548 C86.7096774,20.8815484 79.7636129,13.9354839 71.2258065,13.9354839 L71.2258065,17.0322581 C78.0557419,17.0322581 83.6129032,22.5894194 83.6129032,29.4193548 Z" id="Path"></path>
                <path d="M89.8064516,29.4193548 L92.9032258,29.4193548 C92.9032258,17.4658065 83.1793548,7.74193548 71.2258065,7.74193548 L71.2258065,10.8387097 C81.4714839,10.8387097 89.8064516,19.1736774 89.8064516,29.4193548 Z" id="Path"></path>
            </g>
        </g>
    </g>
</svg>