<svg id="Capa_1" enable-background="new 0 0 510.001 510.001" height="512" viewBox="0 0 510.001 510.001" width="512" xmlns="http://www.w3.org/2000/svg" xmlns:xlink="http://www.w3.org/1999/xlink"><linearGradient id="lg1"><stop offset="0" stop-color="#eaf6ff"/><stop offset=".5213" stop-color="#d8ecfe"/><stop offset="1" stop-color="#b3dafe"/></linearGradient><linearGradient id="SVGID_1_" gradientUnits="userSpaceOnUse" x1="31.724" x2="140.522" xlink:href="#lg1" y1="97.273" y2="97.273"/><linearGradient id="SVGID_2_" gradientUnits="userSpaceOnUse" x1="9.724" x2="116.41" xlink:href="#lg1" y1="100.809" y2="100.809"/><linearGradient id="lg2"><stop offset="0" stop-color="#60b7ff"/><stop offset=".5857" stop-color="#0182fc"/><stop offset="1" stop-color="#2740b0"/></linearGradient><linearGradient id="SVGID_3_" gradientUnits="userSpaceOnUse" x1="36.099" x2="473.904" xlink:href="#lg2" y1="255.001" y2="255.001"/><linearGradient id="SVGID_4_" gradientUnits="userSpaceOnUse" x1="-86.666" x2="454.352" xlink:href="#lg2" y1="187.928" y2="187.928"/><linearGradient id="SVGID_5_" gradientUnits="userSpaceOnUse" x1="-86.666" x2="454.352" xlink:href="#lg2" y1="291.156" y2="291.156"/><linearGradient id="SVGID_6_" gradientUnits="userSpaceOnUse" x1="-86.666" x2="454.352" xlink:href="#lg2" y1="85.576" y2="85.576"/><linearGradient id="SVGID_7_" gradientUnits="userSpaceOnUse" x1="-86.66" x2="454.349" xlink:href="#lg2" y1="255.001" y2="255.001"/><linearGradient id="SVGID_8_" gradientUnits="userSpaceOnUse" x1="-13.87" x2="594.002" xlink:href="#lg1" y1="255.003" y2="255.003"/><linearGradient id="SVGID_9_" gradientUnits="userSpaceOnUse" x1="-1.999" x2="384.106" xlink:href="#lg1" y1="255.003" y2="255.003"/><linearGradient id="SVGID_10_" gradientUnits="userSpaceOnUse" x1="-130.999" x2="89.385" xlink:href="#lg1" y1="321.141" y2="321.141"/><linearGradient id="SVGID_11_" gradientUnits="userSpaceOnUse" x1="370.554" x2="510.001" xlink:href="#lg1" y1="440.277" y2="440.277"/><linearGradient id="SVGID_12_" gradientUnits="userSpaceOnUse" x1="322.001" x2="466.088" xlink:href="#lg1" y1="440.277" y2="440.277"/><linearGradient id="SVGID_13_" gradientUnits="userSpaceOnUse" x1="322.001" x2="466.088" xlink:href="#lg1" y1="438.751" y2="438.751"/><linearGradient id="SVGID_14_" gradientUnits="userSpaceOnUse" x1="322.001" x2="466.088" xlink:href="#lg1" y1="409.251" y2="409.251"/><linearGradient id="SVGID_15_" gradientUnits="userSpaceOnUse" x1="381.119" x2="434.128" xlink:href="#lg1" y1="26.054" y2="26.054"/><linearGradient id="SVGID_16_" gradientUnits="userSpaceOnUse" x1="-12.162" x2="40.848" xlink:href="#lg1" y1="483.947" y2="483.947"/><g><g><circle cx="92.891" cy="97.273" fill="url(#SVGID_1_)" r="50.067"/><path d="m49.971 123.06c18.691-26.714 41.92-50.014 68.577-68.781 14.618 8.743 24.41 24.722 24.41 42.994 0 27.651-22.416 50.067-50.067 50.067-18.219 0-34.161-9.733-42.92-24.28z" fill="url(#SVGID_2_)"/></g><g><circle cx="255.001" cy="255.001" fill="url(#SVGID_3_)" r="218.903"/><g><path d="m100.004 212.814c7.251-2.129 14.541-4.423 21.856-6.879 11.869-3.984 18.172-16.932 14.03-28.747l-.003-.008c-4.063-11.59-16.687-17.8-28.328-13.885-6.762 2.274-13.493 4.396-20.179 6.362-10.259 3.017-16.99 12.812-16.088 23.468 1.199 14.161 15.076 23.693 28.712 19.689z" fill="url(#SVGID_4_)"/><path d="m168.146 303.471c0-7.522-1.714-14.643-4.771-20.995 14.315-.086 25.895-11.714 25.895-26.049 0-14.389-11.665-26.054-26.053-26.054s-26.053 11.665-26.053 26.054c0 .629.03 1.252.074 1.87-5.446-2.118-11.363-3.293-17.558-3.293-26.768 0-48.468 21.7-48.468 48.468s21.7 48.467 48.468 48.467c26.767-.001 48.466-21.7 48.466-48.468z" fill="url(#SVGID_5_)"/><circle cx="197.216" cy="85.576" fill="url(#SVGID_6_)" r="26.053"/><path d="m255.001 36.101c-6.75 0-13.42.32-20.01.92 29.45 2.17 39.08 40.22 14.81 56.57-15.23 10.25-31.56 20.05-48.76 29.24-11.15 5.96-15.69 20-10.04 31.3 3.79 7.58 11.36 11.92 19.24 11.92 3.41 0 6.89-.82 10.13-2.54 21.29-11.3 41.42-23.52 60.04-36.39 10.79-7.47 25.51-5.43 33.96 4.6 4.06 4.81 6.02 10.65 6.02 16.44 0 7.93-3.67 15.78-10.67 20.8-9.3 6.66-19.06 13.16-29.23 19.45-9.03 5.58-13.33 16.64-9.82 26.65 4.9 13.96 21.1 19.25 33.19 11.78 30.73-19 58.21-39.84 81.08-61.58 10.37-9.86 27.39-6.14 32.8 7.11.05.13.11.27.16.4 2.95 7.27 1.44 15.6-3.87 21.37-6.19 6.73-14.12 15.14-18.22 18.99-22.26 20.94-49.44 41.03-80.07 59.24-4.66-17.3-20.99-29.82-40.03-28.59-19.72 1.29-35.48 17.57-36.17 37.32-.34 9.8 2.97 18.83 8.66 25.83-7.26 3.17-14.53 6.19-21.79 9.04-11.32 4.44-17.58 16.93-13.65 28.43 4.16 12.15 17.58 18.34 29.47 13.69 11.3-4.41 22.6-9.19 33.87-14.32 62.4-28.46 117.39-65.05 157.23-104.34.37 5.14.55 10.34.55 15.57 0 5.15-.18 10.25-.53 15.3-31 31.66-73.59 61.83-122.37 86.44-56.96 28.73-115.01 46.2-163.8 49.3-.79.05-1.58.1-2.37.14-20.79 1.14-38.71-.57-52.53-4.77 18.13 20.14 39.94 36.89 64.38 49.2 15.37-1.31 31.41-3.8 47.91-7.42 40.74-8.93 84.21-24.66 126.76-46.13.3-.15.6-.3.9-.45 19.1-9.68 35.78 16.34 19.03 29.69-32.5 25.88-72.52 42.72-116.27 46.68 6.59.6 13.26.92 20.01.92 120.9 0 218.9-98 218.9-218.9s-98-218.9-218.9-218.9zm88.88 96.82c-14.39 0-26.05-11.66-26.05-26.05s11.66-26.05 26.05-26.05 26.06 11.66 26.06 26.05-11.67 26.05-26.06 26.05zm52.73 263.22c-14.39 0-26.06-11.66-26.06-26.05s11.67-26.06 26.06-26.06 26.05 11.67 26.05 26.06-11.66 26.05-26.05 26.05z" fill="url(#SVGID_7_)"/></g><path d="m502.031 130.351c-16.81-33.33-57.24-50.74-114.34-49.47 18.68 14.26 35 31.46 48.27 50.91 12.64 4.21 21.57 10.62 25.75 18.9 4.18 8.27 4.03 19.24-.07 31.89-4.6 14.16-14.15 30.42-28.16 47.37-.5.6-1 1.2-1.51 1.8-31.48 37.42-80.02 73.74-136.99 102.49-56.96 28.73-115.01 46.2-163.8 49.3-.79.05-1.58.1-2.37.14-21.93 1.2-40.67-.77-54.77-5.48-12.64-4.21-21.57-10.62-25.75-18.9-4.18-8.27-4.03-19.23.07-31.88-7.6-21.7-11.88-44.96-12.23-69.17-34.97 45.18-44.99 88.06-28.16 121.4 16.24 32.2 54.52 49.54 108.57 49.54 1.9 0 3.82-.02 5.77-.07 2.94-.06 5.93-.18 8.96-.34 18.17-.99 37.41-3.73 57.3-8.09 40.74-8.93 84.21-24.66 126.76-46.13 42.54-21.47 81.02-47.09 112.41-74.55 15.33-13.41 28.97-27.26 40.56-41.29 1.93-2.33 3.79-4.65 5.57-6.97 23.89-30.86 36.13-60.64 36.13-87.05 0-12.26-2.64-23.78-7.97-34.35z" fill="url(#SVGID_8_)"/><path d="m510.001 164.701c0 26.41-12.24 56.19-36.13 87.05-1.78 2.32-3.64 4.64-5.57 6.97-11.59 14.03-25.23 27.88-40.56 41.29-31.39 27.46-69.87 53.08-112.41 74.55-42.55 21.47-86.02 37.2-126.76 46.13-19.89 4.36-39.13 7.1-57.3 8.09-3.03.16-6.02.28-8.96.34-1.95.05-3.87.07-5.77.07-6.71 0-13.18-.27-19.4-.8 6.96-.52 14.07-1.28 21.31-2.29 9.82-1.36 19.88-3.17 30.1-5.41 40.74-8.93 84.21-24.66 126.76-46.13 42.54-21.47 81.02-47.09 112.41-74.55 15.33-13.41 28.97-27.26 40.56-41.29 18.41-22.28 30.83-44.09 37.05-64.58 3.09-10.17 4.65-20.02 4.65-29.44 0-12.26-2.64-23.78-7.97-34.35-12.05-23.89-36.25-39.6-70.03-46.11-1.41-1.14-2.84-2.26-4.29-3.36 57.1-1.27 97.53 16.14 114.34 49.47 5.33 10.57 7.97 22.09 7.97 34.35z" fill="url(#SVGID_9_)"/><path d="m74.032 378.201c-12.64-4.21-21.57-10.62-25.74-18.9-4.18-8.27-4.03-19.23.07-31.88-3.588-10.239-6.427-20.812-8.463-31.68-2.29-12.172-3.582-24.697-3.767-37.49-8.93 11.537-16.222 22.923-21.867 34.039.997 5.81 2.227 11.54 3.677 17.182 2.701 10.513 3.277 21.413 2.414 32.233-.534 6.692.411 12.631 2.916 17.595 6.88 13.62 26.58 22.16 54.51 24.23 8.23.62 17.16.67 26.69.12 0-.01 0-.01 0-.01-11.631-.739-21.891-2.589-30.44-5.439z" fill="url(#SVGID_10_)"/></g><g><circle cx="440.277" cy="440.277" fill="url(#SVGID_11_)" r="69.723"/><g><path d="m440.278 370.554c-4.271 0-8.446.405-12.506 1.14 32.536 5.896 57.218 34.347 57.218 68.583 0 11.15-2.632 21.678-7.286 31.021-2.359-10.62-12.135-18.449-23.616-17.755-11.157.674-20.339 9.637-21.257 20.777-.482 5.852 1.252 11.288 4.455 15.56 5.085 6.783 1.517 16.574-6.756 18.422-.912.204-1.832.39-2.757.558 4.059.736 8.234 1.14 12.506 1.14 38.507 0 69.723-31.216 69.723-69.723s-31.218-69.723-69.724-69.723z" fill="url(#SVGID_12_)"/><circle cx="405.022" cy="438.751" fill="url(#SVGID_13_)" r="14.75"/><circle cx="449.946" cy="409.251" fill="url(#SVGID_14_)" r="14.75"/></g></g><circle cx="419.334" cy="26.054" fill="url(#SVGID_15_)" r="26.053"/><circle cx="26.053" cy="483.947" fill="url(#SVGID_16_)" r="26.053"/></g></svg>