<svg id="Layer_10" data-name="Layer 10" xmlns="http://www.w3.org/2000/svg" xmlns:xlink="http://www.w3.org/1999/xlink" viewBox="0 0 450 362"><defs><style>.cls-1{fill:#b2b2b2;}.cls-2{fill:#0b3051;}.cls-3{fill:url(#linear-gradient);}.cls-4{fill:url(#linear-gradient-2);}.cls-5{fill:#5aaef9;}.cls-6{fill:#b4d9f5;}.cls-10,.cls-11,.cls-12,.cls-13,.cls-14,.cls-15,.cls-16,.cls-17,.cls-18,.cls-19,.cls-20,.cls-21,.cls-22,.cls-7,.cls-9{fill:none;stroke-miterlimit:10;}.cls-13,.cls-14,.cls-15,.cls-16,.cls-17,.cls-18,.cls-19,.cls-20,.cls-21,.cls-22,.cls-7,.cls-9{stroke:#fff;}.cls-10,.cls-7,.cls-9{stroke-linecap:round;}.cls-7{stroke-width:2.14px;}.cls-8{fill:#fff;}.cls-9{stroke-width:7.5px;}.cls-10{stroke:#5aaef9;stroke-width:5.36px;}.cls-11,.cls-12{stroke:#b4d9f5;}.cls-11{stroke-width:1.07px;}.cls-12{stroke-width:1.61px;}.cls-13,.cls-14{stroke-width:0.9px;}.cls-14,.cls-16{stroke-dasharray:3.51 1.76;}.cls-15,.cls-16{stroke-width:0.9px;}.cls-17,.cls-18,.cls-19{stroke-width:0.9px;}.cls-18{stroke-dasharray:3.67 1.83;}.cls-19{stroke-dasharray:3.39 1.7;}.cls-20,.cls-21,.cls-22{stroke-width:0.91px;}.cls-21{stroke-dasharray:3.55 1.78;}.cls-22{stroke-dasharray:3.51 1.76;}</style><linearGradient id="linear-gradient" x1="102" y1="272" x2="102" y2="46.71" gradientUnits="userSpaceOnUse"><stop offset="0" stop-color="#0982fe"/><stop offset="1" stop-color="#3ca1d2"/></linearGradient><linearGradient id="linear-gradient-2" x1="349" y1="290" x2="349" y2="120.93" xlink:href="#linear-gradient"/></defs><path class="cls-1" d="M22.54,289c6.47,4.74,15,9.24,17.77,28.77,2.2,15.31,3.08,21.18,3.86,26.12,1.18,7.45,3,10.92,12.26,13.46,10.39,2.87,14.45,4.65,45.16,4.65s35.27-1.78,45.66-4.65c9.21-2.54,11.07-6,12.26-13.46.78-4.94,1.66-10.81,3.85-26.12,2.8-19.53,10.8-24,17.27-28.77"/><path class="cls-1" d="M180.63,73c-6.47-4.74-15-9.24-17.77-28.77-2.19-15.31-3.07-21.18-3.86-26.12C157.82,10.66,156,7.19,146.75,4.65,136.35,1.78,132.29,0,101.59,0S66.32,1.78,55.93,4.65c-9.21,2.54-11.08,6-12.26,13.46-.78,4.94-1.66,10.81-3.86,26.12C37,63.76,29,68.26,22.54,73"/><path class="cls-1" d="M213,135.58c0-9-.36-13.46-1.07-15.76s-1.4-2.82-2.56-3.4a5.2,5.2,0,0,0-2.93-.65,9.32,9.32,0,0,0-4,.65,7.85,7.85,0,0,1,.92-1.37c-.23-2.79-.56-8.19-1.06-11a50.38,50.38,0,0,0-4.78-14.34,46.28,46.28,0,0,0-8.71-11.82,46.87,46.87,0,0,0-12-8.55,52.3,52.3,0,0,0-14.59-4.7A127.69,127.69,0,0,0,144,63.16c-3-.1-6.1-.15-9-.16H69c-3,0-6,.06-9,.16a127.58,127.58,0,0,0-18.15,1.5,52.26,52.26,0,0,0-14.6,4.7,47,47,0,0,0-12,8.55A46.28,46.28,0,0,0,6.47,89.73a49.76,49.76,0,0,0-4.78,14.34A122,122,0,0,0,.16,121.9c-.1,3-.15,6-.16,8.89V231.21c0,2.9.06,5.91.16,8.89a122,122,0,0,0,1.53,17.83,49.76,49.76,0,0,0,4.78,14.34,46.28,46.28,0,0,0,8.71,11.82,47,47,0,0,0,12,8.55,52.26,52.26,0,0,0,14.6,4.7A127.58,127.58,0,0,0,60,298.84c3,.1,6.1.15,9,.16h66c2.95,0,6-.06,9-.16a127.69,127.69,0,0,0,18.15-1.5,52.3,52.3,0,0,0,14.59-4.7,46.87,46.87,0,0,0,12-8.55,46.28,46.28,0,0,0,8.71-11.82,50.38,50.38,0,0,0,4.78-14.34c.43-2.37.73-4.8.95-7.2a8.11,8.11,0,0,0-.06-1.69c-.09-.54-.2-.84-.26-1.21h.55c.19-2.75.29-5.39.35-7.73.09-3,.15-6,.16-8.89v-43.1h-.49l.49-1.65v-29a9.38,9.38,0,0,0-.6-1.18,11.42,11.42,0,0,0,3.05.31,5.2,5.2,0,0,0,2.93-.65c1.16-.58,1.89-1.23,2.56-3.4s1.07-7.74,1.07-16.77Z"/><path class="cls-2" d="M196,233.2c0,2.46-.05,5-.13,7.57A107.78,107.78,0,0,1,194.6,256a43.53,43.53,0,0,1-4,12.22,39.17,39.17,0,0,1-7.25,10.06,41,41,0,0,1-10,7.36,44.17,44.17,0,0,1-12.17,4,105.72,105.72,0,0,1-15.06,1.3c-1.62,0-3.24,0-4.86.05l-2.93,0c-3.08,0-69.52,0-72.6,0l-2.93,0c-1.62,0-3.24,0-4.86-.05a105.72,105.72,0,0,1-15.06-1.3,44.17,44.17,0,0,1-12.17-4,41,41,0,0,1-10-7.36,39.17,39.17,0,0,1-7.25-10.06A43.53,43.53,0,0,1,9.4,256a107.78,107.78,0,0,1-1.27-15.19c-.08-2.54-.12-5.11-.13-7.57V128.8c0-2.46.05-5,.13-7.57A107.78,107.78,0,0,1,9.4,106a43.53,43.53,0,0,1,4-12.22,39.17,39.17,0,0,1,7.25-10.06,41,41,0,0,1,10-7.36,44.17,44.17,0,0,1,12.17-4,105.72,105.72,0,0,1,15.06-1.3c1.62,0,3.24,0,4.86,0l2.93,0c3.08,0,69.52,0,72.6,0l2.93,0c1.62,0,3.24,0,4.86,0a105.72,105.72,0,0,1,15.06,1.3,44.17,44.17,0,0,1,12.17,4,41,41,0,0,1,10,7.36,39.17,39.17,0,0,1,7.25,10.06,43.53,43.53,0,0,1,4,12.22,107.78,107.78,0,0,1,1.27,15.19c.08,2.54.12,5.11.13,7.57Z"/><path class="cls-3" d="M177,235.85c0,1.5,0,3.06-.08,4.61a64.29,64.29,0,0,1-.79,9.24,26.14,26.14,0,0,1-2.48,7.44,24.05,24.05,0,0,1-4.5,6.13,24.54,24.54,0,0,1-6.23,4.43,27,27,0,0,1-7.56,2.44,66.3,66.3,0,0,1-9.39.78c-1.57.05-3.16.07-4.68.08H62.71c-1.52,0-3.11,0-4.68-.08a66.3,66.3,0,0,1-9.39-.78,27,27,0,0,1-7.56-2.44,24.54,24.54,0,0,1-6.23-4.43,24.05,24.05,0,0,1-4.5-6.13,26.14,26.14,0,0,1-2.48-7.44,64.29,64.29,0,0,1-.79-9.24c0-1.55-.07-3.11-.08-4.61V124.15c0-1.5,0-3.06.08-4.61a64.29,64.29,0,0,1,.79-9.24,26.14,26.14,0,0,1,2.48-7.44,24.05,24.05,0,0,1,4.5-6.13,24.54,24.54,0,0,1,6.23-4.43,27,27,0,0,1,7.56-2.44A66.3,66.3,0,0,1,58,89.08c1.57,0,3.16-.07,4.68-.08h78.58c1.52,0,3.11,0,4.68.08a66.3,66.3,0,0,1,9.39.78,27,27,0,0,1,7.56,2.44,24.54,24.54,0,0,1,6.23,4.43,24.05,24.05,0,0,1,4.5,6.13,26.14,26.14,0,0,1,2.48,7.44,64.29,64.29,0,0,1,.79,9.24c.05,1.55.07,3.11.08,4.61Z"/><path class="cls-1" d="M278.18,295.64c5.83,4.26,13.5,8.32,16,25.88,2,13.77,2.77,19.05,3.48,23.49,1.06,6.71,2.75,9.82,11.05,12.11,9.36,2.58,13,4.18,40.7,4.18s31.8-1.6,41.16-4.18c8.3-2.29,10-5.4,11.05-12.11.71-4.44,1.5-9.72,3.48-23.49,2.52-17.56,9.73-21.62,15.57-25.88"/><path class="cls-1" d="M420.69,98.66c-5.84-4.26-13.5-8.31-16-25.88-2-13.77-2.78-19-3.48-23.49-1.07-6.7-2.75-9.82-11.05-12.11-9.37-2.58-13-4.18-40.71-4.18s-31.79,1.6-41.16,4.18c-8.3,2.29-10,5.41-11,12.11-.71,4.45-1.5,9.72-3.48,23.49C291.22,90.35,284,94.4,278.18,98.66"/><path class="cls-1" d="M449.5,155.27c0-8.13-.32-12.11-1-14.18s-1.27-2.53-2.31-3.05a4.66,4.66,0,0,0-2.64-.59A8.41,8.41,0,0,0,440,138a7.1,7.1,0,0,1,.83-1.23c-.21-2.52-.5-7.38-.95-9.88a45.51,45.51,0,0,0-4.31-12.9,41.89,41.89,0,0,0-7.85-10.62,42.68,42.68,0,0,0-10.84-7.7,47.74,47.74,0,0,0-13.16-4.22,116,116,0,0,0-16.36-1.35c-2.73-.08-5.5-.13-8.16-.14H319.69c-2.65,0-5.42.06-8.15.14a116,116,0,0,0-16.36,1.35A47.63,47.63,0,0,0,282,95.71a42.33,42.33,0,0,0-10.84,7.7A41.65,41.65,0,0,0,263.33,114a45.51,45.51,0,0,0-4.31,12.9,110.25,110.25,0,0,0-1.38,16c-.08,2.68-.13,5.39-.14,8v92.1c0,2.6.06,5.31.14,8a110.25,110.25,0,0,0,1.38,16,45.51,45.51,0,0,0,4.31,12.9,41.65,41.65,0,0,0,7.85,10.62,42.33,42.33,0,0,0,10.84,7.7,47.63,47.63,0,0,0,13.16,4.22,116,116,0,0,0,16.36,1.35c2.73.08,5.5.13,8.15.14h59.49c2.66,0,5.43-.06,8.16-.14a116,116,0,0,0,16.36-1.35,47.74,47.74,0,0,0,13.16-4.22,42.68,42.68,0,0,0,10.84-7.7A41.89,41.89,0,0,0,435.55,280a45.51,45.51,0,0,0,4.31-12.9c.38-2.13.65-4.32.85-6.47a7.15,7.15,0,0,0,0-1.52c-.08-.49-.19-.76-.24-1.09h.5c.17-2.47.26-4.84.31-7,.09-2.68.14-5.39.15-8V202.49h-.44l.44-1.48V175a8.16,8.16,0,0,0-.54-1.07,10,10,0,0,0,2.75.28,4.75,4.75,0,0,0,2.64-.58c1-.52,1.7-1.11,2.31-3.06s1-7,1-15.08Z"/><path class="cls-2" d="M434.1,244.88c0,2.23,0,4.55-.12,6.83a96,96,0,0,1-1.14,13.7,39.13,39.13,0,0,1-3.6,11,35.43,35.43,0,0,1-6.55,9.08,36.91,36.91,0,0,1-9.08,6.63,39.68,39.68,0,0,1-11,3.61,95.84,95.84,0,0,1-13.6,1.17c-1.47,0-2.93,0-4.39,0L382,297c-2.78,0-62.8,0-65.58,0l-2.65,0c-1.46,0-2.92,0-4.39,0a95.84,95.84,0,0,1-13.6-1.17,39.75,39.75,0,0,1-11-3.61,36.86,36.86,0,0,1-9.07-6.63,35.43,35.43,0,0,1-6.55-9.08,38.81,38.81,0,0,1-3.6-11,97.53,97.53,0,0,1-1.15-13.7c-.07-2.28-.11-4.6-.12-6.83V149c0-2.22,0-4.54.12-6.83a97.51,97.51,0,0,1,1.15-13.69,38.81,38.81,0,0,1,3.6-11,35.43,35.43,0,0,1,6.55-9.08,36.86,36.86,0,0,1,9.07-6.63,39.75,39.75,0,0,1,11-3.61,95.84,95.84,0,0,1,13.6-1.17c1.47,0,2.93,0,4.39,0l2.65,0c2.78,0,62.8,0,65.58,0l2.65,0c1.46,0,2.92,0,4.39,0a95.84,95.84,0,0,1,13.6,1.17,39.68,39.68,0,0,1,11,3.61,36.91,36.91,0,0,1,9.08,6.63,35.43,35.43,0,0,1,6.55,9.08,39.13,39.13,0,0,1,3.6,11A95.93,95.93,0,0,1,434,142.13c.08,2.29.12,4.61.12,6.83Z"/><path class="cls-4" d="M416.5,247.67c0,1.34,0,2.73-.07,4.11a57,57,0,0,1-.72,8.24,23.19,23.19,0,0,1-2.22,6.63,21.56,21.56,0,0,1-4.06,5.46,21.92,21.92,0,0,1-5.6,3.95,24.57,24.57,0,0,1-6.8,2.17,59.79,59.79,0,0,1-8.45.7c-1.42,0-2.85.07-4.22.07H313.64c-1.37,0-2.8,0-4.22-.07a59.79,59.79,0,0,1-8.45-.7,24.57,24.57,0,0,1-6.8-2.17,21.92,21.92,0,0,1-5.6-3.95,21.56,21.56,0,0,1-4.06-5.46,23.19,23.19,0,0,1-2.22-6.63,57,57,0,0,1-.72-8.24c0-1.38-.06-2.77-.07-4.11V146.33c0-1.34,0-2.73.07-4.11a57,57,0,0,1,.72-8.24,23.19,23.19,0,0,1,2.22-6.63,21.56,21.56,0,0,1,4.06-5.46,21.92,21.92,0,0,1,5.6-4,24.57,24.57,0,0,1,6.8-2.17,59.79,59.79,0,0,1,8.45-.7c1.42,0,2.85-.07,4.22-.07h70.72c1.37,0,2.8,0,4.22.07a59.79,59.79,0,0,1,8.45.7,24.57,24.57,0,0,1,6.8,2.17,21.92,21.92,0,0,1,5.6,4,21.56,21.56,0,0,1,4.06,5.46,23.19,23.19,0,0,1,2.22,6.63,57,57,0,0,1,.72,8.24c0,1.38.06,2.77.07,4.11Z"/><circle class="cls-5" cx="102" cy="181.05" r="75"/><path class="cls-5" d="M67.3,199.89a20.36,20.36,0,1,1,20.36-20.36A20.38,20.38,0,0,1,67.3,199.89Z"/><path class="cls-6" d="M67.3,159.71a19.82,19.82,0,1,1-19.82,19.82A19.85,19.85,0,0,1,67.3,159.71m0-1.07a20.9,20.9,0,1,0,20.9,20.89,20.89,20.89,0,0,0-20.9-20.89Z"/><circle class="cls-5" cx="45.83" cy="106.63" r="13.24"/><circle class="cls-5" cx="158.48" cy="253.42" r="13.24"/><path class="cls-5" d="M136.17,199.89a20.36,20.36,0,1,1,20.36-20.36A20.38,20.38,0,0,1,136.17,199.89Z"/><path class="cls-6" d="M136.17,159.71a19.82,19.82,0,1,1-19.82,19.82,19.84,19.84,0,0,1,19.82-19.82m0-1.07a20.9,20.9,0,1,0,20.9,20.89,20.89,20.89,0,0,0-20.9-20.89Z"/><path class="cls-5" d="M101.6,236A20.36,20.36,0,1,1,122,215.68,20.38,20.38,0,0,1,101.6,236Z"/><path class="cls-6" d="M101.6,195.86a19.82,19.82,0,1,1-19.82,19.82,19.84,19.84,0,0,1,19.82-19.82m0-1.07a20.89,20.89,0,1,0,20.89,20.89,20.89,20.89,0,0,0-20.89-20.89Z"/><path class="cls-5" d="M101.6,164.25A20.36,20.36,0,1,1,122,143.89,20.38,20.38,0,0,1,101.6,164.25Z"/><path class="cls-6" d="M101.6,124.07a19.82,19.82,0,1,1-19.82,19.82,19.84,19.84,0,0,1,19.82-19.82m0-1.07a20.9,20.9,0,1,0,20.89,20.89A20.89,20.89,0,0,0,101.6,123Z"/><circle class="cls-5" cx="45.14" cy="258.21" r="8.5"/><circle class="cls-5" cx="159" cy="102.97" r="8.5"/><path class="cls-7" d="M95.54,174.36l3.9,3.68-3.9-3.68-3.9-3.67Z"/><circle class="cls-8" cx="101.39" cy="179.87" r="3.21"/><line class="cls-9" x1="70.57" y1="150.87" x2="91.64" y2="170.69"/><line class="cls-10" x1="70.57" y1="150.87" x2="91.64" y2="170.69"/><path class="cls-7" d="M107.52,174.68l-4.08,3.46,4.08-3.46,4.09-3.47Z"/><circle class="cls-8" cx="101.39" cy="179.87" r="3.21"/><line class="cls-9" x1="152.53" y1="136.5" x2="111.61" y2="171.21"/><line class="cls-10" x1="152.53" y1="136.5" x2="111.61" y2="171.21"/><path class="cls-5" d="M61.33,254.37a4.68,4.68,0,0,1,3-4.33,78.63,78.63,0,0,1-26.07-22.53,2.68,2.68,0,0,0-4.3,3.2,84,84,0,0,0,27.42,23.83C61.35,254.48,61.33,254.42,61.33,254.37Z"/><path class="cls-5" d="M77.49,255.62c-2.38-.76-4.71-1.64-7-2.61a4.51,4.51,0,0,1,.23,1.43,4.67,4.67,0,0,1-1.87,3.69q3.44,1.44,7,2.6a2.71,2.71,0,0,0,.79.12,2.68,2.68,0,0,0,.84-5.23Z"/><circle class="cls-5" cx="66.03" cy="254.4" r="2.56"/><line class="cls-11" x1="101.39" y1="166.95" x2="101.39" y2="246.23"/><circle class="cls-12" cx="101.39" cy="179.8" r="1.61"/><circle class="cls-6" cx="101.39" cy="179.78" r="1.07"/><path class="cls-5" d="M143.24,107a4.69,4.69,0,0,1-3,4.31A78.44,78.44,0,0,1,166.18,134a2.68,2.68,0,0,0,4.32-3.17,83.79,83.79,0,0,0-27.27-24A.91.91,0,0,1,143.24,107Z"/><path class="cls-5" d="M127.09,105.6q3.57,1.17,7,2.66a4.86,4.86,0,0,1-.23-1.43,4.68,4.68,0,0,1,1.9-3.69q-3.42-1.45-7-2.63a2.42,2.42,0,0,0-.79-.13,2.68,2.68,0,0,0-.87,5.22Z"/><circle class="cls-5" cx="138.4" cy="107.02" r="2.56"/><polyline class="cls-13" points="326 173.69 326 175.5 324.19 175.5"/><line class="cls-14" x1="322.44" y1="175.5" x2="291.68" y2="175.5"/><polyline class="cls-13" points="290.81 175.5 289 175.5 289 173.69"/><line class="cls-14" x1="289" y1="171.94" x2="289" y2="141.18"/><polyline class="cls-13" points="289 140.31 289 138.5 290.81 138.5"/><line class="cls-14" x1="292.56" y1="138.5" x2="323.32" y2="138.5"/><polyline class="cls-13" points="324.19 138.5 326 138.5 326 140.31"/><line class="cls-14" x1="326" y1="142.06" x2="326" y2="172.82"/><polyline class="cls-15" points="326 266.69 326 268.5 324.19 268.5"/><line class="cls-16" x1="322.44" y1="268.5" x2="291.68" y2="268.5"/><polyline class="cls-15" points="290.81 268.5 289 268.5 289 266.69"/><line class="cls-16" x1="289" y1="264.94" x2="289" y2="234.18"/><polyline class="cls-15" points="289 233.31 289 231.5 290.81 231.5"/><line class="cls-16" x1="292.56" y1="231.5" x2="323.32" y2="231.5"/><polyline class="cls-15" points="324.19 231.5 326 231.5 326 233.31"/><line class="cls-16" x1="326" y1="235.06" x2="326" y2="265.82"/><polyline class="cls-15" points="368 266.69 368 268.5 366.19 268.5"/><line class="cls-16" x1="364.44" y1="268.5" x2="333.68" y2="268.5"/><polyline class="cls-15" points="332.81 268.5 331 268.5 331 266.69"/><line class="cls-16" x1="331" y1="264.94" x2="331" y2="234.18"/><polyline class="cls-15" points="331 233.31 331 231.5 332.81 231.5"/><line class="cls-16" x1="334.56" y1="231.5" x2="365.32" y2="231.5"/><polyline class="cls-15" points="366.19 231.5 368 231.5 368 233.31"/><line class="cls-16" x1="368" y1="235.06" x2="368" y2="265.82"/><polyline class="cls-15" points="410 266.69 410 268.5 408.19 268.5"/><line class="cls-16" x1="406.44" y1="268.5" x2="375.68" y2="268.5"/><polyline class="cls-15" points="374.81 268.5 373 268.5 373 266.69"/><line class="cls-16" x1="373" y1="264.94" x2="373" y2="234.18"/><polyline class="cls-15" points="373 233.31 373 231.5 374.81 231.5"/><line class="cls-16" x1="376.56" y1="231.5" x2="407.32" y2="231.5"/><polyline class="cls-15" points="408.19 231.5 410 231.5 410 233.31"/><line class="cls-16" x1="410" y1="235.06" x2="410" y2="265.82"/><polyline class="cls-17" points="410 224.69 410 226.5 408.19 226.5"/><line class="cls-18" x1="406.36" y1="226.5" x2="291.72" y2="226.5"/><polyline class="cls-17" points="290.81 226.5 289 226.5 289 224.69"/><line class="cls-19" x1="289" y1="223" x2="289" y2="183.15"/><polyline class="cls-17" points="289 182.31 289 180.5 290.81 180.5"/><line class="cls-18" x1="292.64" y1="180.5" x2="407.28" y2="180.5"/><polyline class="cls-17" points="408.19 180.5 410 180.5 410 182.31"/><line class="cls-19" x1="410" y1="184" x2="410" y2="223.85"/><polyline class="cls-20" points="410 173.69 410 175.5 408.19 175.5"/><line class="cls-21" x1="406.41" y1="175.5" x2="332.7" y2="175.5"/><polyline class="cls-20" points="331.81 175.5 330 175.5 330 173.69"/><line class="cls-22" x1="330" y1="171.93" x2="330" y2="141.19"/><polyline class="cls-20" points="330 140.31 330 138.5 331.81 138.5"/><line class="cls-21" x1="333.59" y1="138.5" x2="407.3" y2="138.5"/><polyline class="cls-20" points="408.19 138.5 410 138.5 410 140.31"/><line class="cls-22" x1="410" y1="142.07" x2="410" y2="172.81"/><circle class="cls-5" cx="307" cy="249.5" r="11.5"/><circle class="cls-5" cx="307" cy="157.5" r="11.5"/><circle class="cls-5" cx="349.5" cy="249.5" r="11.5"/><circle class="cls-5" cx="391" cy="249.5" r="11.5"/><rect class="cls-5" x="293.5" y="202" width="84" height="20"/><rect class="cls-5" x="293.5" y="185" width="35" height="13"/><path class="cls-8" d="M342.22,167.53V150.87h-.05c-1,.57-3.19,1.88-4.54,2.81v-2.51a47.57,47.57,0,0,1,4.74-2.91h2.29v19.27Z"/><path class="cls-8" d="M348.8,157.17c0-5.67,2.41-9.32,6.8-9.32s6.77,3.63,6.77,9.32v1.5c0,5.63-2.36,9.27-6.78,9.27s-6.79-3.62-6.79-9.27Zm2.44,1.47c0,4.56,1.65,7.14,4.35,7.14s4.33-2.58,4.33-7.14v-1.46c0-4.56-1.65-7.17-4.33-7.17s-4.35,2.61-4.35,7.17Z"/><path class="cls-8" d="M367.06,151.44a1.63,1.63,0,1,1-1.62,1.62A1.64,1.64,0,0,1,367.06,151.44Zm0,10.06a1.63,1.63,0,1,1,0,3.26,1.63,1.63,0,0,1,0-3.26Z"/><path class="cls-8" d="M371.93,157.17c0-5.67,2.41-9.32,6.8-9.32s6.76,3.63,6.76,9.32v1.5c0,5.63-2.36,9.27-6.78,9.27s-6.78-3.62-6.78-9.27Zm2.44,1.47c0,4.56,1.65,7.14,4.34,7.14s4.34-2.58,4.34-7.14v-1.46c0-4.56-1.65-7.17-4.34-7.17s-4.34,2.61-4.34,7.17Z"/><path class="cls-8" d="M390.82,162.81a3.57,3.57,0,0,0,3.8,3c3,0,4.7-3.06,4.71-7.82h-.1c-.55,1.5-2.3,2.85-5,2.85a6,6,0,0,1-6.05-6.39,6.35,6.35,0,0,1,6.49-6.54c4.24,0,7.06,2.66,7.06,9.64,0,6.52-2.68,10.38-7.23,10.38-4,0-6-2.77-6.15-5.09Zm4-12.81a4.09,4.09,0,0,0-4.22,4.37,4,4,0,0,0,4.13,4.34,4.24,4.24,0,0,0,4.28-4.27C399,151.44,397.11,150,394.83,150Z"/></svg>